SplineFontDB: 3.2
FontName: SteMiNormal
FullName: SteMiNormal
FamilyName: SteMi Normal
Weight: Light
Copyright: Created by Krzysztof (Stenografow) Smirnow, with FontForge 2.0 (https://www.stenografia.pl)
UComments: "PL: Font, kt+APMA-rego zadaniem jest umo+AXwA-liwienie tworzenia tekst+APMA-w przy pomocy stenograficznego pisma SteMi: +AAoA-https://www.stenografia.pl/blog/2013-02-28_kurs-stemi-lekcja-01/+AAoA-EN:+AKAA Font whose task is to enable the creation of texts using the SteMi shorthand script (Polish basically, but)"
FontLog: "v. 2.0 began in 2023+AAoA-v. 1.0 postponed in 2013+AAoA-v. 1.0 began in 2012"
Version: 002.000
ItalicAngle: 0
UnderlinePosition: -298
UnderlineWidth: 148
Ascent: 2000
Descent: 1000
InvalidEm: 0
sfntRevision: 0x00020000
LayerCount: 3
Layer: 0 1 "Warstwa t+AUIA-a" 1
Layer: 1 1 "Plan pierwszy" 1
Layer: 2 0 "Warstwa t+AUIA-a 2" 1
HasVMetrics: 1
XUID: [1021 102 369710040 9179092]
BaseHoriz: 0
StyleMap: 0x0040
FSType: 0
OS2Version: 4
OS2_WeightWidthSlopeOnly: 0
OS2_UseTypoMetrics: 1
CreationTime: 1379607424
ModificationTime: 1718269174
PfmFamily: 17
TTFWeight: 300
TTFWidth: 3
LineGap: 270
VLineGap: 270
Panose: 2 0 5 3 0 0 0 0 0 0
OS2TypoAscent: 2000
OS2TypoAOffset: 0
OS2TypoDescent: -1000
OS2TypoDOffset: 0
OS2TypoLinegap: 270
OS2WinAscent: 3557
OS2WinAOffset: 0
OS2WinDescent: 1092
OS2WinDOffset: 0
HheadAscent: 3557
HheadAOffset: 0
HheadDescent: -1092
HheadDOffset: 0
OS2SubXSize: 1950
OS2SubYSize: 2100
OS2SubXOff: 0
OS2SubYOff: 420
OS2SupXSize: 1950
OS2SupYSize: 2100
OS2SupXOff: 0
OS2SupYOff: 1440
OS2StrikeYSize: 149
OS2StrikeYPos: 776
OS2CapHeight: 3432
OS2XHeight: 1520
OS2FamilyClass: 2560
OS2Vendor: 'KsMi'
OS2CodePages: 00000001.00000000
OS2UnicodeRanges: 00000007.02000000.04000000.00000000
MarkAttachClasses: 1
DEI: 91125
TtTable: prep
PUSHW_1
 511
SCANCTRL
PUSHB_1
 1
SCANTYPE
SVTCA[y-axis]
MPPEM
PUSHB_1
 8
LT
IF
PUSHB_2
 1
 1
INSTCTRL
EIF
PUSHB_2
 70
 6
CALL
IF
POP
PUSHB_1
 16
EIF
MPPEM
PUSHB_1
 20
GT
IF
POP
PUSHB_1
 128
EIF
SCVTCI

StartChar: .notdef
Encoding: 1114112 -1 0
Width: 1500
Flags: W
LayerCount: 3
Fore
SplineSet
150 0 m 1,0,-1
 150 1333 l 1,1,-1
 1350 1333 l 1,2,-1
 1350 0 l 1,3,-1
 150 0 l 1,0,-1
300 150 m 1,4,-1
 1200 150 l 1,5,-1
 1200 1183 l 1,6,-1
 300 1183 l 1,7,-1
 300 150 l 1,4,-1
EndSplineSet
Validated: 1
EndChar

StartChar: percent
Encoding: 37 37 9
Width: 2128
VWidth: 2048
GlyphClass: 2
Flags: W
LayerCount: 3
Fore
Refer: 286 57354 N 0.642788 -0.766044 0.766044 0.642788 306.2 742.689 2
Refer: 286 57354 N 0.642788 -0.766044 0.766044 0.642788 146.557 -99.9044 2
Refer: 281 57352 N 0.866025 -0.5 0.5 0.866025 147.94 -129.002 2
Refer: 301 57481 N 1 0 0 1 732 38 2
Refer: 301 57481 S 1 0 0 1 59 634 2
Layer: 2
SplineSet
302 1216 m 4
 302 1305.33333333 332.666666667 1381.33333333 394 1444 c 4
 455.333333333 1505.33333333 531 1536 621 1536 c 4
 663 1536 704 1528 744 1512 c 4
 783.333333333 1495.33333333 817.666666667 1472.33333333 847 1443 c 132
 876.333333333 1413.66666667 899.333333333 1379.33333333 916 1340 c 4
 930 1307.33333333 938 1273 940 1237 c 5
 1563 2001 l 5
 1750 2001 l 5
 610 -474 l 5
 1264 391 l 6
 1270.66666667 399 1276 404.666666667 1280 408 c 4
 1341.33333333 470 1416.66666667 501 1506 501 c 4
 1548.66666667 501 1589.33333333 493 1628 477 c 4
 1666 461 1700.33333333 437.666666667 1731 407 c 4
 1761 377 1784.66666667 342 1802 302 c 4
 1818.66666667 264 1827 223.666666667 1827 181 c 4
 1827 92.3333333333 1796 17 1734 -45 c 132
 1672 -107 1596 -138 1506 -138 c 4
 1415.33333333 -138 1339.66666667 -107.333333333 1279 -46 c 4
 1230.33333333 2.66666666667 1201 61.3333333333 1191 130 c 5
 541 -749 l 5
 348 -749 l 5
 1532 1809 l 5
 848 990 l 5
 786 928 710.333333333 897 621 897 c 4
 531 897 455.333333333 927.666666667 394 989 c 132
 332.666666667 1050.33333333 302 1126 302 1216 c 4
437 1216 m 4
 437 1163.33333333 454.666666667 1119.33333333 490 1084 c 4
 524.666666667 1049.33333333 568.333333333 1032 621 1032 c 4
 672.333333333 1032 716 1050 752 1086 c 4
 788 1120.66666667 806 1164 806 1216 c 132
 806 1268 788 1311.33333333 752 1346 c 4
 716 1382 672.333333333 1400 621 1400 c 4
 570.333333333 1400 526.666666667 1382.33333333 490 1347 c 4
 454.666666667 1311.66666667 437 1268 437 1216 c 4
1323 181 m 4
 1323 128.333333333 1340.66666667 84.6666666667 1376 50 c 4
 1410 14.6666666667 1453.33333333 -3 1506 -3 c 4
 1557.33333333 -3 1600.66666667 14.6666666667 1636 50 c 4
 1672 86 1690 129.666666667 1690 181 c 132
 1690 232.333333333 1672 276 1636 312 c 132
 1600 348 1556.66666667 366 1506 366 c 4
 1453.33333333 366 1410 348.333333333 1376 313 c 4
 1340.66666667 278.333333333 1323 234.333333333 1323 181 c 4
EndSplineSet
EndChar

StartChar: ampersand
Encoding: 38 38 10
Width: 844
VWidth: 2048
GlyphClass: 2
Flags: W
LayerCount: 3
Fore
SplineSet
130.01953125 332.239257812 m 4,0,1
 130.01953125 220.69140625 130.01953125 220.69140625 204.630859375 147.190429688 c 132,-1,2
 279.241210938 73.6875 279.241210938 73.6875 392.264648438 73.6875 c 4,3,4
 492.731445312 73.6875 492.731445312 73.6875 581.377929688 146.081054688 c 5,5,-1
 265.205078125 574.540039062 l 5,6,7
 202.4140625 524.306640625 202.4140625 524.306640625 166.217773438 467.055664062 c 132,-1,8
 130.01953125 409.8046875 130.01953125 409.8046875 130.01953125 332.239257812 c 4,0,1
321.348632812 708.987304688 m 5,9,10
 353.852539062 720.067382812 353.852539062 720.067382812 381.922851562 752.202148438 c 132,-1,11
 409.995117188 784.3359375 409.995117188 784.3359375 424.400390625 819.055664062 c 132,-1,12
 438.8046875 853.775390625 438.8046875 853.775390625 439.54296875 880.369140625 c 6,13,-1
 439.54296875 883.325195312 l 6,14,15
 439.54296875 906.224609375 439.54296875 906.224609375 424.400390625 927.278320312 c 132,-1,16
 409.256835938 948.331054688 409.256835938 948.331054688 386.35546875 960.151367188 c 4,17,18
 360.5 974.186523438 360.5 974.186523438 343.509765625 974.186523438 c 4,19,20
 325.041992188 974.186523438 325.041992188 974.186523438 303.618164062 956.45703125 c 4,21,22
 262.250976562 923.215820312 262.250976562 923.215820312 262.250976562 866.333984375 c 4,23,24
 262.250976562 824.227539062 262.250976562 824.227539062 277.763671875 788.029296875 c 132,-1,25
 293.27734375 751.833007812 293.27734375 751.833007812 321.348632812 708.987304688 c 5,9,10
204.630859375 657.276367188 m 5,26,27
 169.68359375 708 169.68359375 708 151.072265625 756.633789062 c 132,-1,28
 132.68359375 805 132.68359375 805 132.236328125 864.856445312 c 4,29,30
 132.68359375 976 132.68359375 976 206.108398438 1039.93359375 c 4,31,32
 239.68359375 1069 239.68359375 1069 267.421875 1082.77929688 c 132,-1,33
 295.68359375 1096 295.68359375 1096 335.384765625 1096.07519531 c 4,34,35
 355.68359375 1096 355.68359375 1096 376.752929688 1093.12109375 c 4,36,37
 429.68359375 1086 429.68359375 1086 486.821289062 1043.25683594 c 132,-1,38
 543.68359375 1001 543.68359375 1001 554.784179688 960.151367188 c 4,39,40
 563.68359375 927 563.68359375 927 563.6484375 895.143554688 c 4,41,42
 563.68359375 818 563.68359375 818 515.631835938 745.552734375 c 132,-1,43
 467.68359375 674 467.68359375 674 386.35546875 618.124023438 c 5,44,-1
 669.28515625 238.421875 l 5,45,46
 728.926757812 315.3125 728.926757812 315.3125 723.68359375 524 c 6,48,49
 723.68359375 524 723.68359375 524 723.211914062 542.775390625 c 5,50,-1
 844.361328125 542.775390625 l 5,51,-1
 844.361328125 513.963867188 l 6,52,53
 844.68359375 279 844.68359375 279 734.29296875 150.513671875 c 5,54,-1
 805.68359375 48 l 5,55,-1
 702.68359375 -22 l 5,56,-1
 644.907226562 61.8671875 l 5,57,58
 524.68359375 -40 524.68359375 -40 368.18359375 -40 c 132,-1,59
 211.68359375 -40 211.68359375 -40 105.641601562 58.54296875 c 132,-1,60
 0.68359375 156 0.68359375 156 0.005859375 309.338867188 c 4,61,62
 -0.31640625 369 -0.31640625 369 15.8876953125 421.625 c 132,-1,63
 31.68359375 474 31.68359375 474 61.6884765625 516.549804688 c 132,-1,64
 91.68359375 559 91.68359375 559 125.587890625 591.8984375 c 132,-1,65
 159.68359375 625 159.68359375 625 204.630859375 657.276367188 c 5,26,27
EndSplineSet
Refer: 320 57346 S 1 0 0 1 694.684 -47 2
Refer: 320 57346 S 1 0 0 1 723.684 483 2
EndChar

StartChar: parenleft
Encoding: 40 40 12
Width: 1334
VWidth: 2048
GlyphClass: 2
Flags: W
LayerCount: 3
Fore
SplineSet
561 780 m 1,9,10
 609 177 609 177 717.5 -193 c 0,11,12
 807 -499 807 -499 978 -813 c 1,13,-1
 870 -874 l 1,14,15
 668 -506 668 -506 586 -213 c 0,16,17
 444 298 444 298 434 713 c 1,19,-1
 434 833 l 1,21,22
 426 1309 426 1309 528 1737 c 0,23,24
 641 2212 641 2212 897 2775 c 1,27,-1
 1005 2714 l 1,0,1
 781 2226 781 2226 656 1692 c 0,2,3
 558 1276 558 1276 561 780 c 1,9,10
EndSplineSet
Refer: 320 57346 N 1 0 0 1 891 2685 2
Refer: 320 57346 N 1 0 0 1 864 -903 2
Refer: 294 57356 N 0 1 -1 0 754.5 712.5 2
EndChar

StartChar: comma
Encoding: 44 44 16
Width: 805
VWidth: 2048
GlyphClass: 2
Flags: W
LayerCount: 3
Fore
SplineSet
41.552734375 -399.571289062 m 1,0,1
 165.55078125 -364.668945312 165.55078125 -364.668945312 233.435546875 -296.669921875 c 1,2,3
 322.528320312 -207.69140625 322.528320312 -207.69140625 354.09375 -91.2734375 c 1,4,5
 413.038085938 -107.282226562 413.038085938 -107.282226562 472.887695312 -123.799804688 c 1,8,9
 434.958007812 -266.381835938 434.958007812 -266.381835938 318.995117188 -382.229492188 c 1,10,11
 223.533203125 -477.806640625 223.533203125 -477.806640625 73.3720703125 -517.658203125 c 1,12,13
 56.65625 -452.350585938 56.65625 -452.350585938 41.552734375 -399.571289062 c 1,0,1
44.380859375 -473.110351562 m 25,0,-1
 72.6650390625 -444.826171875 l 25,1,-1
 72.6650390625 -473.110351562 l 25,2,-1
 44.380859375 -444.826171875 l 1049,3,-1
15.7431640625 -501.041015625 m 128,-1,5
 -2.9951171875 -482.302734375 -2.9951171875 -482.302734375 -2.9951171875 -459.67578125 c 0,6,7
 -2.9951171875 -435.633789062 -2.9951171875 -435.633789062 16.0966796875 -416.541992188 c 0,7,8
 37.3095703125 -395.329101562 37.3095703125 -395.329101562 60.6689453125 -396.060546875 c 0,9,10
 81.150390625 -396.743164062 81.150390625 -396.743164062 100.94921875 -416.541992188 c 128,-1,11
 120.748046875 -436.340820312 120.748046875 -436.340820312 121.431640625 -456.823242188 c 0,12,13
 122.163085938 -480.181640625 122.163085938 -480.181640625 100.94921875 -501.395507812 c 0,14,15
 82.564453125 -519.780273438 82.564453125 -519.780273438 57.1083984375 -519.780273438 c 0,16,17
 34.4814453125 -519.780273438 34.4814453125 -519.780273438 15.7431640625 -501.041015625 c 128,-1,5
398.641601562 -121.678710938 m 25,0,-1
 426.92578125 -93.39453125 l 25,1,-1
 426.92578125 -121.678710938 l 25,2,-1
 398.641601562 -93.39453125 l 1049,3,-1
370.00390625 -149.609375 m 128,-1,5
 351.265625 -130.87109375 351.265625 -130.87109375 351.265625 -108.243164062 c 0,6,7
 351.265625 -84.2021484375 351.265625 -84.2021484375 370.357421875 -65.1103515625 c 0,7,8
 391.5703125 -43.896484375 391.5703125 -43.896484375 414.928710938 -44.6279296875 c 0,9,10
 435.411132812 -45.310546875 435.411132812 -45.310546875 455.209960938 -65.1103515625 c 128,-1,11
 475.008789062 -84.9091796875 475.008789062 -84.9091796875 475.692382812 -105.390625 c 0,12,13
 476.422851562 -128.75 476.422851562 -128.75 455.209960938 -149.962890625 c 0,14,15
 436.825195312 -168.34765625 436.825195312 -168.34765625 411.369140625 -168.34765625 c 0,16,17
 388.7421875 -168.34765625 388.7421875 -168.34765625 370.00390625 -149.609375 c 128,-1,5
EndSplineSet
Refer: 283 57358 N 0 -1 1 0 238.5 -46.5 2
Layer: 2
SplineSet
416 250 m 1
 651 249 l 1
 650 125 l 1026
EndSplineSet
EndChar

StartChar: period
Encoding: 46 46 18
Width: 1538
VWidth: 0
GlyphClass: 2
Flags: W
LayerCount: 3
Fore
Refer: 293 57355 S -0.707107 -0.707107 0.707107 -0.707107 65.4177 21.5725 2
Refer: 293 57355 S 0.707107 -0.707107 0.707107 0.707107 -21.2133 -473.787 2
Layer: 2
SplineSet
1356.98046875 196 m 5
 1538.98046875 197 l 5
 1370.98046875 6 l 5
 1528.98046875 -186 l 5
 1346.98046875 -188 l 5
 1296.98046875 -78 l 5
 1225.98046875 -192 l 5
 1064.98046875 -188 l 5
 1225.98046875 -1 l 5
 1065.98046875 197 l 5
 1242.98046875 197 l 5
 1302.98046875 93 l 5
 1356.98046875 196 l 5
EndSplineSet
EndChar

StartChar: zero
Encoding: 48 48 20
Width: 1233
VWidth: 2048
GlyphClass: 2
Flags: W
LayerCount: 3
Fore
SplineSet
616 1520 m 0,0,1
 855 1520 855 1520 978 1324 c 0,2,3
 1100 1127 1100 1127 1100 745 c 0,4,5
 1100 364 1100 364 978 167 c 0,6,7
 855 -29 855 -29 616 -29 c 0,8,9
 376 -29 376 -29 255 167 c 0,10,11
 133 364 133 364 133 745 c 0,12,13
 133 1127 133 1127 255 1324 c 0,14,15
 376 1520 376 1520 616 1520 c 0,0,1
616 1360 m 0,16,17
 475 1360 475 1360 406 1208 c 0,18,19
 336 1058 336 1058 336 745 c 0,20,21
 336 471 336 471 390 321 c 1,22,-1
 780 1285 l 1,23,24
 716 1360 716 1360 616 1360 c 0,16,17
471 187 m 1,25,26
 532 131 532 131 616 131 c 0,27,28
 757 131 757 131 828 283 c 0,29,30
 897 434 897 434 897 745 c 0,31,32
 897 975 897 975 860 1116 c 1,33,-1
 471 187 l 1,25,26
EndSplineSet
Validated: 1
EndChar

StartChar: one
Encoding: 49 49 21
Width: 1233
VWidth: 2048
GlyphClass: 2
Flags: W
LayerCount: 3
Fore
SplineSet
270 170 m 1,0,-1
 584 170 l 1,1,-1
 584 1311 l 1,2,-1
 246 1235 l 1,3,-1
 246 1419 l 1,4,-1
 582 1493 l 1,5,-1
 784 1493 l 1,6,-1
 784 170 l 1,7,-1
 1094 170 l 1,8,-1
 1094 0 l 1,9,-1
 270 0 l 1,10,-1
 270 170 l 1,0,-1
EndSplineSet
Validated: 1
EndChar

StartChar: two
Encoding: 50 50 22
Width: 1233
VWidth: 2048
GlyphClass: 2
Flags: W
LayerCount: 3
Fore
SplineSet
373 170 m 1,0,-1
 1059 170 l 1,1,-1
 1059 0 l 1,2,-1
 152 0 l 1,3,-1
 152 170 l 1,4,5
 340 366 340 366 479 518 c 0,6,7
 632 684 632 684 672 731 c 0,8,9
 772 852 772 852 807 928 c 0,10,11
 842 1006 842 1006 842 1083 c 0,12,13
 842 1209 842 1209 769 1279 c 0,14,15
 695 1350 695 1350 567 1350 c 0,16,17
 476 1350 476 1350 376 1317 c 128,-1,18
 276 1284 276 1284 164 1217 c 1,19,-1
 164 1421 l 1,20,21
 264 1469 264 1469 367 1495 c 0,22,23
 464 1520 464 1520 563 1520 c 0,24,25
 782 1520 782 1520 916 1404 c 0,26,27
 1049 1287 1049 1287 1049 1098 c 0,28,29
 1049 1003 1049 1003 1005 906 c 0,30,31
 959 808 959 808 860 694 c 0,32,33
 831 660 831 660 698 514 c 0,34,35
 623 434 623 434 373 170 c 1,0,-1
EndSplineSet
Validated: 1
EndChar

StartChar: three
Encoding: 51 51 23
Width: 1233
VWidth: 2048
GlyphClass: 2
Flags: W
LayerCount: 3
Fore
SplineSet
776 799 m 1,0,1
 923 760 923 760 1001 660 c 0,2,3
 1079 561 1079 561 1079 412 c 0,4,5
 1079 206 1079 206 940 88 c 0,6,7
 802 -29 802 -29 557 -29 c 0,8,9
 451 -29 451 -29 347 -10 c 0,10,11
 237 10 237 10 137 45 c 1,12,-1
 137 246 l 1,13,14
 243 191 243 191 338 167 c 0,15,16
 439 141 439 141 535 141 c 0,17,18
 702 141 702 141 790 216 c 0,19,20
 879 291 879 291 879 432 c 0,21,22
 879 563 879 563 790 638 c 0,23,24
 703 715 703 715 549 715 c 2,25,-1
 395 715 l 1,26,-1
 395 881 l 1,27,-1
 549 881 l 2,28,29
 689 881 689 881 766 942 c 0,30,31
 844 1004 844 1004 844 1112 c 0,32,33
 844 1228 844 1228 771 1289 c 0,34,35
 700 1350 700 1350 565 1350 c 0,36,37
 478 1350 478 1350 381 1330 c 128,-1,38
 284 1310 284 1310 182 1270 c 1,39,-1
 182 1456 l 1,40,41
 304 1488 304 1488 398 1504 c 0,42,43
 490 1520 490 1520 565 1520 c 0,44,45
 783 1520 783 1520 914 1411 c 0,46,47
 1044 1301 1044 1301 1044 1120 c 0,48,49
 1044 998 1044 998 976 915 c 0,50,51
 908 834 908 834 776 799 c 1,0,1
EndSplineSet
Validated: 1
EndChar

StartChar: four
Encoding: 52 52 24
Width: 1233
VWidth: 2048
GlyphClass: 2
Flags: W
LayerCount: 3
Fore
SplineSet
735 1309 m 1,0,-1
 264 520 l 1,1,-1
 735 520 l 1,2,-1
 735 1309 l 1,0,-1
702 1493 m 1,3,-1
 936 1493 l 1,4,-1
 936 520 l 1,5,-1
 1135 520 l 1,6,-1
 1135 356 l 1,7,-1
 936 356 l 1,8,-1
 936 0 l 1,9,-1
 735 0 l 1,10,-1
 735 356 l 1,11,-1
 102 356 l 1,12,-1
 102 547 l 1,13,-1
 702 1493 l 1,3,-1
EndSplineSet
Validated: 1
EndChar

StartChar: five
Encoding: 53 53 25
Width: 1233
VWidth: 2048
GlyphClass: 2
Flags: W
LayerCount: 3
Fore
SplineSet
207 1493 m 1,0,-1
 963 1493 l 1,1,-1
 963 1323 l 1,2,-1
 391 1323 l 1,3,-1
 391 956 l 1,4,5
 430 971 430 971 478 979 c 0,6,7
 524 987 524 987 565 987 c 0,8,9
 796 987 796 987 933 850 c 0,10,11
 1069 714 1069 714 1069 479 c 0,12,13
 1069 243 1069 243 927 107 c 128,-1,14
 785 -29 785 -29 537 -29 c 0,15,16
 415 -29 415 -29 320 -13 c 0,17,18
 221 4 221 4 143 35 c 1,19,-1
 143 240 l 1,20,21
 236 190 236 190 328 166 c 0,22,23
 419 141 419 141 518 141 c 0,24,25
 685 141 685 141 776 229 c 0,26,27
 866 318 866 318 866 479 c 128,-1,28
 866 640 866 640 772 728 c 0,29,30
 678 817 678 817 512 817 c 0,31,32
 429 817 429 817 354 798 c 0,33,34
 276 780 276 780 207 743 c 1,35,-1
 207 1493 l 1,0,-1
EndSplineSet
Validated: 1
EndChar

StartChar: six
Encoding: 54 54 26
Width: 1233
VWidth: 2048
GlyphClass: 2
Flags: W
LayerCount: 3
Fore
SplineSet
991 1460 m 1,0,-1
 991 1274 l 1,1,2
 932 1309 932 1309 857 1330 c 0,3,4
 785 1350 785 1350 709 1350 c 0,5,6
 517 1350 517 1350 418 1205 c 0,7,8
 319 1061 319 1061 319 780 c 1,9,10
 367 880 367 880 452 934 c 0,11,12
 538 987 538 987 647 987 c 0,13,14
 864 987 864 987 982 854 c 0,15,16
 1100 723 1100 723 1100 479 c 0,17,18
 1100 238 1100 238 978 104 c 0,19,20
 857 -29 857 -29 635 -29 c 0,21,22
 375 -29 375 -29 254 158 c 0,23,24
 133 343 133 343 133 745 c 0,25,26
 133 1122 133 1122 279 1321 c 0,27,28
 424 1520 424 1520 700 1520 c 0,29,30
 777 1520 777 1520 848 1504 c 0,31,32
 920 1489 920 1489 991 1460 c 1,0,-1
631 829 m 0,33,34
 501 829 501 829 428 736 c 0,35,36
 354 642 354 642 354 479 c 128,-1,37
 354 316 354 316 428 222 c 0,38,39
 501 129 501 129 631 129 c 0,40,41
 766 129 766 129 833 217 c 0,42,43
 901 306 901 306 901 479 c 128,-1,44
 901 652 901 652 833 741 c 0,45,46
 766 829 766 829 631 829 c 0,33,34
EndSplineSet
Validated: 1
EndChar

StartChar: seven
Encoding: 55 55 27
Width: 1233
VWidth: 2048
GlyphClass: 2
Flags: W
LayerCount: 3
Fore
SplineSet
139 1493 m 1,0,-1
 1079 1493 l 1,1,-1
 1079 1407 l 1,2,-1
 545 0 l 1,3,-1
 334 0 l 1,4,-1
 854 1323 l 1,5,-1
 139 1323 l 1,6,-1
 139 1493 l 1,0,-1
EndSplineSet
Validated: 1
EndChar

StartChar: eight
Encoding: 56 56 28
Width: 1233
VWidth: 2048
GlyphClass: 2
Flags: W
LayerCount: 3
Fore
SplineSet
616 709 m 0,0,1
 480 709 480 709 407 634 c 0,2,3
 334 558 334 558 334 420 c 0,4,5
 334 283 334 283 408 206 c 0,6,7
 483 129 483 129 616 129 c 0,8,9
 751 129 751 129 826 205 c 0,10,11
 899 281 899 281 899 420 c 0,12,13
 899 556 899 556 824 633 c 0,14,15
 751 709 751 709 616 709 c 0,0,1
440 793 m 1,16,17
 312 826 312 826 238 916 c 0,18,19
 166 1006 166 1006 166 1133 c 0,20,21
 166 1311 166 1311 287 1416 c 0,22,23
 409 1520 409 1520 616 1520 c 0,24,25
 824 1520 824 1520 946 1416 c 0,26,27
 1067 1311 1067 1311 1067 1133 c 0,28,29
 1067 1005 1067 1005 994 916 c 0,30,31
 922 826 922 826 793 793 c 1,32,33
 943 760 943 760 1022 660 c 0,34,35
 1102 559 1102 559 1102 401 c 0,36,37
 1102 199 1102 199 973 85 c 128,-1,38
 844 -29 844 -29 616 -29 c 128,-1,39
 388 -29 388 -29 259 85 c 0,40,41
 131 198 131 198 131 399 c 0,42,43
 131 560 131 560 210 660 c 128,-1,44
 289 760 289 760 440 793 c 1,16,17
367 1114 m 0,45,46
 367 994 367 994 431 931 c 0,47,48
 496 868 496 868 616 868 c 0,49,50
 738 868 738 868 802 931 c 256,51,52
 866 994 866 994 866 1114 c 0,53,54
 866 1236 866 1236 802 1300 c 0,55,56
 739 1364 739 1364 616 1364 c 0,57,58
 497 1364 497 1364 431 1300 c 0,59,60
 367 1235 367 1235 367 1114 c 0,45,46
EndSplineSet
Validated: 1
EndChar

StartChar: nine
Encoding: 57 57 29
Width: 1233
VWidth: 2048
GlyphClass: 2
Flags: W
LayerCount: 3
Fore
SplineSet
596 662 m 0,0,1
 724 662 724 662 798 755 c 0,2,3
 872 849 872 849 872 1012 c 128,-1,4
 872 1175 872 1175 798 1269 c 0,5,6
 724 1362 724 1362 596 1362 c 0,7,8
 462 1362 462 1362 394 1274 c 0,9,10
 326 1183 326 1183 326 1012 c 0,11,12
 326 837 326 837 394 750 c 0,13,14
 460 662 460 662 596 662 c 0,0,1
236 31 m 1,15,-1
 236 217 l 1,16,17
 295 182 295 182 370 161 c 0,18,19
 442 141 442 141 518 141 c 0,20,21
 711 141 711 141 808 286 c 0,22,23
 907 430 907 430 907 711 c 1,24,25
 860 610 860 610 775 558 c 0,26,27
 690 504 690 504 580 504 c 0,28,29
 363 504 363 504 245 637 c 128,-1,30
 127 770 127 770 127 1014 c 0,31,32
 127 1255 127 1255 248 1388 c 0,33,34
 370 1520 370 1520 592 1520 c 0,35,36
 852 1520 852 1520 973 1333 c 128,-1,37
 1094 1146 1094 1146 1094 745 c 0,38,39
 1094 369 1094 369 948 170 c 0,40,41
 803 -29 803 -29 526 -29 c 0,42,43
 450 -29 450 -29 379 -13 c 0,44,45
 307 2 307 2 236 31 c 1,15,-1
EndSplineSet
Validated: 1
EndChar

StartChar: equal
Encoding: 61 61 33
Width: 1233
VWidth: 2048
GlyphClass: 2
Flags: W
LayerCount: 3
Fore
SplineSet
550 1098 m 1,0,-1
 718 1098 l 1,1,-1
 718 930 l 1,2,-1
 1145 930 l 1,3,-1
 1145 760 l 1,4,-1
 88 760 l 1,5,-1
 88 930 l 1,6,-1
 550 930 l 1,7,-1
 550 1098 l 1,0,-1
88 524 m 1,8,-1
 1145 524 l 1,9,-1
 1145 352 l 1,10,-1
 706 352 l 1,11,-1
 706 183 l 1,12,-1
 538 183 l 1,13,-1
 538 352 l 1,14,-1
 88 352 l 1,15,-1
 88 524 l 1,8,-1
EndSplineSet
Validated: 1
EndChar

StartChar: question
Encoding: 63 63 35
Width: 800
VWidth: 0
GlyphClass: 2
Flags: W
LayerCount: 3
Fore
SplineSet
27.599609375 1418.79980469 m 1,0,1
 262.218665272 1555.4195042 262.218665272 1555.4195042 399.220703125 1531.59960938 c 0,2,3
 697 1481 697 1481 740.400390625 1194.59960938 c 0,4,5
 772.982001872 977.445071241 772.982001872 977.445071241 519.200195312 767.599609375 c 0,6,7
 451 711 451 711 425.599609375 625.200195312 c 0,8,9
 420 606 420 606 419.200195312 392.400390625 c 1,10,-1
 299.599609375 392.400390625 l 1,11,-1
 299.599609375 622.799804688 l 0,12,13
 300 716 300 716 444.400390625 852.400390625 c 1,14,15
 636.759431842 1013.95453181 636.759431842 1013.95453181 613 1182.40039062 c 0,16,17
 584 1384 584 1384 391.5 1411 c 0,18,19
 274.775009081 1426.65901422 274.775009081 1426.65901422 94 1312.40039062 c 1,20,-1
 27.599609375 1418.79980469 l 1,0,1
EndSplineSet
Refer: 320 57346 N 1 0 0 1 0 1305.4 2
Refer: 320 57346 N 1 0 0 1 299.5 332 2
Refer: 18 46 N 1 0 0 1 101.5 -3 2
EndChar

StartChar: at
Encoding: 64 64 36
Width: 1572
VWidth: 2048
GlyphClass: 2
Flags: W
LayerCount: 3
Fore
SplineSet
1157.78027344 524.984375 m 4,0,1
 1157.78027344 636.134765625 1157.78027344 636.134765625 1103.06054688 701.115234375 c 4,2,3
 1048.33984375 767.805664062 1048.33984375 767.805664062 956.85546875 767.805664062 c 4,4,5
 864.515625 767.805664062 864.515625 767.805664062 810.650390625 701.115234375 c 4,6,7
 755.075195312 636.990234375 755.075195312 636.990234375 755.075195312 524.984375 c 132,-1,8
 755.075195312 412.98046875 755.075195312 412.98046875 810.650390625 347.14453125 c 4,9,10
 864.515625 281.309570312 864.515625 281.309570312 956.85546875 281.309570312 c 4,11,12
 1047.48632812 281.309570312 1047.48632812 281.309570312 1103.06054688 347.14453125 c 4,13,14
 1157.78027344 412.98046875 1157.78027344 412.98046875 1157.78027344 524.984375 c 4,0,1
1276.3359375 660.494140625 m 4,18,19
 1271.85546875 516 1271.85546875 516 1260.38085938 448.890625 c 5,20,21
 1238.85546875 361 1238.85546875 361 1189.41503906 289.859375 c 4,22,23
 1168.85546875 260 1168.85546875 260 1136.83300781 234.28515625 c 132,-1,24
 1098.85546875 204 1098.85546875 204 1067.15039062 186.405273438 c 4,25,26
 1011.85546875 157 1011.85546875 157 940.611328125 157.334960938 c 4,27,28
 802.85546875 157 802.85546875 157 713.180664062 260.790039062 c 4,29,30
 622.85546875 364 622.85546875 364 622.549804688 524.984375 c 132,-1,31
 622.85546875 686 622.85546875 686 713.180664062 789.180664062 c 4,32,33
 801.85546875 892 801.85546875 892 940.611328125 892.634765625 c 4,34,35
 1018.85546875 893 1018.85546875 893 1080.85546875 856 c 4,36,37
 1152.85546875 812 1152.85546875 812 1166.85546875 789 c 5,38,-1
 1169.85546875 944 1169.85546875 944 1079.12109375 1049.09960938 c 4,41,42
 1009.85546875 1130 1009.85546875 1130 879.905273438 1130.32519531 c 4,43,44
 668.85546875 1130 668.85546875 1130 545.599609375 966.165039062 c 4,45,46
 420.85546875 802 420.85546875 802 420.770507812 523.275390625 c 132,-1,47
 420.85546875 242 420.85546875 242 561.845703125 75.255859375 c 132,-1,48
 704.85546875 -94 704.85546875 -94 937.190429688 -91.4697265625 c 4,49,50
 985.85546875 -91 985.85546875 -91 1029.53027344 -82.919921875 c 4,51,52
 1077.85546875 -74 1077.85546875 -74 1124.43554688 -56.4150390625 c 5,53,-1
 1165.47460938 -171.83984375 l 5,54,55
 1112.85546875 -193 1112.85546875 -193 1058.59960938 -203.474609375 c 4,56,57
 1006.85546875 -214 1006.85546875 -214 956.85546875 -213.734375 c 4,58,59
 651.85546875 -214 651.85546875 -214 472.0703125 -14.51953125 c 4,60,61
 293.85546875 185 293.85546875 185 293.375 523.275390625 c 4,62,63
 293.85546875 856 293.85546875 856 454.115234375 1054.23046875 c 4,64,65
 613.85546875 1252 613.85546875 1252 885.036132812 1251.734375 c 4,66,67
 1064.85546875 1252 1064.85546875 1252 1170.60546875 1138.01953125 c 4,68,69
 1276.85546875 1024 1276.85546875 1024 1277.48046875 832.78515625 c 4,70,-1
 1277.85546875 720 1277.85546875 720 1276.3359375 660.494140625 c 4,18,19
EndSplineSet
Refer: 320 57346 S 1 0 0 1 1085.47 -173.84 2
EndChar

StartChar: A
Encoding: 65 65 37
Width: 659
VWidth: 0
GlyphClass: 2
Flags: W
LayerCount: 3
Fore
SplineSet
277 2426 m 5,0,-1
 381 2426 l 5,1,-1
 624 2090 l 5,2,-1
 520 2030 l 5,3,-1
 329 2301 l 5,4,-1
 124 2020 l 5,5,-1
 20 2080 l 5,6,-1
 277 2426 l 5,0,-1
329 2412 m 25,0,-1
 329 2372 l 25,1,-1
 309 2392 l 25,2,-1
 349 2392 l 1049,3,-1
329.5 2452 m 128,-1,5
 358 2452 358 2452 373 2436 c 4,6,7
 389 2419 389 2419 389 2392 c 0,8,9
 389 2361 389 2361 374 2346.5 c 128,-1,11
 359 2332 359 2332 329 2332 c 128,-1,12
 299 2332 299 2332 284 2346.5 c 128,-1,14
 269 2361 269 2361 269 2392 c 0,15,16
 269 2416 269 2416 286 2435 c 0,17,18
 301 2452 301 2452 329.5 2452 c 128,-1,5
561.870117188 2077.16210938 m 25,0,-1
 581.870117188 2042.52148438 l 25,1,-1
 554.549804688 2049.84179688 l 25,2,-1
 589.19140625 2069.84179688 l 1049,3,-1
542.303710938 2112.05273438 m 128,-1,5
 566.985351562 2126.30273438 566.985351562 2126.30273438 587.975585938 2119.94628906 c 4,6,7
 610.33203125 2113.22460938 610.33203125 2113.22460938 623.83203125 2089.84179688 c 0,8,9
 639.33203125 2062.99511719 639.33203125 2062.99511719 633.591796875 2042.9375 c 128,-1,11
 627.8515625 2022.87988281 627.8515625 2022.87988281 601.870117188 2007.87988281 c 128,-1,12
 575.889648438 1992.87988281 575.889648438 1992.87988281 555.649414062 1997.9375 c 128,-1,14
 535.409179688 2002.99511719 535.409179688 2002.99511719 519.909179688 2029.84179688 c 0,15,16
 507.909179688 2050.62597656 507.909179688 2050.62597656 513.131835938 2075.58105469 c 0,17,18
 517.622070312 2097.80273438 517.622070312 2097.80273438 542.303710938 2112.05273438 c 128,-1,5
82.12890625 2067.16210938 m 25,0,-1
 62.12890625 2032.52148438 l 25,1,-1
 54.80859375 2059.84179688 l 25,2,-1
 89.44921875 2039.84179688 l 1049,3,-1
102.5625 2101.55273438 m 128,-1,5
 127.244140625 2087.30273438 127.244140625 2087.30273438 132.234375 2065.94628906 c 4,6,7
 137.590820312 2043.22460938 137.590820312 2043.22460938 124.090820312 2019.84179688 c 0,8,9
 108.590820312 1992.99511719 108.590820312 1992.99511719 88.3505859375 1987.9375 c 128,-1,11
 68.109375 1982.87988281 68.109375 1982.87988281 42.12890625 1997.87988281 c 128,-1,12
 16.1484375 2012.87988281 16.1484375 2012.87988281 10.408203125 2032.9375 c 128,-1,14
 4.66796875 2052.99511719 4.66796875 2052.99511719 20.16796875 2079.84179688 c 0,15,16
 32.16796875 2100.62597656 32.16796875 2100.62597656 56.3896484375 2108.58105469 c 0,17,18
 77.880859375 2115.80273438 77.880859375 2115.80273438 102.5625 2101.55273438 c 128,-1,5
573.592773438 620.372070312 m 5,0,-1
 233.592773438 31.474609375 l 1,1,2
 181.630859375 61.474609375 181.630859375 61.474609375 129.669921875 91.474609375 c 1,5,-1
 469.669921875 680.372070312 l 5,6,7
 521.630859375 650.372070312 521.630859375 650.372070312 573.592773438 620.372070312 c 5,0,-1
129.669921875 91.474609375 m 1025
191.630859375 78.794921875 m 25,0,-1
 171.630859375 44.154296875 l 25,1,-1
 164.310546875 71.474609375 l 25,2,-1
 198.952148438 51.474609375 l 1049,3,-1
212.064453125 113.186523438 m 128,-1,5
 236.74609375 98.9365234375 236.74609375 98.9365234375 241.736328125 77.580078125 c 4,6,7
 247.092773438 54.857421875 247.092773438 54.857421875 233.592773438 31.474609375 c 0,8,9
 218.092773438 4.6279296875 218.092773438 4.6279296875 197.852539062 -0.4296875 c 128,-1,11
 177.612304688 -5.486328125 177.612304688 -5.486328125 151.630859375 9.513671875 c 128,-1,12
 125.650390625 24.513671875 125.650390625 24.513671875 119.91015625 44.5703125 c 128,-1,14
 114.169921875 64.6279296875 114.169921875 64.6279296875 129.669921875 91.474609375 c 0,15,16
 141.669921875 112.259765625 141.669921875 112.259765625 165.892578125 120.213867188 c 0,17,18
 187.3828125 127.436523438 187.3828125 127.436523438 212.064453125 113.186523438 c 128,-1,5
531.630859375 667.692382812 m 25,0,-1
 511.630859375 633.051757812 l 25,1,-1
 504.310546875 660.372070312 l 25,2,-1
 538.952148438 640.372070312 l 1049,3,-1
552.064453125 702.083007812 m 128,-1,5
 576.74609375 687.833007812 576.74609375 687.833007812 581.736328125 666.4765625 c 4,6,7
 587.092773438 643.754882812 587.092773438 643.754882812 573.592773438 620.372070312 c 0,8,9
 558.092773438 593.525390625 558.092773438 593.525390625 537.852539062 588.467773438 c 128,-1,11
 517.612304688 583.41015625 517.612304688 583.41015625 491.630859375 598.41015625 c 128,-1,12
 465.650390625 613.41015625 465.650390625 613.41015625 459.91015625 633.467773438 c 128,-1,14
 454.169921875 653.525390625 454.169921875 653.525390625 469.669921875 680.372070312 c 0,15,16
 481.669921875 701.15625 481.669921875 701.15625 505.892578125 709.111328125 c 0,17,18
 527.3828125 716.333007812 527.3828125 716.333007812 552.064453125 702.083007812 c 128,-1,5
EndSplineSet
EndChar

StartChar: bracketleft
Encoding: 91 91 63
Width: 484
VWidth: 2048
GlyphClass: 2
Flags: W
LayerCount: 3
Fore
SplineSet
0 3250 m 5,0,-1
 425 3250 l 5,1,-1
 425 3130 l 5,2,-1
 120 3130 l 5,3,-1
 120 -880 l 5,4,-1
 424 -880 l 5,5,-1
 424 -1000 l 5,6,-1
 0 -1000 l 5,7,-1
 0 3250 l 5,0,-1
EndSplineSet
Refer: 320 57346 S 1 0 0 1 365 3130 2
Refer: 320 57346 S 1 0 0 1 364 -1000 2
EndChar

StartChar: backslash
Encoding: 92 92 64
Width: 2249
VWidth: 2048
GlyphClass: 2
Flags: W
LayerCount: 3
Fore
SplineSet
113.793945312 2772.28417969 m 1,0,-1
 2238.79394531 -908.32421875 l 1,1,-1
 2134.87109375 -968.32421875 l 1,2,-1
 9.87109375 2712.28417969 l 1,3,-1
 113.793945312 2772.28417969 l 1,0,-1
EndSplineSet
Refer: 320 57346 N 0.866025 0.5 -0.5 0.866025 39.8707 2660.32 2
Refer: 320 57346 N 0.866025 0.5 -0.5 0.866025 2164.87 -1020.29 2
EndChar

StartChar: underscore
Encoding: 95 95 67
Width: 1353
VWidth: 2048
GlyphClass: 2
Flags: W
LayerCount: 3
Fore
SplineSet
1293 120 m 1,0,-1
 1293 0 l 1,1,-1
 60 0 l 1,2,-1
 60 120 l 1,3,-1
 1293 120 l 1,0,-1
EndSplineSet
Refer: 320 57346 N 1 0 0 1 0 0 2
Refer: 320 57346 N 1 0 0 1 1233 0 2
EndChar

StartChar: grave
Encoding: 96 96 68
Width: 1233
VWidth: 2048
GlyphClass: 2
Flags: W
LayerCount: 3
Fore
SplineSet
99 2101 m 1,0,-1
 565 1691 l 1,1,-1
 477 1602 l 5,2,-1
 21 2003 l 1,3,-1
 99 2101 l 1,0,-1
EndSplineSet
Refer: 320 57346 N 1 0 0 1 461 1587 2
Refer: 320 57346 N 1 0 0 1 0 1992 2
EndChar

StartChar: a
Encoding: 97 97 69
Width: 540
VWidth: 0
GlyphClass: 2
Flags: W
LayerCount: 3
Fore
SplineSet
454.592773438 621.372070312 m 5,0,-1
 114.592773438 32.474609375 l 1,1,2
 62.630859375 62.474609375 62.630859375 62.474609375 10.669921875 92.474609375 c 1,5,-1
 350.669921875 681.372070312 l 5,6,7
 402.630859375 651.372070312 402.630859375 651.372070312 454.592773438 621.372070312 c 5,0,-1
10.669921875 92.474609375 m 1025
72.630859375 79.794921875 m 25,0,-1
 52.630859375 45.154296875 l 25,1,-1
 45.310546875 72.474609375 l 25,2,-1
 79.9521484375 52.474609375 l 1049,3,-1
93.064453125 114.186523438 m 128,-1,5
 117.74609375 99.9365234375 117.74609375 99.9365234375 122.736328125 78.580078125 c 4,6,7
 128.092773438 55.857421875 128.092773438 55.857421875 114.592773438 32.474609375 c 0,8,9
 99.0927734375 5.6279296875 99.0927734375 5.6279296875 78.8525390625 0.5703125 c 128,-1,11
 58.6123046875 -4.486328125 58.6123046875 -4.486328125 32.630859375 10.513671875 c 128,-1,12
 6.650390625 25.513671875 6.650390625 25.513671875 0.91015625 45.5703125 c 128,-1,14
 -4.830078125 65.6279296875 -4.830078125 65.6279296875 10.669921875 92.474609375 c 0,15,16
 22.669921875 113.259765625 22.669921875 113.259765625 46.892578125 121.213867188 c 0,17,18
 68.3828125 128.436523438 68.3828125 128.436523438 93.064453125 114.186523438 c 128,-1,5
412.630859375 668.692382812 m 25,0,-1
 392.630859375 634.051757812 l 25,1,-1
 385.310546875 661.372070312 l 25,2,-1
 419.952148438 641.372070312 l 1049,3,-1
433.064453125 703.083007812 m 128,-1,5
 457.74609375 688.833007812 457.74609375 688.833007812 462.736328125 667.4765625 c 4,6,7
 468.092773438 644.754882812 468.092773438 644.754882812 454.592773438 621.372070312 c 0,8,9
 439.092773438 594.525390625 439.092773438 594.525390625 418.852539062 589.467773438 c 128,-1,11
 398.612304688 584.41015625 398.612304688 584.41015625 372.630859375 599.41015625 c 128,-1,12
 346.650390625 614.41015625 346.650390625 614.41015625 340.91015625 634.467773438 c 128,-1,14
 335.169921875 654.525390625 335.169921875 654.525390625 350.669921875 681.372070312 c 0,15,16
 362.669921875 702.15625 362.669921875 702.15625 386.892578125 710.111328125 c 0,17,18
 408.3828125 717.333007812 408.3828125 717.333007812 433.064453125 703.083007812 c 128,-1,5
EndSplineSet
EndChar

StartChar: b
Encoding: 98 98 70
Width: 354
VWidth: 0
GlyphClass: 2
Flags: W
LayerCount: 3
Fore
SplineSet
120 999 m 1,0,1
 167 1047 167 1047 214 1095 c 0,2,3
 332 1213 332 1213 329 1273 c 0,0,0
 323 1384 323 1384 234 1390 c 0,4,5
 120 1397 120 1397 120 1222 c 0,6,7
 120 1106 120 1106 120 999 c 1,0,1
117.991210938 836 m 1,10,11
 117.991210938 836 117.991210938 836 0 855 c 5,14,-1
 0 1225 l 2,15,16
 0 1512 0 1512 231 1510 c 0,17,18
 336 1509 336 1509 398 1421 c 0,0,0
 500 1274 500 1274 395 1118 c 0,0,0
 373 1085 373 1085 308 1019 c 0,19,20
 240 950 240 950 117.991210938 836 c 1,10,11
60 876 m 25,0,-1
 60 836 l 25,1,-1
 40 856 l 25,2,-1
 80 856 l 1049,3,-1
60.5 916 m 128,-1,5
 87 916 87 916 103 900 c 0,6,7
 120 883 120 883 120 856 c 0,7,8
 120 826 120 826 102.965820312 810 c 0,9,10
 88 796 88 796 60 796 c 128,-1,11
 32 796 32 796 17.0341796875 810 c 0,12,13
 0 826 0 826 0 856 c 0,14,15
 0 882 0 882 18 900 c 0,16,17
 34 916 34 916 60.5 916 c 128,-1,5
60 881 m 25,0,-1
 60 841 l 25,1,-1
 40 861 l 25,2,-1
 80 861 l 1049,3,-1
60.5 921 m 128,-1,5
 87 921 87 921 103 905 c 0,6,7
 120 888 120 888 120 861 c 0,7,8
 120 831 120 831 102.965820312 815 c 0,9,10
 88 801 88 801 60 801 c 128,-1,11
 32 801 32 801 17.0341796875 815 c 0,12,13
 0 831 0 831 0 861 c 0,14,15
 0 887 0 887 18 905 c 0,16,17
 34 921 34 921 60.5 921 c 128,-1,5
EndSplineSet
Refer: 281 57352 N 1 0 0 1 0 0 2
EndChar

StartChar: c
Encoding: 99 99 71
Width: 94
VWidth: 2048
GlyphClass: 2
Flags: W
LayerCount: 3
Fore
SplineSet
260 -515 m 0,0,1
 325 -515 325 -515 372 -492.5 c 128,-1,2
 419 -470 419 -470 444 -431.5 c 128,-1,3
 469 -393 469 -393 480 -350.5 c 128,-1,4
 491 -308 491 -308 491 -259 c 0,5,6
 491 -204 491 -204 479.5 -158.5 c 128,-1,7
 468 -113 468 -113 443 -73.5 c 128,-1,8
 418 -34 418 -34 371 -11.5 c 128,-1,9
 324 11 324 11 260 11 c 2,10,-1
 258 11 l 2,11,12
 200 11 200 11 154.5 -14 c 128,-1,13
 109 -39 109 -39 82.5 -79 c 128,-1,14
 56 -119 56 -119 42.5 -164.5 c 128,-1,15
 29 -210 29 -210 29 -255 c 0,16,17
 29 -364 29 -364 87 -439.5 c 128,-1,18
 145 -515 145 -515 260 -515 c 0,0,1
255 168 m 128,-1,20
 333 168 333 168 393.5 140.5 c 128,-1,21
 454 113 454 113 512 60 c 0,22,23
 570 6 570 6 606 -75.5 c 128,-1,24
 642 -157 642 -157 642 -255 c 128,-1,25
 642 -353 642 -353 603 -441 c 128,-1,26
 564 -529 564 -529 512 -570 c 0,27,28
 445 -623 445 -623 388 -650.5 c 128,-1,29
 331 -678 331 -678 255 -678 c 0,30,31
 178 -678 178 -678 119.5 -650.5 c 128,-1,32
 61 -623 61 -623 -1 -570 c 0,33,34
 -57 -524 -57 -524 -92.5 -439.5 c 128,-1,35
 -128 -355 -128 -355 -128 -255 c 0,36,37
 -128 -54 -128 -54 -1 60 c 0,38,39
 57 112 57 112 117 140 c 128,-1,19
 177 168 177 168 255 168 c 128,-1,20
EndSplineSet
Validated: 1
EndChar

StartChar: d
Encoding: 100 100 72
Width: 942
VWidth: 0
GlyphClass: 2
Flags: W
LayerCount: 3
Fore
SplineSet
-769 -440 m 5,0,-1
 -829 -544 l 5,1,2
 -1100 -387 -1100 -387 -1100 -26 c 5,3,-1
 -980 -26 l 5,4,5
 -980 -316 -980 -316 -769 -440 c 5,0,-1
-782.12109375 -501.936523438 m 25,0,-1
 -816.762695312 -481.936523438 l 25,1,-1
 -789.44140625 -474.616210938 l 25,2,-1
 -809.44140625 -509.256835938 l 1049,3,-1
-747.73046875 -522.369140625 m 128,-1,5
 -760.98046875 -545.319335938 -760.98046875 -545.319335938 -782.836914062 -551.17578125 c 0,6,7
 -806.059570312 -557.3984375 -806.059570312 -557.3984375 -829.44140625 -543.8984375 c 0,7,8
 -855.422851562 -528.8984375 -855.422851562 -528.8984375 -860.76171875 -506.145507812 c 0,9,10
 -865.403320312 -486.185546875 -865.403320312 -486.185546875 -851.403320312 -461.936523438 c 128,-1,11
 -837.403320312 -437.6875 -837.403320312 -437.6875 -817.795898438 -431.7265625 c 0,12,13
 -795.422851562 -424.974609375 -795.422851562 -424.974609375 -769.44140625 -439.974609375 c 0,14,15
 -746.924804688 -452.974609375 -746.924804688 -452.974609375 -740.336914062 -477.563476562 c 0,16,17
 -734.48046875 -499.419921875 -734.48046875 -499.419921875 -747.73046875 -522.369140625 c 128,-1,5
-1040 -46 m 25,0,-1
 -1040 -6 l 25,1,-1
 -1020 -26 l 25,2,-1
 -1060 -26 l 1049,3,-1
-1040.5 -86 m 128,-1,5
 -1067 -86 -1067 -86 -1083 -70 c 0,6,7
 -1100 -53 -1100 -53 -1100 -26 c 0,7,8
 -1100 4 -1100 4 -1082.96582031 20 c 0,9,10
 -1068 34 -1068 34 -1040 34 c 128,-1,11
 -1012 34 -1012 34 -997.034179688 20 c 0,12,13
 -980 4 -980 4 -980 -26 c 0,14,15
 -980 -52 -980 -52 -998 -70 c 0,16,17
 -1014 -86 -1014 -86 -1040.5 -86 c 128,-1,5
EndSplineSet
EndChar

StartChar: i
Encoding: 105 105 77
Width: 49
VWidth: 0
GlyphClass: 2
Flags: W
LayerCount: 3
Fore
SplineSet
123 584 m 1,0,-1
 123 26 l 1,1,-1
 -26 26 l 1,2,-1
 -26 584 l 1,3,-1
 123 584 l 1,0,-1
EndSplineSet
Validated: 1
EndChar

StartChar: j
Encoding: 106 106 78
Width: 248
VWidth: 0
GlyphClass: 2
Flags: W
LayerCount: 3
Fore
SplineSet
249 155 m 5,0,-1
 377 58 l 5,1,-1
 89 -206 l 5,2,-1
 89 -26 l 5,3,-1
 249 155 l 5,0,-1
-72 154 m 5,4,-1
 89 154 l 5,5,-1
 89 -206 l 5,6,-1
 -72 -360 l 5,7,-1
 -72 154 l 5,4,-1
EndSplineSet
Validated: 5
EndChar

StartChar: l
Encoding: 108 108 80
Width: 83
VWidth: 2048
GlyphClass: 2
Flags: W
LayerCount: 3
Fore
SplineSet
23 397 m 4,0,1
 83 397 83 397 133 350 c 4,2,3
 190 298 190 298 190 214 c 4,4,5
 190 172 190 172 173 134 c 132,-1,6
 156 96 156 96 134 78 c 4,7,8
 74 31 74 31 23 31 c 4,9,10
 -32 31 -32 31 -88 78 c 4,11,12
 -112 98 -112 98 -127.5 134.5 c 132,-1,13
 -143 171 -143 171 -143 214 c 4,14,15
 -143 300 -143 300 -88 350 c 4,16,17
 -36 397 -36 397 23 397 c 4,0,1
EndSplineSet
Validated: 1
EndChar

StartChar: o
Encoding: 111 111 83
Width: 517
VWidth: 0
GlyphClass: 2
Flags: W
LayerCount: 3
Fore
SplineSet
-44.5869140625 161.278320312 m 1,0,1
 102.9765625 247.58984375 102.9765625 247.58984375 196.518554688 410.47265625 c 1,2,3
 314.4765625 613.918945312 314.4765625 613.918945312 316.265625 782.73828125 c 1,4,5
 316.265625 782.73828125 316.265625 782.73828125 439.747070312 783.086914062 c 1,8,9
 438.399414062 588.559570312 438.399414062 588.559570312 300.44140625 350.47265625 c 1,10,11
 188.399414062 155.546875 188.399414062 155.546875 17.3515625 55.033203125 c 1,12,13
 -13.3701171875 108.071289062 -13.3701171875 108.071289062 -44.5869140625 161.278320312 c 1,0,1
367.038085938 765.821289062 m 25,0,-1
 387.038085938 800.461914062 l 25,1,-1
 394.358398438 773.141601562 l 25,2,-1
 359.717773438 793.141601562 l 1049,3,-1
346.604492188 731.4296875 m 128,-1,5
 323.655273438 744.6796875 323.655273438 744.6796875 317.798828125 766.536132812 c 0,6,7
 311.576171875 789.758789062 311.576171875 789.758789062 325.076171875 813.141601562 c 0,7,8
 340.076171875 839.122070312 340.076171875 839.122070312 362.828125 844.461914062 c 0,9,10
 382.7890625 849.102539062 382.7890625 849.102539062 407.038085938 835.102539062 c 128,-1,11
 431.287109375 821.102539062 431.287109375 821.102539062 437.247070312 801.49609375 c 0,12,13
 443.999023438 779.122070312 443.999023438 779.122070312 428.999023438 753.141601562 c 0,14,15
 415.999023438 730.625 415.999023438 730.625 391.411132812 724.036132812 c 0,16,17
 369.5546875 718.1796875 369.5546875 718.1796875 346.604492188 731.4296875 c 128,-1,5
-22.9619140625 90.3212890625 m 25,0,-1
 -2.9619140625 124.962890625 l 25,1,-1
 4.3583984375 97.6416015625 l 25,2,-1
 -30.2822265625 117.641601562 l 1049,3,-1
-43.3955078125 55.9306640625 m 128,-1,5
 -66.3447265625 69.1806640625 -66.3447265625 69.1806640625 -72.201171875 91.037109375 c 0,6,7
 -78.423828125 114.259765625 -78.423828125 114.259765625 -64.923828125 137.641601562 c 0,7,8
 -49.923828125 163.623046875 -49.923828125 163.623046875 -27.171875 168.961914062 c 0,9,10
 -7.2109375 173.603515625 -7.2109375 173.603515625 17.0380859375 159.603515625 c 128,-1,11
 41.287109375 145.603515625 41.287109375 145.603515625 47.2470703125 125.99609375 c 0,12,13
 53.9990234375 103.623046875 53.9990234375 103.623046875 38.9990234375 77.6416015625 c 0,14,15
 25.9990234375 55.125 25.9990234375 55.125 1.4111328125 48.537109375 c 0,16,17
 -20.4453125 42.6806640625 -20.4453125 42.6806640625 -43.3955078125 55.9306640625 c 128,-1,5
EndSplineSet
EndChar

StartChar: r
Encoding: 114 114 86
Width: 59
VWidth: 0
GlyphClass: 2
Flags: W
LayerCount: 3
Fore
SplineSet
38 299 m 1,0,-1
 310 -88 l 1,1,-1
 128 -88 l 1,2,-1
 -152 299 l 1,3,-1
 38 299 l 1,0,-1
EndSplineSet
Validated: 1
EndChar

StartChar: s
Encoding: 115 115 87
Width: -134
VWidth: 2048
GlyphClass: 2
Flags: W
LayerCount: 3
Fore
SplineSet
-284.643554688 798 m 132,-1,1
 -206.643554688 798 -206.643554688 798 -146.143554688 770.5 c 132,-1,2
 -85.6435546875 743 -85.6435546875 743 -27.6435546875 690 c 4,3,4
 30.3564453125 636 30.3564453125 636 66.3564453125 554.5 c 132,-1,5
 102.356445312 473 102.356445312 473 102.356445312 375 c 132,-1,6
 102.356445312 277 102.356445312 277 63.3564453125 189 c 132,-1,7
 24.3564453125 101 24.3564453125 101 -27.6435546875 60 c 4,8,9
 -94.6435546875 7 -94.6435546875 7 -151.643554688 -20.5 c 132,-1,10
 -208.643554688 -48 -208.643554688 -48 -284.643554688 -48 c 4,11,12
 -361.643554688 -48 -361.643554688 -48 -420.143554688 -20.5 c 132,-1,13
 -478.643554688 7 -478.643554688 7 -540.643554688 60 c 4,14,15
 -596.643554688 106 -596.643554688 106 -632.143554688 190.5 c 132,-1,16
 -667.643554688 275 -667.643554688 275 -667.643554688 375 c 4,17,18
 -667.643554688 576 -667.643554688 576 -540.643554688 690 c 4,19,20
 -482.643554688 742 -482.643554688 742 -422.643554688 770 c 132,-1,0
 -362.643554688 798 -362.643554688 798 -284.643554688 798 c 132,-1,1
-279.643554688 141 m 4,21,22
 -221.643554688 141 -221.643554688 141 -179.143554688 161 c 132,-1,23
 -136.643554688 181 -136.643554688 181 -114.143554688 216 c 132,-1,24
 -91.6435546875 251 -91.6435546875 251 -81.6435546875 289.5 c 132,-1,25
 -71.6435546875 328 -71.6435546875 328 -71.6435546875 372 c 4,26,27
 -71.6435546875 421 -71.6435546875 421 -82.1435546875 462 c 132,-1,28
 -92.6435546875 503 -92.6435546875 503 -115.143554688 538.5 c 132,-1,29
 -137.643554688 574 -137.643554688 574 -179.643554688 594.5 c 132,-1,30
 -221.643554688 615 -221.643554688 615 -279.643554688 615 c 6,31,-1
 -280.643554688 615 l 6,32,33
 -349.643554688 615 -349.643554688 615 -398.643554688 575.5 c 132,-1,34
 -447.643554688 536 -447.643554688 536 -467.643554688 483.5 c 132,-1,35
 -487.643554688 431 -487.643554688 431 -487.643554688 375 c 4,36,37
 -487.643554688 277 -487.643554688 277 -435.643554688 209 c 132,-1,38
 -383.643554688 141 -383.643554688 141 -279.643554688 141 c 4,21,22
EndSplineSet
EndChar

StartChar: u
Encoding: 117 117 89
Width: 454
VWidth: 0
GlyphClass: 2
Flags: W
LayerCount: 3
Fore
Refer: 305 58570 S 1 0 0 1 0 0 2
Layer: 2
SplineSet
291.913085938 1746.18457031 m 4
 357.490234375 1746.48242188 420.852539062 1717.75390625 482 1660 c 4
 550.186523438 1595.75390625 584.432617188 1510.96386719 584.740234375 1405.63085938 c 4
 585.099609375 1301.63085938 550.852539062 1218.84082031 482 1157.26074219 c 4
 418.852539062 1100.17382812 355.82421875 1071.44628906 292.913085938 1071.07714844 c 4
 231.82421875 1070.77929688 168.39453125 1099.5078125 102.625976562 1157.26074219 c 4
 35.728515625 1216.17382812 2.279296875 1298.29785156 2.279296875 1403.63085938 c 4
 2.279296875 1514.29785156 35.728515625 1599.75390625 102.625976562 1660 c 4
 166.39453125 1717.08691406 229.490234375 1745.81542969 291.913085938 1746.18457031 c 4
293.903320312 1197.13085938 m 4
 344.154296875 1197.46386719 385.49609375 1222.56054688 417.928710938 1272.41992188 c 4
 447.49609375 1317.89355469 461.75390625 1362.40820312 460.704101562 1405.96289062 c 4
 459.087890625 1463.74121094 447.279296875 1509.96386719 425.279296875 1544.63085938 c 4
 393.946289062 1595.29785156 349.8203125 1620.7265625 292.903320312 1620.91796875 c 4
 238.487304688 1620.7265625 196.612304688 1595.29785156 167.279296875 1544.63085938 c 4
 137.946289062 1493.29785156 123.553710938 1446.2265625 124.103515625 1403.41894531 c 4
 124.220703125 1357.56054688 138.329101562 1313.56054688 166.428710938 1271.41992188 c 4
 199.662109375 1221.56054688 242.154296875 1196.79785156 293.903320312 1197.13085938 c 4
EndSplineSet
Refer: 320 57346 S 1 0 0 1 396.279 1158.63 2
Refer: 320 57346 S 1 0 0 1 2.2793 1342.63 2
Refer: 320 57346 S 1 0 0 1 253.279 1073.63 2
Refer: 320 57346 S 1 0 0 1 212.913 1073.08 2
Refer: 320 57346 S 1 0 0 1 464.279 1342.63 2
Refer: 320 57346 S 1 0 0 1 29.2793 1474.63 2
Refer: 320 57346 S 1 0 0 1 432.279 1211.63 2
Refer: 320 57346 S 1 0 0 1 67.2793 1538.63 2
Refer: 320 57346 S 1 0 0 1 252.279 1623.63 2
Refer: 320 57346 S 1 0 0 1 217.279 1623.63 2
EndChar

StartChar: z
Encoding: 122 122 94
Width: 74
VWidth: 2048
GlyphClass: 2
Flags: W
LayerCount: 3
Fore
SplineSet
29 122 m 0,0,1
 92 122 92 122 125.5 178.5 c 128,-1,2
 159 235 159 235 159 294 c 0,3,4
 159 359 159 359 125.5 417.5 c 128,-1,5
 92 476 92 476 29 476 c 0,6,7
 -29 476 -29 476 -68.5 416.5 c 128,-1,8
 -108 357 -108 357 -108 303 c 0,9,10
 -108 244 -108 244 -69 183 c 128,-1,11
 -30 122 -30 122 29 122 c 0,0,1
26 611 m 0,12,13
 125 611 125 611 210 533 c 0,14,15
 252 495 252 495 278.5 436 c 128,-1,16
 305 377 305 377 305 306 c 0,17,18
 305 236 305 236 276.5 172.5 c 128,-1,19
 248 109 248 109 211 79 c 0,20,21
 162 40 162 40 121.5 20.5 c 128,-1,22
 81 1 81 1 26 1 c 128,-1,23
 -29 1 -29 1 -71 21 c 128,-1,24
 -113 41 -113 41 -159 79 c 0,25,26
 -199 113 -199 113 -224.5 173.5 c 128,-1,27
 -250 234 -250 234 -250 306 c 0,28,29
 -250 450 -250 450 -159 533 c 0,30,31
 -72 611 -72 611 26 611 c 0,12,13
EndSplineSet
Validated: 1
EndChar

StartChar: braceleft
Encoding: 123 123 95
Width: 792
VWidth: 2048
GlyphClass: 2
Flags: W
LayerCount: 3
Fore
SplineSet
732.087890625 -501.004882812 m 1,0,-1
 732.087890625 -621.200195312 l 1,1,-1
 679.556640625 -621.200195312 l 2,2,3
 478 -621 478 -621 406.23046875 -558.459960938 c 0,4,5
 336.462890625 -498.3984375 336.462890625 -498.3984375 336.462890625 -316.32421875 c 2,6,-1
 336.462890625 804.887695312 l 2,7,8
 336 930 336 930 292.958984375 976.435546875 c 0,9,10
 249.19140625 1021.80175781 249.19140625 1021.80175781 124.024414062 1021.80175781 c 6,11,-1
 60.412109375 1021.80175781 l 5,12,-1
 60.412109375 1142.51953125 l 5,13,-1
 124.024414062 1142.51953125 l 6,14,15
 244.084960938 1143.00878906 244.084960938 1143.00878906 292.958984375 1188.20117188 c 0,16,17
 336.462890625 1228.42773438 336.462890625 1228.42773438 336.462890625 1358.10742188 c 2,18,-1
 336.462890625 2567.14550781 l 2,19,20
 336 2746 336 2746 406.23046875 2808.45996094 c 0,21,22
 474.223632812 2869.20019531 474.223632812 2869.20019531 679.556640625 2869.20019531 c 2,23,-1
 732.087890625 2869.20019531 l 1,24,-1
 732.087890625 2748.82519531 l 1,25,-1
 674.630859375 2748.82519531 l 2,26,27
 535 2749 535 2749 503.424804688 2716.53125 c 0,28,29
 468.951171875 2680.94921875 468.951171875 2680.94921875 468.951171875 2563.86328125 c 2,30,-1
 468.951171875 1348.2578125 l 2,31,32
 469 1220 469 1220 431.194335938 1161.11621094 c 0,33,34
 395 1103 395 1103 313.970703125 1082.31835938 c 1,35,36
 385 1060 385 1060 426.975585938 1002.03417969 c 128,-1,37
 468.951171875 944.067382812 468.951171875 944.067382812 468.951171875 815.55859375 c 2,38,-1
 468.951171875 -313.041015625 l 2,39,40
 469 -409 469 -409 524.424804688 -465.7109375 c 0,41,42
 560.004882812 -501.004882812 560.004882812 -501.004882812 674.630859375 -501.004882812 c 2,43,-1
 732.087890625 -501.004882812 l 1,0,-1
EndSplineSet
Refer: 320 57346 S 1 0 0 1 0 1022 2
Refer: 320 57346 N 1 0 0 1 672.088 2748.83 2
Refer: 320 57346 N 1 0 0 1 671.5 -621 2
EndChar

StartChar: bar
Encoding: 124 124 96
Width: 120
VWidth: 2048
GlyphClass: 2
Flags: W
LayerCount: 3
Fore
SplineSet
120 3250 m 1,0,-1
 120 -1000 l 1,1,-1
 0 -1000 l 1,2,-1
 0 3250 l 1,3,-1
 120 3250 l 1,0,-1
EndSplineSet
Refer: 320 57346 S 1 0 0 1 0 3190 2
Refer: 320 57346 N 1 0 0 1 0 -1060 2
EndChar

StartChar: exclamdown
Encoding: 161 161 100
Width: 1233
VWidth: 2048
GlyphClass: 2
Flags: W
LayerCount: 3
Fore
SplineSet
516 1239 m 1,0,-1
 516 1493 l 1,1,-1
 719 1493 l 1,2,-1
 719 1239 l 1,3,-1
 516 1239 l 1,0,-1
516 0 m 1,4,-1
 516 655 l 1,5,-1
 537 1012 l 1,6,-1
 698 1012 l 1,7,-1
 719 655 l 1,8,-1
 719 0 l 1,9,-1
 516 0 l 1,4,-1
EndSplineSet
Validated: 1
EndChar

StartChar: cent
Encoding: 162 162 101
Width: 1233
VWidth: 2048
GlyphClass: 2
Flags: W
LayerCount: 3
Fore
SplineSet
1061 1077 m 1,0,-1
 1061 905 l 1,1,2
 997 943 997 943 929 967 c 0,3,4
 868 988 868 988 801 993 c 1,5,-1
 801 123 l 1,6,7
 858 127 858 127 930 150 c 0,8,9
 1002 177 1002 177 1061 213 c 1,10,-1
 1061 41 l 1,11,12
 988 10 988 10 923 -7 c 0,13,14
 856 -24 856 -24 801 -27 c 1,15,-1
 801 -313 l 1,16,-1
 698 -313 l 1,17,-1
 698 -27 l 1,18,19
 473 -4 473 -4 343 152 c 0,20,21
 213 307 213 307 213 559 c 0,22,23
 213 808 213 808 344 968 c 0,24,25
 476 1126 476 1126 698 1145 c 1,26,-1
 698 1432 l 1,27,-1
 801 1432 l 1,28,-1
 801 1145 l 1,29,30
 856 1142 856 1142 923 1125 c 0,31,32
 988 1108 988 1108 1061 1077 c 1,0,-1
698 127 m 1,33,-1
 698 991 l 1,34,35
 565 979 565 979 486 861 c 0,36,37
 406 742 406 742 406 559 c 128,-1,38
 406 376 406 376 486 258 c 0,39,40
 565 141 565 141 698 127 c 1,33,-1
EndSplineSet
Validated: 1
EndChar

StartChar: sterling
Encoding: 163 163 102
Width: 1233
VWidth: 2048
GlyphClass: 2
Flags: W
LayerCount: 3
Fore
SplineSet
1092 1462 m 1,0,-1
 1092 1278 l 1,1,2
 1030 1322 1030 1322 966 1344 c 0,3,4
 904 1366 904 1366 836 1366 c 0,5,6
 702 1366 702 1366 638 1276 c 0,7,8
 575 1188 575 1188 575 995 c 2,9,-1
 575 778 l 1,10,-1
 946 778 l 1,11,-1
 946 635 l 1,12,-1
 575 635 l 1,13,-1
 575 170 l 1,14,-1
 1112 170 l 1,15,-1
 1112 0 l 1,16,-1
 139 0 l 1,17,-1
 139 170 l 1,18,-1
 375 170 l 1,19,-1
 375 635 l 1,20,-1
 176 635 l 1,21,-1
 176 778 l 1,22,-1
 375 778 l 1,23,-1
 375 1016 l 2,24,25
 375 1269 375 1269 484 1395 c 0,26,27
 595 1520 595 1520 817 1520 c 0,28,29
 880 1520 880 1520 950 1506 c 0,30,31
 1015 1492 1015 1492 1092 1462 c 1,0,-1
EndSplineSet
Validated: 1
EndChar

StartChar: currency
Encoding: 164 164 103
Width: 1233
VWidth: 2048
GlyphClass: 2
Flags: W
LayerCount: 3
Fore
SplineSet
868 643 m 0,0,1
 868 734 868 734 806 794 c 0,2,3
 745 856 745 856 653 856 c 0,4,5
 562 856 562 856 500 794 c 0,6,7
 438 734 438 734 438 643 c 128,-1,8
 438 552 438 552 500 488 c 0,9,10
 564 426 564 426 653 426 c 0,11,12
 744 426 744 426 806 489 c 0,13,14
 868 553 868 553 868 643 c 0,0,1
844 924 m 1,15,-1
 1010 1090 l 1,16,-1
 1100 997 l 1,17,-1
 934 831 l 1,18,19
 965 780 965 780 978 736 c 0,20,21
 993 688 993 688 993 641 c 0,22,23
 993 591 993 591 978 546 c 0,24,25
 963 499 963 499 932 455 c 1,26,-1
 1100 289 l 1,27,-1
 1006 195 l 1,28,-1
 840 362 l 1,29,30
 794 331 794 331 748 316 c 0,31,32
 703 301 703 301 653 301 c 0,33,34
 605 301 605 301 557 316 c 0,35,36
 509 330 509 330 461 358 c 1,37,-1
 297 195 l 1,38,-1
 205 285 l 1,39,-1
 371 451 l 1,40,41
 340 501 340 501 326 548 c 0,42,43
 311 596 311 596 311 641 c 0,44,45
 311 690 311 690 326 738 c 0,46,47
 344 788 344 788 373 829 c 1,48,-1
 205 995 l 1,49,-1
 299 1090 l 1,50,-1
 465 922 l 1,51,52
 511 953 511 953 556 968 c 0,53,54
 603 983 603 983 653 983 c 0,55,56
 700 983 700 983 746 968 c 0,57,58
 792 955 792 955 844 924 c 1,15,-1
EndSplineSet
Validated: 1
EndChar

StartChar: yen
Encoding: 165 165 104
Width: 1233
VWidth: 2048
GlyphClass: 2
Flags: W
LayerCount: 3
Fore
SplineSet
37 1493 m 1,0,-1
 252 1493 l 1,1,-1
 616 834 l 1,2,-1
 979 1493 l 1,3,-1
 1196 1493 l 1,4,-1
 866 932 l 1,5,-1
 1118 932 l 1,6,-1
 1118 821 l 1,7,-1
 803 821 l 1,8,-1
 717 670 l 1,9,-1
 717 635 l 1,10,-1
 1118 635 l 1,11,-1
 1118 524 l 1,12,-1
 717 524 l 1,13,-1
 717 0 l 1,14,-1
 514 0 l 1,15,-1
 514 524 l 1,16,-1
 115 524 l 1,17,-1
 115 635 l 1,18,-1
 514 635 l 1,19,-1
 514 670 l 1,20,-1
 424 821 l 1,21,-1
 115 821 l 1,22,-1
 115 932 l 1,23,-1
 358 932 l 1,24,-1
 37 1493 l 1,0,-1
EndSplineSet
Validated: 1
EndChar

StartChar: brokenbar
Encoding: 166 166 105
Width: 1233
VWidth: 2048
GlyphClass: 2
Flags: W
LayerCount: 3
Fore
SplineSet
702 1432 m 1,0,-1
 702 674 l 1,1,-1
 530 674 l 1,2,-1
 530 1432 l 1,3,-1
 702 1432 l 1,0,-1
702 408 m 1,4,-1
 702 -350 l 1,5,-1
 530 -350 l 1,6,-1
 530 408 l 1,7,-1
 702 408 l 1,4,-1
EndSplineSet
Validated: 1
EndChar

StartChar: section
Encoding: 167 167 106
Width: 1233
VWidth: 2048
GlyphClass: 2
Flags: W
LayerCount: 3
Fore
SplineSet
936 1462 m 1,0,-1
 936 1298 l 1,1,2
 850 1339 850 1339 782 1356 c 0,3,4
 713 1376 713 1376 653 1376 c 0,5,6
 555 1376 555 1376 502 1336 c 0,7,8
 449 1295 449 1295 449 1225 c 0,9,10
 449 1135 449 1135 654 1020 c 0,11,12
 678 1006 678 1006 694 997 c 0,13,14
 906 878 906 878 971 801 c 128,-1,15
 1036 724 1036 724 1036 623 c 0,16,17
 1036 533 1036 533 990 463 c 0,18,19
 945 392 945 392 852 340 c 1,20,21
 914 287 914 287 942 234 c 0,22,23
 971 178 971 178 971 115 c 0,24,25
 971 -27 971 -27 869 -111 c 128,-1,26
 767 -195 767 -195 594 -195 c 0,27,28
 520 -195 520 -195 444 -180 c 0,29,30
 372 -168 372 -168 279 -137 c 1,31,-1
 279 27 l 1,32,33
 359 -9 359 -9 440 -32 c 0,34,35
 518 -51 518 -51 571 -51 c 0,36,37
 673 -51 673 -51 730 -9 c 0,38,39
 786 33 786 33 786 109 c 0,40,41
 786 211 786 211 565 334 c 1,42,-1
 541 348 l 1,43,44
 330 466 330 466 263 544 c 0,45,46
 199 621 199 621 199 723 c 0,47,48
 199 816 199 816 246 886 c 0,49,50
 291 956 291 956 383 1006 c 1,51,52
 323 1049 323 1049 294 1106 c 0,53,54
 264 1162 264 1162 264 1231 c 0,55,56
 264 1362 264 1362 364 1440 c 0,57,58
 463 1520 463 1520 631 1520 c 0,59,60
 699 1520 699 1520 780 1506 c 0,61,62
 855 1491 855 1491 936 1462 c 1,0,-1
485 936 m 1,63,64
 424 891 424 891 392 846 c 0,65,66
 362 801 362 801 362 754 c 0,67,68
 362 680 362 680 432 610 c 1,69,70
 507 541 507 541 750 410 c 1,71,72
 812 456 812 456 842 500 c 0,73,74
 872 545 872 545 872 592 c 0,75,76
 872 668 872 668 800 736 c 0,77,78
 728 805 728 805 485 936 c 1,63,64
EndSplineSet
Validated: 1
EndChar

StartChar: dieresis
Encoding: 168 168 107
Width: 1233
VWidth: 2048
GlyphClass: 2
Flags: W
LayerCount: 3
Fore
SplineSet
319 1552 m 1,0,-1
 522 1552 l 1,1,-1
 522 1350 l 1,2,-1
 319 1350 l 1,3,-1
 319 1552 l 1,0,-1
711 1552 m 1,4,-1
 913 1552 l 1,5,-1
 913 1350 l 1,6,-1
 711 1350 l 1,7,-1
 711 1552 l 1,4,-1
EndSplineSet
Validated: 1
EndChar

StartChar: copyright
Encoding: 169 169 108
Width: 1233
VWidth: 2048
GlyphClass: 2
Flags: W
LayerCount: 3
Fore
SplineSet
722.713867188 433.66796875 m 1,4,5
 654 418 654 418 590 469.740234375 c 0,6,7
 529 520 529 520 529.5 638.240234375 c 128,-1,8
 530 757 530 757 591 827.740234375 c 0,9,10
 643 889 643 889 743.255859375 888.956054688 c 0,11,12
 869 889 869 889 896.4609375 849.12109375 c 0,13,14
 953 771 953 771 966.1796875 671.28125 c 0,15,16
 981 563 981 563 973.765625 442.740234375 c 0,0,0
 951 77 951 77 673.305664062 65.9404296875 c 0,43,44
 469 58 469 58 339 230.100585938 c 0,45,46
 214 395 214 395 214.170898438 672.990234375 c 128,-1,47
 214 953 214 953 355.24609375 1121.00976562 c 128,-1,48
 494 1286 494 1286 730.590820312 1287.73535156 c 0,49,50
 773 1288 773 1288 822.930664062 1279.18554688 c 0,51,52
 871 1271 871 1271 917.8359375 1252.68066406 c 1,53,-1
 958.875 1368.10546875 l 1,54,55
 913 1387 913 1387 852 1399.74023438 c 0,56,57
 800 1411 800 1411 750.255859375 1410 c 0,58,59
 440 1406 440 1406 265.470703125 1210.78515625 c 0,60,61
 87 1012 87 1012 86.775390625 672.990234375 c 0,62,63
 87 341 87 341 247.515625 142.03515625 c 0,64,65
 399 -46 399 -46 674 -46.259765625 c 0,66,67
 846 -46 846 -46 952 67.740234375 c 0,68,69
 1061 186 1061 186 1070.88085938 363.48046875 c 0,70,-1
 1090 696 1090 696 1002 872 c 0,22,23
 967 943 967 943 866 987 c 0,25,26
 807 1013 807 1013 727.01171875 1009.93066406 c 0,27,28
 567 1005 567 1005 499.581054688 909.475585938 c 0,29,30
 415 790 415 790 413 633.240234375 c 128,-1,31
 411 481 411 481 495 384.740234375 c 0,32,33
 603 261 603 261 765.640625 320.825195312 c 1,0,0
 747 370 747 370 722.713867188 433.66796875 c 1,4,5
EndSplineSet
Refer: 320 57346 N 1 -0 0 -1 876 1370.74 2
Refer: 320 57346 N 0.939693 0.34202 0.34202 -0.939693 667.035 413.025 2
Layer: 2
SplineSet
864 1071 m 5
 864 963 l 5
 823.333333333 983 785.333333333 996.666666667 750 1004 c 4
 716.666666667 1013.33333333 679 1018 637 1018 c 4
 559.666666667 1018 498 993.333333333 452 944 c 4
 407.333333333 893.333333333 385 825.666666667 385 741 c 4
 385 652.333333333 408.333333333 584.666666667 455 538 c 4
 502.333333333 490.666666667 569 467 655 467 c 4
 693.666666667 467 729.333333333 471.333333333 762 480 c 4
 796 488 830 500.666666667 864 518 c 5
 864 414 l 5
 826 398 789.666666667 386.666666667 755 380 c 4
 715 372.666666667 675.666666667 369 637 369 c 4
 515.666666667 369 421.333333333 402.333333333 354 469 c 4
 284.666666667 535.666666667 250 626.333333333 250 741 c 4
 250 856.333333333 284.666666667 947.666666667 354 1015 c 132
 423.333333333 1082.33333333 517.666666667 1116 637 1116 c 4
 675.666666667 1116 715 1112.33333333 755 1105 c 4
 789.666666667 1098.33333333 826 1087 864 1071 c 5
616 1255 m 4
 544.666666667 1255 479.333333333 1242.66666667 420 1218 c 4
 358.666666667 1192.66666667 303.333333333 1155.33333333 254 1106 c 4
 204 1056 166 1000.33333333 140 939 c 4
 114.666666667 877 102 811 102 741 c 4
 102 671.666666667 114.666666667 606.666666667 140 546 c 132
 165.333333333 485.333333333 203.333333333 429.666666667 254 379 c 4
 305.333333333 327.666666667 360.666666667 289.666666667 420 265 c 4
 482 239.666666667 547.333333333 227 616 227 c 4
 686 227 751.333333333 239.666666667 812 265 c 4
 872 289.666666667 927.666666667 327.666666667 979 379 c 4
 1031 431 1068.66666667 486.666666667 1092 546 c 4
 1117.33333333 604.666666667 1130 669.666666667 1130 741 c 4
 1130 811 1117.33333333 877 1092 939 c 4
 1066.66666667 999.666666667 1029 1055.33333333 979 1106 c 4
 929.666666667 1155.33333333 874.666666667 1192.66666667 814 1218 c 4
 754 1242.66666667 688 1255 616 1255 c 4
616 1358 m 4
 700 1358 778.666666667 1343 852 1313 c 4
 924.666666667 1283 991 1238 1051 1178 c 4
 1110.33333333 1117.33333333 1155.66666667 1050.33333333 1187 977 c 4
 1217.66666667 905 1233 826.333333333 1233 741 c 4
 1233 657.666666667 1218 579.666666667 1188 507 c 4
 1156.66666667 434.333333333 1111 367.666666667 1051 307 c 4
 990.333333333 247 923.666666667 201.333333333 851 170 c 4
 778.333333333 140 700 125 616 125 c 4
 533.333333333 125 455.333333333 140 382 170 c 4
 308.666666667 201.333333333 242 247 182 307 c 4
 121.333333333 367.666666667 76 434.333333333 46 507 c 4
 15.3333333333 579 0 657 0 741 c 4
 0 826.333333333 15.3333333333 905 46 977 c 4
 77.3333333333 1050.33333333 122.666666667 1117.33333333 182 1178 c 4
 242 1238 308.333333333 1283 381 1313 c 4
 454.333333333 1343 532.666666667 1358 616 1358 c 4
EndSplineSet
EndChar

StartChar: ordfeminine
Encoding: 170 170 109
Width: 1233
VWidth: 2048
GlyphClass: 2
Flags: W
LayerCount: 3
Fore
SplineSet
684 1104 m 2,0,1
 539 1104 539 1104 478 1070 c 0,2,3
 416 1035 416 1035 416 958 c 0,4,5
 416 893 416 893 460 856 c 0,6,7
 502 817 502 817 575 817 c 0,8,9
 680 817 680 817 746 888 c 0,10,11
 811 961 811 961 811 1075 c 2,12,-1
 811 1104 l 1,13,-1
 684 1104 l 2,0,1
954 1165 m 2,14,-1
 954 717 l 1,15,-1
 811 717 l 1,16,-1
 811 829 l 1,17,18
 761 763 761 763 696 731 c 0,19,20
 632 698 632 698 549 698 c 0,21,22
 421 698 421 698 345 766 c 0,23,24
 270 834 270 834 270 950 c 0,25,26
 270 1079 270 1079 364 1149 c 0,27,28
 456 1219 456 1219 629 1219 c 2,29,-1
 811 1219 l 1,30,-1
 811 1223 l 2,31,32
 811 1312 811 1312 752 1359 c 0,33,34
 693 1405 693 1405 575 1405 c 0,35,36
 525 1405 525 1405 462 1388 c 0,37,38
 400 1370 400 1370 332 1337 c 1,39,-1
 332 1464 l 1,40,41
 400 1493 400 1493 468 1506 c 0,42,43
 536 1520 536 1520 598 1520 c 0,44,45
 782 1520 782 1520 868 1434 c 128,-1,46
 954 1348 954 1348 954 1165 c 2,14,-1
293 592 m 1,47,-1
 961 592 l 1,48,-1
 961 469 l 1,49,-1
 293 469 l 1,50,-1
 293 592 l 1,47,-1
EndSplineSet
Validated: 1
EndChar

StartChar: guillemotleft
Encoding: 171 171 110
Width: 1233
VWidth: 2048
GlyphClass: 2
Flags: W
LayerCount: 3
Fore
SplineSet
588 1059 m 1,0,-1
 588 868 l 1,1,-1
 287 600 l 1,2,-1
 588 332 l 1,3,-1
 588 141 l 1,4,-1
 119 559 l 1,5,-1
 119 641 l 1,6,-1
 588 1059 l 1,0,-1
1042 1059 m 1,7,-1
 1042 868 l 1,8,-1
 741 600 l 1,9,-1
 1042 332 l 1,10,-1
 1042 141 l 1,11,-1
 573 559 l 1,12,-1
 573 641 l 1,13,-1
 1042 1059 l 1,7,-1
EndSplineSet
Validated: 1
EndChar

StartChar: logicalnot
Encoding: 172 172 111
Width: 1233
VWidth: 2048
GlyphClass: 2
Flags: W
LayerCount: 3
Fore
SplineSet
88 862 m 1,0,-1
 1145 862 l 1,1,-1
 1145 371 l 1,2,-1
 977 371 l 1,3,-1
 977 690 l 1,4,-1
 88 690 l 1,5,-1
 88 862 l 1,0,-1
EndSplineSet
Validated: 1
EndChar

StartChar: uni00AD
Encoding: 173 173 112
Width: 1233
VWidth: 2048
GlyphClass: 2
Flags: W
LayerCount: 3
Fore
SplineSet
356 643 m 1,0,-1
 877 643 l 1,1,-1
 877 479 l 1,2,-1
 356 479 l 1,3,-1
 356 643 l 1,0,-1
EndSplineSet
Validated: 1
EndChar

StartChar: registered
Encoding: 174 174 113
Width: 1233
VWidth: 2048
GlyphClass: 2
Flags: W
LayerCount: 3
Fore
SplineSet
600 1100 m 2,0,1
 748 1100 748 1100 819 1051 c 0,2,3
 891 1002 891 1002 891 901 c 0,4,5
 891 830 891 830 847 784 c 0,6,7
 804 737 804 737 723 723 c 1,8,9
 742 718 742 718 771 684 c 0,10,11
 802 648 802 648 838 592 c 2,12,-1
 952 406 l 1,13,-1
 809 406 l 1,14,-1
 702 580 l 2,15,16
 651 661 651 661 622 681 c 0,17,18
 592 702 592 702 547 702 c 2,19,-1
 492 702 l 1,20,-1
 492 406 l 1,21,-1
 362 406 l 1,22,-1
 362 1100 l 1,23,-1
 600 1100 l 2,0,1
594 1016 m 2,24,-1
 492 1016 l 1,25,-1
 492 784 l 1,26,-1
 594 784 l 2,27,28
 684 784 684 784 721 811 c 128,-1,29
 758 838 758 838 758 901 c 0,30,31
 758 963 758 963 721 990 c 0,32,33
 683 1016 683 1016 594 1016 c 2,24,-1
616 1358 m 0,34,35
 742 1358 742 1358 852 1313 c 0,36,37
 961 1268 961 1268 1051 1178 c 0,38,39
 1140 1087 1140 1087 1187 977 c 0,40,41
 1233 869 1233 869 1233 741 c 0,42,43
 1233 616 1233 616 1188 507 c 0,44,45
 1141 398 1141 398 1051 307 c 0,46,47
 960 217 960 217 851 170 c 0,48,49
 742 125 742 125 616 125 c 0,50,51
 492 125 492 125 382 170 c 0,52,53
 272 217 272 217 182 307 c 0,54,55
 91 398 91 398 46 507 c 0,56,57
 0 615 0 615 0 741 c 0,58,59
 0 869 0 869 46 977 c 0,60,61
 93 1087 93 1087 182 1178 c 0,62,63
 272 1268 272 1268 381 1313 c 0,64,65
 491 1358 491 1358 616 1358 c 0,34,35
616 1255 m 0,66,67
 509 1255 509 1255 420 1218 c 0,68,69
 328 1180 328 1180 254 1106 c 0,70,71
 179 1031 179 1031 140 939 c 0,72,73
 102 846 102 846 102 741 c 0,74,75
 102 637 102 637 140 546 c 128,-1,76
 178 455 178 455 254 379 c 0,77,78
 331 302 331 302 420 265 c 0,79,80
 513 227 513 227 616 227 c 0,81,82
 721 227 721 227 812 265 c 0,83,84
 902 302 902 302 979 379 c 0,85,86
 1057 457 1057 457 1092 546 c 0,87,88
 1130 634 1130 634 1130 741 c 0,89,90
 1130 846 1130 846 1092 939 c 0,91,92
 1054 1030 1054 1030 979 1106 c 0,93,94
 905 1180 905 1180 814 1218 c 0,95,96
 724 1255 724 1255 616 1255 c 0,66,67
EndSplineSet
Validated: 1
EndChar

StartChar: macron
Encoding: 175 175 114
Width: 1233
VWidth: 2048
GlyphClass: 2
Flags: W
LayerCount: 3
Fore
SplineSet
317 1526 m 1,0,-1
 915 1526 l 1,1,-1
 915 1378 l 1,2,-1
 317 1378 l 1,3,-1
 317 1526 l 1,0,-1
EndSplineSet
Validated: 1
EndChar

StartChar: degree
Encoding: 176 176 115
Width: 1233
VWidth: 2048
GlyphClass: 2
Flags: W
LayerCount: 3
Fore
SplineSet
616 1520 m 0,0,1
 680 1520 680 1520 740 1496 c 0,2,3
 801 1469 801 1469 842 1425 c 0,4,5
 888 1379 888 1379 910 1323 c 0,6,7
 934 1266 934 1266 934 1200 c 0,8,9
 934 1069 934 1069 841 976 c 0,10,11
 747 885 747 885 614 885 c 0,12,13
 479 885 479 885 389 975 c 128,-1,14
 299 1065 299 1065 299 1200 c 0,15,16
 299 1333 299 1333 391 1427 c 0,17,18
 482 1520 482 1520 616 1520 c 0,0,1
616 1391 m 128,-1,20
 537 1391 537 1391 482 1336 c 0,21,22
 426 1280 426 1280 426 1200 c 128,-1,23
 426 1120 426 1120 480 1066 c 0,24,25
 536 1012 536 1012 614 1012 c 0,26,27
 695 1012 695 1012 750 1067 c 0,28,29
 807 1122 807 1122 807 1200 c 0,30,31
 807 1279 807 1279 751 1335 c 128,-1,19
 695 1391 695 1391 616 1391 c 128,-1,20
EndSplineSet
Validated: 1
EndChar

StartChar: plusminus
Encoding: 177 177 116
Width: 1233
VWidth: 2048
GlyphClass: 2
Flags: W
LayerCount: 3
Fore
SplineSet
88 170 m 1,0,-1
 1145 170 l 1,1,-1
 1145 0 l 1,2,-1
 88 0 l 1,3,-1
 88 170 l 1,0,-1
700 1171 m 1,4,-1
 700 842 l 1,5,-1
 1145 842 l 1,6,-1
 1145 672 l 1,7,-1
 700 672 l 1,8,-1
 700 340 l 1,9,-1
 532 340 l 1,10,-1
 532 672 l 1,11,-1
 88 672 l 1,12,-1
 88 842 l 1,13,-1
 532 842 l 1,14,-1
 532 1171 l 1,15,-1
 700 1171 l 1,4,-1
EndSplineSet
Validated: 1
EndChar

StartChar: uni00B2
Encoding: 178 178 117
Width: 1233
VWidth: 2048
GlyphClass: 2
Flags: W
LayerCount: 3
Fore
SplineSet
483 782 m 1,0,-1
 893 782 l 1,1,-1
 893 668 l 1,2,-1
 322 668 l 1,3,-1
 322 778 l 1,4,-1
 553 1004 l 2,5,6
 659 1107 659 1107 694 1162 c 0,7,8
 735 1222 735 1222 735 1274 c 0,9,10
 735 1335 735 1335 685 1373 c 128,-1,11
 635 1411 635 1411 553 1411 c 0,12,13
 504 1411 504 1411 448 1393 c 0,14,15
 391 1375 391 1375 328 1339 c 1,16,-1
 328 1464 l 1,17,18
 392 1492 392 1492 454 1506 c 256,19,20
 516 1520 516 1520 573 1520 c 0,21,22
 716 1520 716 1520 801 1454 c 0,23,24
 887 1386 887 1386 887 1280 c 0,25,26
 887 1222 887 1222 850 1164 c 0,27,28
 812 1104 812 1104 694 987 c 2,29,-1
 483 782 l 1,0,-1
EndSplineSet
Validated: 1
EndChar

StartChar: uni00B3
Encoding: 179 179 118
Width: 1233
VWidth: 2048
GlyphClass: 2
Flags: W
LayerCount: 3
Fore
SplineSet
731 1120 m 1,0,1
 826 1099 826 1099 874 1045 c 0,2,3
 924 992 924 992 924 911 c 0,4,5
 924 788 924 788 829 720 c 0,6,7
 735 653 735 653 557 653 c 0,8,9
 494 653 494 653 442 664 c 0,10,11
 393 672 393 672 326 694 c 1,12,-1
 326 815 l 1,13,14
 392 789 392 789 452 775 c 0,15,16
 505 762 505 762 553 762 c 0,17,18
 653 762 653 762 713 802 c 0,19,20
 772 844 772 844 772 911 c 0,21,22
 772 986 772 986 717 1023 c 0,23,24
 661 1061 661 1061 553 1061 c 2,25,-1
 487 1061 l 1,26,-1
 487 1169 l 1,27,-1
 561 1169 l 2,28,29
 652 1169 652 1169 703 1200 c 0,30,31
 752 1233 752 1233 752 1292 c 0,32,33
 752 1347 752 1347 704 1380 c 0,34,35
 654 1411 654 1411 569 1411 c 0,36,37
 524 1411 524 1411 469 1399 c 128,-1,38
 414 1387 414 1387 354 1364 c 1,39,-1
 354 1485 l 1,40,41
 430 1503 430 1503 482 1511 c 0,42,43
 539 1520 539 1520 590 1520 c 0,44,45
 734 1520 734 1520 819 1461 c 0,46,47
 903 1402 903 1402 903 1303 c 0,48,49
 903 1232 903 1232 859 1186 c 0,50,51
 817 1140 817 1140 731 1120 c 1,0,1
EndSplineSet
Validated: 1
EndChar

StartChar: acute
Encoding: 180 180 119
Width: 1233
VWidth: 2048
GlyphClass: 2
Flags: W
LayerCount: 3
Fore
SplineSet
756 1638 m 1,0,-1
 954 1638 l 1,1,-1
 629 1262 l 1,2,-1
 475 1262 l 1,3,-1
 756 1638 l 1,0,-1
EndSplineSet
Validated: 1
EndChar

StartChar: mu
Encoding: 181 181 120
Width: 1233
VWidth: 2048
GlyphClass: 2
Flags: W
LayerCount: 3
Fore
SplineSet
195 -428 m 1,0,-1
 195 1120 l 1,1,-1
 379 1120 l 1,2,-1
 379 424 l 2,3,4
 379 282 379 282 439 206 c 0,5,6
 499 131 499 131 610 131 c 0,7,8
 736 131 736 131 802 216 c 0,9,10
 866 303 866 303 866 467 c 2,11,-1
 866 1120 l 1,12,-1
 1051 1120 l 1,13,-1
 1051 256 l 2,14,15
 1051 197 1051 197 1067 169 c 128,-1,16
 1083 141 1083 141 1116 141 c 0,17,18
 1123 141 1123 141 1140 146 c 0,19,20
 1154 150 1154 150 1182 164 c 1,21,-1
 1182 16 l 1,22,23
 1141 -9 1141 -9 1110 -18 c 0,24,25
 1074 -29 1074 -29 1042 -29 c 0,26,27
 981 -29 981 -29 942 10 c 0,28,29
 905 52 905 52 893 129 c 1,30,31
 846 48 846 48 780 10 c 0,32,33
 714 -29 714 -29 625 -29 c 0,34,35
 534 -29 534 -29 470 9 c 0,36,37
 406 46 406 46 362 127 c 1,38,-1
 362 -428 l 1,39,-1
 195 -428 l 1,0,-1
EndSplineSet
Validated: 1
EndChar

StartChar: paragraph
Encoding: 182 182 121
Width: 1233
VWidth: 2048
GlyphClass: 2
Flags: W
LayerCount: 3
Fore
SplineSet
582 1493 m 2,0,-1
 1030 1493 l 1,1,-1
 1030 -197 l 1,2,-1
 889 -197 l 1,3,-1
 889 1370 l 1,4,-1
 698 1370 l 1,5,-1
 698 -197 l 1,6,-1
 557 -197 l 1,7,-1
 557 649 l 1,8,9
 344 665 344 665 224 776 c 0,10,11
 106 887 106 887 106 1071 c 0,12,13
 106 1261 106 1261 236 1377 c 0,14,15
 369 1493 369 1493 582 1493 c 2,0,-1
EndSplineSet
Validated: 1
EndChar

StartChar: periodcentered
Encoding: 183 183 122
Width: 1233
VWidth: 2048
GlyphClass: 2
Flags: W
LayerCount: 3
Fore
SplineSet
489 864 m 1,0,-1
 741 864 l 1,1,-1
 741 559 l 1,2,-1
 489 559 l 1,3,-1
 489 864 l 1,0,-1
EndSplineSet
Validated: 1
EndChar

StartChar: cedilla
Encoding: 184 184 123
Width: 1233
VWidth: 2048
GlyphClass: 2
Flags: W
LayerCount: 3
Fore
SplineSet
700 0 m 1,0,1
 756 -62 756 -62 782 -114 c 0,2,3
 809 -168 809 -168 809 -215 c 0,4,5
 809 -304 809 -304 749 -350 c 0,6,7
 689 -395 689 -395 571 -395 c 0,8,9
 527 -395 527 -395 482 -389 c 128,-1,10
 437 -383 437 -383 395 -371 c 1,11,-1
 395 -240 l 1,12,13
 434 -259 434 -259 466 -264 c 0,14,15
 501 -272 501 -272 551 -272 c 0,16,17
 608 -272 608 -272 640 -248 c 0,18,19
 670 -224 670 -224 670 -178 c 0,20,21
 670 -148 670 -148 648 -104 c 0,22,23
 624 -60 624 -60 582 0 c 1,24,-1
 700 0 l 1,0,1
EndSplineSet
Validated: 1
EndChar

StartChar: uni00B9
Encoding: 185 185 124
Width: 1233
VWidth: 2048
GlyphClass: 2
Flags: W
LayerCount: 3
Fore
SplineSet
362 778 m 1,0,-1
 567 778 l 1,1,-1
 567 1389 l 1,2,-1
 344 1348 l 1,3,-1
 344 1464 l 1,4,-1
 573 1503 l 1,5,-1
 711 1503 l 1,6,-1
 711 778 l 1,7,-1
 915 778 l 1,8,-1
 915 668 l 1,9,-1
 362 668 l 1,10,-1
 362 778 l 1,0,-1
EndSplineSet
Validated: 1
EndChar

StartChar: ordmasculine
Encoding: 186 186 125
Width: 1233
VWidth: 2048
GlyphClass: 2
Flags: W
LayerCount: 3
Fore
SplineSet
616 1403 m 0,0,1
 514 1403 514 1403 456 1325 c 0,2,3
 399 1247 399 1247 399 1108 c 0,4,5
 399 968 399 968 456 892 c 0,6,7
 515 815 515 815 616 815 c 0,8,9
 716 815 716 815 776 894 c 0,10,11
 834 973 834 973 834 1108 c 0,12,13
 834 1248 834 1248 776 1325 c 0,14,15
 719 1403 719 1403 616 1403 c 0,0,1
616 1520 m 128,-1,17
 786 1520 786 1520 888 1408 c 0,18,19
 989 1295 989 1295 989 1108 c 0,20,21
 989 922 989 922 888 810 c 0,22,23
 788 698 788 698 616 698 c 0,24,25
 445 698 445 698 345 810 c 0,26,27
 244 922 244 922 244 1108 c 0,28,29
 244 1296 244 1296 346 1408 c 0,30,16
 446 1520 446 1520 616 1520 c 128,-1,17
276 592 m 1,31,-1
 952 592 l 1,32,-1
 952 469 l 1,33,-1
 276 469 l 1,34,-1
 276 592 l 1,31,-1
EndSplineSet
Validated: 1
EndChar

StartChar: guillemotright
Encoding: 187 187 126
Width: 1233
VWidth: 2048
GlyphClass: 2
Flags: W
LayerCount: 3
Fore
SplineSet
647 1059 m 1,0,-1
 1116 641 l 1,1,-1
 1116 559 l 1,2,-1
 647 141 l 1,3,-1
 647 332 l 1,4,-1
 948 600 l 1,5,-1
 647 868 l 1,6,-1
 647 1059 l 1,0,-1
193 1059 m 1,7,-1
 662 641 l 1,8,-1
 662 559 l 1,9,-1
 193 141 l 1,10,-1
 193 332 l 1,11,-1
 494 600 l 1,12,-1
 193 868 l 1,13,-1
 193 1059 l 1,7,-1
EndSplineSet
Validated: 1
EndChar

StartChar: onequarter
Encoding: 188 188 127
Width: 1233
VWidth: 2048
GlyphClass: 2
Flags: W
LayerCount: 3
Fore
SplineSet
815 565 m 1,0,-1
 977 565 l 1,1,-1
 977 27 l 1,2,-1
 1093 27 l 1,3,-1
 1093 -84 l 1,4,-1
 977 -84 l 1,5,-1
 977 -270 l 1,6,-1
 839 -270 l 1,7,-1
 839 -84 l 1,8,-1
 452 -84 l 1,9,-1
 452 37 l 1,10,-1
 815 565 l 1,0,-1
839 440 m 1,11,-1
 565 27 l 1,12,-1
 839 27 l 1,13,-1
 839 440 l 1,11,-1
104 934 m 1,14,-1
 309 934 l 1,15,-1
 309 1545 l 1,16,-1
 86 1504 l 1,17,-1
 86 1620 l 1,18,-1
 315 1659 l 1,19,-1
 453 1659 l 1,20,-1
 453 934 l 1,21,-1
 657 934 l 1,22,-1
 657 824 l 1,23,-1
 104 824 l 1,24,-1
 104 934 l 1,14,-1
51 504 m 1,25,-1
 27 612 l 1,26,-1
 1087 874 l 1,27,-1
 1114 766 l 1,28,-1
 51 504 l 1,25,-1
EndSplineSet
Validated: 1
EndChar

StartChar: onehalf
Encoding: 189 189 128
Width: 1233
VWidth: 2048
GlyphClass: 2
Flags: W
LayerCount: 3
Fore
SplineSet
104 934 m 1,0,-1
 309 934 l 1,1,-1
 309 1545 l 1,2,-1
 86 1504 l 1,3,-1
 86 1620 l 1,4,-1
 315 1659 l 1,5,-1
 453 1659 l 1,6,-1
 453 934 l 1,7,-1
 657 934 l 1,8,-1
 657 824 l 1,9,-1
 104 824 l 1,10,-1
 104 934 l 1,0,-1
51 504 m 1,11,-1
 27 612 l 1,12,-1
 1087 874 l 1,13,-1
 1114 766 l 1,14,-1
 51 504 l 1,11,-1
684 -156 m 1,15,-1
 1094 -156 l 1,16,-1
 1094 -270 l 1,17,-1
 523 -270 l 1,18,-1
 523 -160 l 1,19,-1
 754 66 l 2,20,21
 855 164 855 164 896 224 c 0,22,23
 936 287 936 287 936 336 c 0,24,25
 936 397 936 397 886 435 c 128,-1,26
 836 473 836 473 754 473 c 0,27,28
 705 473 705 473 648 455 c 128,-1,29
 591 437 591 437 529 401 c 1,30,-1
 529 526 l 1,31,32
 593 554 593 554 654 568 c 0,33,34
 718 582 718 582 774 582 c 0,35,36
 916 582 916 582 1002 516 c 0,37,38
 1088 448 1088 448 1088 342 c 0,39,40
 1088 284 1088 284 1051 226 c 0,41,42
 1014 166 1014 166 895 49 c 2,43,-1
 684 -156 l 1,15,-1
EndSplineSet
Validated: 1
EndChar

StartChar: threequarters
Encoding: 190 190 129
Width: 1233
VWidth: 2048
GlyphClass: 2
Flags: W
LayerCount: 3
Fore
SplineSet
815 565 m 1,0,-1
 977 565 l 1,1,-1
 977 27 l 1,2,-1
 1093 27 l 1,3,-1
 1093 -84 l 1,4,-1
 977 -84 l 1,5,-1
 977 -270 l 1,6,-1
 839 -270 l 1,7,-1
 839 -84 l 1,8,-1
 452 -84 l 1,9,-1
 452 37 l 1,10,-1
 815 565 l 1,0,-1
839 440 m 1,11,-1
 565 27 l 1,12,-1
 839 27 l 1,13,-1
 839 440 l 1,11,-1
504 1276 m 1,14,15
 597 1255 597 1255 648 1201 c 0,16,17
 697 1146 697 1146 697 1067 c 0,18,19
 697 944 697 944 602 876 c 0,20,21
 508 809 508 809 330 809 c 0,22,23
 267 809 267 809 215 820 c 0,24,25
 166 828 166 828 99 850 c 1,26,-1
 99 971 l 1,27,28
 164 946 164 946 224 931 c 0,29,30
 279 918 279 918 326 918 c 0,31,32
 426 918 426 918 486 958 c 0,33,34
 545 1000 545 1000 545 1067 c 0,35,36
 545 1142 545 1142 490 1179 c 0,37,38
 434 1217 434 1217 326 1217 c 2,39,-1
 260 1217 l 1,40,-1
 260 1325 l 1,41,-1
 334 1325 l 2,42,43
 425 1325 425 1325 476 1356 c 0,44,45
 525 1389 525 1389 525 1448 c 0,46,47
 525 1503 525 1503 477 1536 c 0,48,49
 427 1567 427 1567 342 1567 c 0,50,51
 298 1567 298 1567 242 1555 c 0,52,53
 187 1543 187 1543 127 1520 c 1,54,-1
 127 1641 l 1,55,56
 200 1659 200 1659 254 1667 c 0,57,58
 314 1676 314 1676 363 1676 c 0,59,60
 507 1676 507 1676 592 1617 c 0,61,62
 676 1558 676 1558 676 1459 c 0,63,64
 676 1388 676 1388 632 1342 c 0,65,66
 590 1296 590 1296 504 1276 c 1,14,15
51 504 m 1,67,-1
 27 612 l 1,68,-1
 1087 874 l 1,69,-1
 1114 766 l 1,70,-1
 51 504 l 1,67,-1
EndSplineSet
Validated: 1
EndChar

StartChar: divide
Encoding: 247 247 134
Width: 1233
VWidth: 2048
GlyphClass: 2
Flags: W
LayerCount: 3
Fore
SplineSet
494 395 m 1,0,-1
 739 395 l 1,1,-1
 739 150 l 1,2,-1
 494 150 l 1,3,-1
 494 395 l 1,0,-1
494 1135 m 1,4,-1
 739 1135 l 1,5,-1
 739 889 l 1,6,-1
 494 889 l 1,7,-1
 494 1135 l 1,4,-1
88 727 m 1,8,-1
 1145 727 l 1,9,-1
 1145 557 l 1,10,-1
 88 557 l 1,11,-1
 88 727 l 1,8,-1
EndSplineSet
Validated: 1
EndChar

StartChar: cacute
Encoding: 263 263 138
Width: 551
VWidth: 0
GlyphClass: 3
Flags: W
LayerCount: 3
Fore
SplineSet
465 -108 m 1,0,-1
 382 33 l 1,1,2
 627 198 627 198 580.5 551.5 c 0,3,4
 546 818 546 818 477.5 888 c 0,5,6
 322 1043 322 1043 206 952 c 0,7,8
 170 924 170 924 133 788 c 1,9,-1
 -27 896 l 1,10,11
 0 1040 0 1040 117 1110 c 0,12,13
 362 1258 362 1258 586 1009 c 0,14,15
 720 859 720 859 762 553 c 0,16,17
 820 134 820 134 465 -108 c 1,0,-1
EndSplineSet
Validated: 33
LCarets2: 1 0
EndChar

StartChar: ccaron
Encoding: 269 269 140
Width: 67
VWidth: 3070
GlyphClass: 3
Flags: W
LayerCount: 3
Fore
SplineSet
0.775390625 -99 m 1,0,1
 -46.224609375 -147 -46.224609375 -147 -93.224609375 -195 c 0,2,3
 -211.224609375 -313 -211.224609375 -313 -208.224609375 -373 c 0,0,0
 -202.224609375 -484 -202.224609375 -484 -113.224609375 -490 c 0,4,5
 0.775390625 -497 0.775390625 -497 0.775390625 -322 c 0,6,7
 0.775390625 -206 0.775390625 -206 0.775390625 -99 c 1,0,1
2.7841796875 64 m 1,10,11
 2.7841796875 64 2.7841796875 64 120.775390625 45 c 5,14,-1
 120.775390625 -325 l 2,15,16
 120.775390625 -612 120.775390625 -612 -110.224609375 -610 c 0,17,18
 -215.224609375 -609 -215.224609375 -609 -277.224609375 -521 c 0,0,0
 -379.224609375 -374 -379.224609375 -374 -274.224609375 -218 c 0,0,0
 -252.224609375 -185 -252.224609375 -185 -187.224609375 -119 c 0,19,20
 -119.224609375 -50 -119.224609375 -50 2.7841796875 64 c 1,10,11
60.775390625 24 m 25,0,-1
 60.775390625 64 l 25,1,-1
 80.775390625 44 l 25,2,-1
 40.775390625 44 l 1049,3,-1
60.275390625 -16 m 128,-1,5
 33.775390625 -16 33.775390625 -16 17.775390625 0 c 0,6,7
 0.775390625 17 0.775390625 17 0.775390625 44 c 0,7,8
 0.775390625 74 0.775390625 74 17.8095703125 90 c 0,9,10
 32.775390625 104 32.775390625 104 60.775390625 104 c 128,-1,11
 88.775390625 104 88.775390625 104 103.741210938 90 c 0,12,13
 120.775390625 74 120.775390625 74 120.775390625 44 c 0,14,15
 120.775390625 18 120.775390625 18 102.775390625 0 c 0,16,17
 86.775390625 -16 86.775390625 -16 60.275390625 -16 c 128,-1,5
60.775390625 19 m 25,0,-1
 60.775390625 59 l 25,1,-1
 80.775390625 39 l 25,2,-1
 40.775390625 39 l 1049,3,-1
60.275390625 -21 m 128,-1,5
 33.775390625 -21 33.775390625 -21 17.775390625 -5 c 0,6,7
 0.775390625 12 0.775390625 12 0.775390625 39 c 0,7,8
 0.775390625 69 0.775390625 69 17.8095703125 85 c 0,9,10
 32.775390625 99 32.775390625 99 60.775390625 99 c 128,-1,11
 88.775390625 99 88.775390625 99 103.741210938 85 c 0,12,13
 120.775390625 69 120.775390625 69 120.775390625 39 c 0,14,15
 120.775390625 13 120.775390625 13 102.775390625 -5 c 0,16,17
 86.775390625 -21 86.775390625 -21 60.275390625 -21 c 128,-1,5
EndSplineSet
Refer: 286 57354 N 1 0 0 1 0 0 2
LCarets2: 1 0
EndChar

StartChar: dcaron
Encoding: 271 271 142
Width: 60
VWidth: 3070
GlyphClass: 3
Flags: W
LayerCount: 3
Fore
SplineSet
0.775390625 -103 m 1,0,1
 -46.224609375 -151 -46.224609375 -151 -93.224609375 -199 c 0,2,3
 -211.224609375 -317 -211.224609375 -317 -208.224609375 -377 c 0,0,0
 -202.224609375 -488 -202.224609375 -488 -113.224609375 -494 c 0,4,5
 0.775390625 -501 0.775390625 -501 0.775390625 -326 c 0,6,7
 0.775390625 -210 0.775390625 -210 0.775390625 -103 c 1,0,1
2.7841796875 60 m 1,10,11
 2.7841796875 60 2.7841796875 60 120.775390625 41 c 5,14,-1
 120.775390625 -329 l 2,15,16
 120.775390625 -616 120.775390625 -616 -110.224609375 -614 c 0,17,18
 -215.224609375 -613 -215.224609375 -613 -277.224609375 -525 c 0,0,0
 -379.224609375 -378 -379.224609375 -378 -274.224609375 -222 c 0,0,0
 -252.224609375 -189 -252.224609375 -189 -187.224609375 -123 c 0,19,20
 -119.224609375 -54 -119.224609375 -54 2.7841796875 60 c 1,10,11
60.775390625 20 m 25,0,-1
 60.775390625 60 l 25,1,-1
 80.775390625 40 l 25,2,-1
 40.775390625 40 l 1049,3,-1
60.275390625 -20 m 128,-1,5
 33.775390625 -20 33.775390625 -20 17.775390625 -4 c 0,6,7
 0.775390625 13 0.775390625 13 0.775390625 40 c 0,7,8
 0.775390625 70 0.775390625 70 17.8095703125 86 c 0,9,10
 32.775390625 100 32.775390625 100 60.775390625 100 c 128,-1,11
 88.775390625 100 88.775390625 100 103.741210938 86 c 0,12,13
 120.775390625 70 120.775390625 70 120.775390625 40 c 0,14,15
 120.775390625 14 120.775390625 14 102.775390625 -4 c 0,16,17
 86.775390625 -20 86.775390625 -20 60.275390625 -20 c 128,-1,5
60.775390625 15 m 25,0,-1
 60.775390625 55 l 25,1,-1
 80.775390625 35 l 25,2,-1
 40.775390625 35 l 1049,3,-1
60.275390625 -25 m 128,-1,5
 33.775390625 -25 33.775390625 -25 17.775390625 -9 c 0,6,7
 0.775390625 8 0.775390625 8 0.775390625 35 c 0,7,8
 0.775390625 65 0.775390625 65 17.8095703125 81 c 0,9,10
 32.775390625 95 32.775390625 95 60.775390625 95 c 128,-1,11
 88.775390625 95 88.775390625 95 103.741210938 81 c 0,12,13
 120.775390625 65 120.775390625 65 120.775390625 35 c 0,14,15
 120.775390625 9 120.775390625 9 102.775390625 -9 c 0,16,17
 86.775390625 -25 86.775390625 -25 60.275390625 -25 c 128,-1,5
EndSplineSet
Refer: 281 57352 N 1 0 0 1 0 0 2
LCarets2: 1 28
EndChar

StartChar: lslash
Encoding: 322 322 146
Width: 78
VWidth: 2048
GlyphClass: 2
Flags: W
LayerCount: 3
Fore
SplineSet
218 44 m 1,0,-1
 -67 44 l 1,1,2
 -58 51 -58 51 -43.5 63 c 128,-1,3
 -29 75 -29 75 1.5 100 c 128,-1,4
 32 125 32 125 52 142 c 128,-1,5
 72 159 72 159 71 160 c 1,6,-1
 218 44 l 1,0,-1
75 133 m 0,7,8
 135 133 135 133 185 86 c 0,9,10
 242 34 242 34 242 -50 c 0,11,12
 242 -92 242 -92 225 -130 c 128,-1,13
 208 -168 208 -168 186 -186 c 0,14,15
 166 -202 166 -202 153 -210 c 128,-1,16
 140 -218 140 -218 119 -225.5 c 128,-1,17
 98 -233 98 -233 75 -233 c 0,18,19
 20 -233 20 -233 -36 -186 c 0,20,21
 -60 -166 -60 -166 -75.5 -129.5 c 128,-1,22
 -91 -93 -91 -93 -91 -50 c 0,23,24
 -91 36 -91 36 -36 86 c 0,25,26
 16 133 16 133 75 133 c 0,7,8
EndSplineSet
Validated: 5
EndChar

StartChar: sacute
Encoding: 347 347 150
Width: 538
VWidth: 0
GlyphClass: 3
Flags: W
LayerCount: 3
Fore
SplineSet
406.137695312 45.4287109375 m 1,0,1
 466.311523438 45.5068359375 466.311523438 45.5068359375 526.138671875 45.4287109375 c 1,4,5
 526.138671875 32.4287109375 526.138671875 32.4287109375 526.138671875 32.4287109375 c 1,6,7
 525.000976562 -400.677734375 525.000976562 -400.677734375 182.500976562 -744.071289062 c 0,8,9
 175.690429688 -751.403320312 175.690429688 -751.403320312 168.358398438 -758.213867188 c 1,10,-1
 83.505859375 -673.361328125 l 1,11,12
 85.8876953125 -671.5 85.8876953125 -671.5 97.6484375 -659.21875 c 0,13,14
 404.79296875 -352.594726562 404.79296875 -352.594726562 406.137695312 31.4296875 c 1,15,16
 406.20703125 44.7998046875 406.20703125 44.7998046875 406.137695312 45.4287109375 c 1,0,1
140.07421875 -701.64453125 m 25,0,-1
 111.7890625 -729.928710938 l 25,1,-1
 111.7890625 -701.64453125 l 25,2,-1
 140.07421875 -729.928710938 l 1049,3,-1
168.711914062 -673.713867188 m 128,-1,5
 187.450195312 -692.452148438 187.450195312 -692.452148438 187.450195312 -715.080078125 c 0,6,7
 187.450195312 -739.12109375 187.450195312 -739.12109375 168.358398438 -758.212890625 c 0,7,8
 147.14453125 -779.426757812 147.14453125 -779.426757812 123.786132812 -778.6953125 c 0,9,10
 103.3046875 -778.01171875 103.3046875 -778.01171875 83.5048828125 -758.212890625 c 128,-1,11
 63.7060546875 -738.4140625 63.7060546875 -738.4140625 63.0234375 -717.932617188 c 0,12,13
 62.2919921875 -694.573242188 62.2919921875 -694.573242188 83.5048828125 -673.360351562 c 0,14,15
 101.889648438 -654.975585938 101.889648438 -654.975585938 127.345703125 -654.975585938 c 0,16,17
 149.973632812 -654.975585938 149.973632812 -654.975585938 168.711914062 -673.713867188 c 128,-1,5
486.13671875 45.4287109375 m 25,0,-1
 446.13671875 45.4287109375 l 25,1,-1
 466.13671875 65.4287109375 l 25,2,-1
 466.13671875 25.4287109375 l 1049,3,-1
526.13671875 44.9287109375 m 128,-1,5
 526.13671875 18.4287109375 526.13671875 18.4287109375 510.137695312 2.4287109375 c 0,6,7
 493.13671875 -14.5712890625 493.13671875 -14.5712890625 466.13671875 -14.5712890625 c 0,7,8
 436.137695312 -14.5712890625 436.137695312 -14.5712890625 420.137695312 2.462890625 c 0,9,10
 406.137695312 17.4287109375 406.137695312 17.4287109375 406.137695312 45.4287109375 c 128,-1,11
 406.137695312 73.427734375 406.137695312 73.427734375 420.137695312 88.39453125 c 0,12,13
 436.137695312 105.428710938 436.137695312 105.428710938 466.13671875 105.428710938 c 0,14,15
 492.13671875 105.428710938 492.13671875 105.428710938 510.137695312 87.427734375 c 0,16,17
 526.13671875 71.4287109375 526.13671875 71.4287109375 526.13671875 44.9287109375 c 128,-1,5
EndSplineSet
Refer: 285 57353 N 1 0 0 1 303 171 2
Refer: 285 57353 N 1 0 0 1 303 0 2
EndChar

StartChar: scaron
Encoding: 353 353 152
Width: 259
VWidth: 3070
GlyphClass: 3
Flags: W
LayerCount: 3
Fore
SplineSet
-100.991210938 127 m 1,0,1
 -71.9912109375 126 -71.9912109375 126 -42.9912109375 126 c 1,2,3
 -12.9912109375 126 -12.9912109375 126 17.0087890625 126 c 1,4,5
 17.0087890625 -280 17.0087890625 -280 17.0087890625 -456 c 1,6,7
 1.0087890625 -743 1.0087890625 -743 -217.491210938 -729 c 0,8,9
 -356.991210938 -720 -356.991210938 -720 -402.991210938 -612 c 0,0,0
 -498.991210938 -389 -498.991210938 -389 -367.991210938 -174 c 0,10,11
 -288.991210938 -44 -288.991210938 -44 -100.991210938 127 c 1,0,1
-102.991210938 -43 m 1,13,14
 -212.991210938 -151 -212.991210938 -151 -258.991210938 -230 c 0,15,16
 -338.874023438 -368.516601562 -338.874023438 -368.516601562 -307.52734375 -512 c 0,0,0
 -286.991210938 -606 -286.991210938 -606 -216.991210938 -606 c 0,17,18
 -102.991210938 -606 -102.991210938 -606 -102.991210938 -456 c 0,19,20
 -102.991210938 -338 -102.991210938 -338 -102.991210938 -43 c 1,13,14
-42.9912109375 86 m 25,0,-1
 -42.9912109375 126 l 25,1,-1
 -22.9912109375 106 l 25,2,-1
 -62.9912109375 106 l 1049,3,-1
-43.4912109375 46 m 128,-1,5
 -69.9912109375 46 -69.9912109375 46 -85.9912109375 62 c 0,6,7
 -102.991210938 79 -102.991210938 79 -102.991210938 106 c 0,7,8
 -102.991210938 136 -102.991210938 136 -85.95703125 152 c 0,9,10
 -70.9912109375 166 -70.9912109375 166 -42.9912109375 166 c 128,-1,11
 -14.9912109375 166 -14.9912109375 166 -0.025390625 152 c 0,12,13
 17.0087890625 136 17.0087890625 136 17.0087890625 106 c 0,14,15
 17.0087890625 80 17.0087890625 80 -0.9912109375 62 c 0,16,17
 -16.9912109375 46 -16.9912109375 46 -43.4912109375 46 c 128,-1,5
-42.9912109375 90 m 25,0,-1
 -42.9912109375 130 l 25,1,-1
 -22.9912109375 110 l 25,2,-1
 -62.9912109375 110 l 1049,3,-1
-43.4912109375 50 m 128,-1,5
 -69.9912109375 50 -69.9912109375 50 -85.9912109375 66 c 0,6,7
 -102.991210938 83 -102.991210938 83 -102.991210938 110 c 0,7,8
 -102.991210938 140 -102.991210938 140 -85.95703125 156 c 0,9,10
 -70.9912109375 170 -70.9912109375 170 -42.9912109375 170 c 128,-1,11
 -14.9912109375 170 -14.9912109375 170 -0.025390625 156 c 0,12,13
 17.0087890625 140 17.0087890625 140 17.0087890625 110 c 0,14,15
 17.0087890625 84 17.0087890625 84 -0.9912109375 66 c 0,16,17
 -16.9912109375 50 -16.9912109375 50 -43.4912109375 50 c 128,-1,5
EndSplineSet
Refer: 281 57352 S 1 0 0 1 242 -86 2
LCarets2: 1 210
EndChar

StartChar: zacute
Encoding: 378 378 154
Width: 300
VWidth: 0
GlyphClass: 3
Flags: W
LayerCount: 3
Fore
SplineSet
-3 903 m 1,0,-1
 -3 1101 l 1,1,2
 48 1087 48 1087 95.5 1063 c 128,-1,3
 143 1039 143 1039 180.5 1009 c 128,-1,4
 218 979 218 979 249.5 949.5 c 128,-1,5
 281 920 281 920 307.5 886.5 c 128,-1,6
 334 853 334 853 349.5 831 c 128,-1,7
 365 809 365 809 380.5 784.5 c 128,-1,8
 396 760 396 760 398 758 c 0,9,10
 437 703 437 703 453.5 576 c 128,-1,11
 470 449 470 449 456.5 311 c 128,-1,12
 443 173 443 173 402 94 c 0,13,14
 378 48 378 48 365.5 25 c 128,-1,15
 353 2 353 2 320.5 -52.5 c 128,-1,16
 288 -107 288 -107 257 -144.5 c 128,-1,17
 226 -182 226 -182 182.5 -229.5 c 128,-1,18
 139 -277 139 -277 85.5 -315.5 c 128,-1,19
 32 -354 32 -354 -27 -383 c 1,20,-1
 -103 -256 l 1,21,22
 -34 -229 -34 -229 28.5 -178 c 128,-1,23
 91 -127 91 -127 137 -65.5 c 128,-1,24
 183 -4 183 -4 215.5 55.5 c 128,-1,25
 248 115 248 115 268 172 c 0,26,27
 379 484 379 484 254 708 c 0,28,29
 151 893 151 893 -3 903 c 1,0,-1
EndSplineSet
Validated: 33
EndChar

StartChar: zcaron
Encoding: 382 382 158
Width: 748
VWidth: 3070
GlyphClass: 2
Flags: W
LayerCount: 3
Fore
SplineSet
316.775390625 -21 m 1,0,1
 269.775390625 -69 269.775390625 -69 222.775390625 -117 c 0,2,3
 104.775390625 -235 104.775390625 -235 107.775390625 -295 c 0,0,0
 113.775390625 -406 113.775390625 -406 202.775390625 -412 c 0,4,5
 316.775390625 -419 316.775390625 -419 316.775390625 -244 c 0,6,7
 316.775390625 -128 316.775390625 -128 316.775390625 -21 c 1,0,1
318.784179688 142 m 1,10,11
 318.784179688 142 318.784179688 142 436.775390625 123 c 5,14,-1
 436.775390625 -247 l 2,15,16
 436.775390625 -534 436.775390625 -534 205.775390625 -532 c 0,17,18
 100.775390625 -531 100.775390625 -531 38.775390625 -443 c 0,0,0
 -63.224609375 -296 -63.224609375 -296 41.775390625 -140 c 0,0,0
 63.775390625 -107 63.775390625 -107 128.775390625 -41 c 0,19,20
 196.775390625 28 196.775390625 28 318.784179688 142 c 1,10,11
376.775390625 102 m 25,0,-1
 376.775390625 142 l 25,1,-1
 396.775390625 122 l 25,2,-1
 356.775390625 122 l 1049,3,-1
376.275390625 62 m 128,-1,5
 349.775390625 62 349.775390625 62 333.775390625 78 c 0,6,7
 316.775390625 95 316.775390625 95 316.775390625 122 c 0,7,8
 316.775390625 152 316.775390625 152 333.809570312 168 c 0,9,10
 348.775390625 182 348.775390625 182 376.775390625 182 c 128,-1,11
 404.775390625 182 404.775390625 182 419.741210938 168 c 0,12,13
 436.775390625 152 436.775390625 152 436.775390625 122 c 0,14,15
 436.775390625 96 436.775390625 96 418.775390625 78 c 0,16,17
 402.775390625 62 402.775390625 62 376.275390625 62 c 128,-1,5
376.775390625 97 m 25,0,-1
 376.775390625 137 l 25,1,-1
 396.775390625 117 l 25,2,-1
 356.775390625 117 l 1049,3,-1
376.275390625 57 m 128,-1,5
 349.775390625 57 349.775390625 57 333.775390625 73 c 0,6,7
 316.775390625 90 316.775390625 90 316.775390625 117 c 0,7,8
 316.775390625 147 316.775390625 147 333.809570312 163 c 0,9,10
 348.775390625 177 348.775390625 177 376.775390625 177 c 128,-1,11
 404.775390625 177 404.775390625 177 419.741210938 163 c 0,12,13
 436.775390625 147 436.775390625 147 436.775390625 117 c 0,14,15
 436.775390625 91 436.775390625 91 418.775390625 73 c 0,16,17
 402.775390625 57 402.775390625 57 376.275390625 57 c 128,-1,5
EndSplineSet
Refer: 281 57352 S 1 0 0 1 316 -90 2
LCarets2: 1 548
EndChar

StartChar: uni02B9
Encoding: 697 697 161
Width: 1233
VWidth: 2048
GlyphClass: 2
Flags: W
LayerCount: 3
Fore
SplineSet
492 1140 m 1,0,-1
 557 1638 l 1,1,-1
 747 1638 l 1,2,-1
 637 1140 l 1,3,-1
 492 1140 l 1,0,-1
EndSplineSet
Validated: 1
EndChar

StartChar: uni02BB
Encoding: 699 699 162
Width: 1233
VWidth: 2048
GlyphClass: 2
Flags: W
LayerCount: 3
Fore
SplineSet
715 967 m 1,0,-1
 463 967 l 1,1,-1
 463 1174 l 1,2,-1
 659 1556 l 1,3,-1
 813 1556 l 1,4,-1
 715 1174 l 1,5,-1
 715 967 l 1,0,-1
EndSplineSet
Validated: 1
EndChar

StartChar: afii57929
Encoding: 700 700 163
Width: 1233
VWidth: 2048
GlyphClass: 2
Flags: W
LayerCount: 3
Fore
SplineSet
561 1556 m 1,0,-1
 813 1556 l 1,1,-1
 813 1350 l 1,2,-1
 616 967 l 1,3,-1
 463 967 l 1,4,-1
 561 1350 l 1,5,-1
 561 1556 l 1,0,-1
EndSplineSet
Validated: 1
EndChar

StartChar: afii64937
Encoding: 701 701 164
Width: 1233
VWidth: 2048
GlyphClass: 2
Flags: W
LayerCount: 3
Fore
SplineSet
496 1475 m 2,0,-1
 496 1729 l 1,1,-1
 737 1729 l 1,2,-1
 737 1475 l 1,3,-1
 625 1475 l 1,4,5
 625 1341 625 1341 737 1341 c 1,6,-1
 737 1218 l 1,7,8
 496 1218 496 1218 496 1475 c 2,0,-1
EndSplineSet
Validated: 1
EndChar

StartChar: uni02BE
Encoding: 702 702 165
Width: 1233
VWidth: 2048
GlyphClass: 2
Flags: W
LayerCount: 3
Fore
SplineSet
480 1007 m 1,0,-1
 480 1130 l 1,1,2
 544 1130 544 1130 588 1174 c 128,-1,3
 632 1218 632 1218 632 1282 c 0,4,5
 632 1345 632 1345 588 1389 c 128,-1,6
 544 1433 544 1433 480 1433 c 1,7,-1
 480 1556 l 1,8,9
 594 1556 594 1556 674 1476 c 128,-1,10
 754 1396 754 1396 754 1282 c 0,11,12
 754 1167 754 1167 674 1087 c 128,-1,13
 594 1007 594 1007 480 1007 c 1,0,-1
EndSplineSet
Validated: 1
EndChar

StartChar: uni02BF
Encoding: 703 703 166
Width: 1233
VWidth: 2048
GlyphClass: 2
Flags: W
LayerCount: 3
Fore
SplineSet
754 1007 m 1,0,1
 638 1007 638 1007 558 1087 c 0,2,3
 480 1166 480 1166 480 1282 c 0,4,5
 480 1396 480 1396 558 1476 c 0,6,7
 638 1556 638 1556 754 1556 c 1,8,-1
 754 1433 l 1,9,10
 690 1433 690 1433 646 1389 c 128,-1,11
 602 1345 602 1345 602 1282 c 0,12,13
 602 1218 602 1218 646 1174 c 128,-1,14
 690 1130 690 1130 754 1130 c 1,15,-1
 754 1007 l 1,0,1
EndSplineSet
Validated: 1
EndChar

StartChar: uni02C0
Encoding: 704 704 167
Width: 1233
VWidth: 2048
GlyphClass: 2
Flags: W
LayerCount: 3
Fore
SplineSet
509 1357 m 1,0,-1
 549 1357 l 2,1,2
 670 1357 670 1357 724 1421 c 0,3,4
 760 1463 760 1463 760 1518 c 0,5,6
 760 1593 760 1593 724 1629 c 0,7,8
 663 1693 663 1693 549 1693 c 0,9,10
 498 1693 498 1693 449 1681 c 256,11,12
 400 1669 400 1669 350 1645 c 1,13,-1
 350 1741 l 1,14,15
 400 1761 400 1761 449 1770 c 0,16,17
 498 1780 498 1780 554 1780 c 0,18,19
 727 1780 727 1780 814 1692 c 0,20,21
 883 1622 883 1622 883 1518 c 0,22,23
 883 1424 883 1424 815 1359 c 0,24,25
 745 1292 745 1292 637 1275 c 1,26,-1
 637 910 l 1,27,-1
 510 910 l 1,28,-1
 509 1357 l 1,0,-1
EndSplineSet
Validated: 1
EndChar

StartChar: uni02C1
Encoding: 705 705 168
Width: 1233
VWidth: 2048
GlyphClass: 2
Flags: W
LayerCount: 3
Fore
SplineSet
723 1357 m 1,0,-1
 723 910 l 1,1,-1
 596 910 l 1,2,-1
 596 1275 l 1,3,4
 488 1292 488 1292 418 1359 c 0,5,6
 350 1424 350 1424 350 1518 c 0,7,8
 350 1622 350 1622 420 1692 c 0,9,10
 505 1780 505 1780 679 1780 c 0,11,12
 735 1780 735 1780 784 1770 c 0,13,14
 833 1761 833 1761 883 1741 c 1,15,-1
 883 1645 l 1,16,17
 834 1669 834 1669 784 1681 c 256,18,19
 734 1693 734 1693 684 1693 c 0,20,21
 570 1693 570 1693 509 1629 c 0,22,23
 473 1593 473 1593 473 1518 c 0,24,25
 473 1463 473 1463 509 1421 c 0,26,27
 563 1357 563 1357 684 1357 c 2,28,-1
 723 1357 l 1,0,-1
EndSplineSet
Validated: 1
EndChar

StartChar: circumflex
Encoding: 710 710 169
Width: 639
VWidth: 2048
GlyphClass: 2
Flags: W
LayerCount: 3
Fore
SplineSet
267 2428 m 5,0,-1
 371 2428 l 5,1,-1
 614 2092 l 5,2,-1
 510 2032 l 5,3,-1
 319 2303 l 5,4,-1
 114 2022 l 5,5,-1
 10 2082 l 5,6,-1
 267 2428 l 5,0,-1
EndSplineSet
Refer: 320 57346 S 1 0 0 1 259 2334 2
Refer: 320 57346 S 0.866025 0.5 -0.5 0.866025 539.909 1979.88 2
Refer: 320 57346 S 0.866025 -0.5 0.5 0.866025 -19.8324 2029.88 2
EndChar

StartChar: caron
Encoding: 711 711 170
Width: 1233
VWidth: 2048
GlyphClass: 2
Flags: W
LayerCount: 3
Fore
SplineSet
543 1262 m 1,0,-1
 297 1638 l 1,1,-1
 436 1638 l 1,2,-1
 616 1393 l 1,3,-1
 797 1638 l 1,4,-1
 936 1638 l 1,5,-1
 690 1262 l 1,6,-1
 543 1262 l 1,0,-1
EndSplineSet
Validated: 1
EndChar

StartChar: uni02C8
Encoding: 712 712 171
Width: 1233
VWidth: 2048
GlyphClass: 2
Flags: W
LayerCount: 3
Fore
SplineSet
684 1554 m 1,0,-1
 684 999 l 1,1,-1
 548 999 l 1,2,-1
 548 1554 l 1,3,-1
 684 1554 l 1,0,-1
EndSplineSet
Validated: 1
EndChar

StartChar: uni02C9
Encoding: 713 713 172
Width: 1233
VWidth: 2048
GlyphClass: 2
Flags: W
LayerCount: 3
Fore
SplineSet
317 1526 m 1,0,-1
 915 1526 l 1,1,-1
 915 1378 l 1,2,-1
 317 1378 l 1,3,-1
 317 1526 l 1,0,-1
EndSplineSet
Validated: 1
EndChar

StartChar: uni02CC
Encoding: 716 716 173
Width: 1233
VWidth: 2048
GlyphClass: 2
Flags: W
LayerCount: 3
Fore
SplineSet
684 252 m 1,0,-1
 684 -303 l 1,1,-1
 548 -303 l 1,2,-1
 548 252 l 1,3,-1
 684 252 l 1,0,-1
EndSplineSet
Validated: 1
EndChar

StartChar: uni02CD
Encoding: 717 717 174
Width: 1233
VWidth: 2048
GlyphClass: 2
Flags: W
LayerCount: 3
Fore
SplineSet
318 -209 m 1,0,-1
 916 -209 l 1,1,-1
 916 -357 l 1,2,-1
 318 -357 l 1,3,-1
 318 -209 l 1,0,-1
EndSplineSet
Validated: 1
EndChar

StartChar: uni02D0
Encoding: 720 720 175
Width: 1233
VWidth: 2048
GlyphClass: 2
Flags: W
LayerCount: 3
Fore
SplineSet
616 729 m 1,0,-1
 438 1059 l 1,1,-1
 795 1059 l 1,2,-1
 616 729 l 1,0,-1
616 330 m 1,3,-1
 795 0 l 1,4,-1
 438 0 l 1,5,-1
 616 330 l 1,3,-1
EndSplineSet
Validated: 1
EndChar

StartChar: uni02D1
Encoding: 721 721 176
Width: 1233
VWidth: 2048
GlyphClass: 2
Flags: W
LayerCount: 3
Fore
SplineSet
616 729 m 1,0,-1
 438 1059 l 1,1,-1
 795 1059 l 1,2,-1
 616 729 l 1,0,-1
EndSplineSet
Validated: 1
EndChar

StartChar: uni02D2
Encoding: 722 722 177
Width: 1233
VWidth: 2048
GlyphClass: 2
Flags: W
LayerCount: 3
Fore
SplineSet
480 510 m 5,0,-1
 480 633 l 5,1,2
 544 633 544 633 588 677 c 132,-1,3
 632 721 632 721 632 785 c 4,4,5
 632 848 632 848 588 892 c 132,-1,6
 544 936 544 936 480 936 c 5,7,-1
 480 1059 l 5,8,9
 594 1059 594 1059 674 979 c 132,-1,10
 754 899 754 899 754 785 c 4,11,12
 754 670 754 670 674 590 c 132,-1,13
 594 510 594 510 480 510 c 5,0,-1
EndSplineSet
Validated: 1
EndChar

StartChar: uni02D3
Encoding: 723 723 178
Width: 1233
VWidth: 2048
GlyphClass: 2
Flags: W
LayerCount: 3
Fore
SplineSet
754 510 m 1,0,1
 638 510 638 510 558 590 c 0,2,3
 480 670 480 670 480 785 c 256,4,5
 480 900 480 900 558 979 c 0,6,7
 638 1059 638 1059 754 1059 c 1,8,-1
 754 936 l 1,9,10
 690 936 690 936 646 892 c 128,-1,11
 602 848 602 848 602 785 c 0,12,13
 602 721 602 721 646 677 c 128,-1,14
 690 633 690 633 754 633 c 1,15,-1
 754 510 l 1,0,1
EndSplineSet
Validated: 1
EndChar

StartChar: uni02D6
Encoding: 726 726 179
Width: 1233
VWidth: 2048
GlyphClass: 2
Flags: W
LayerCount: 3
Fore
SplineSet
542 629 m 1,0,-1
 542 853 l 1,1,-1
 692 853 l 1,2,-1
 692 629 l 1,3,-1
 916 629 l 1,4,-1
 916 479 l 1,5,-1
 692 479 l 1,6,-1
 692 255 l 1,7,-1
 542 255 l 1,8,-1
 542 479 l 1,9,-1
 318 479 l 1,10,-1
 318 629 l 1,11,-1
 542 629 l 1,0,-1
EndSplineSet
Validated: 1
EndChar

StartChar: uni02D7
Encoding: 727 727 180
Width: 1233
VWidth: 2048
GlyphClass: 2
Flags: W
LayerCount: 3
Fore
SplineSet
842 479 m 1,0,-1
 392 479 l 1,1,-1
 392 629 l 1,2,-1
 842 629 l 1,3,-1
 842 479 l 1,0,-1
EndSplineSet
Validated: 1
EndChar

StartChar: breve
Encoding: 728 728 181
Width: 1233
VWidth: 2048
GlyphClass: 2
Flags: W
LayerCount: 3
Fore
SplineSet
303 1608 m 1,0,-1
 422 1608 l 1,1,2
 432 1533 432 1533 481 1495 c 0,3,4
 528 1458 528 1458 616 1458 c 0,5,6
 702 1458 702 1458 749 1495 c 0,7,8
 798 1533 798 1533 811 1608 c 1,9,-1
 930 1608 l 1,10,11
 919 1465 919 1465 840 1393 c 0,12,13
 760 1321 760 1321 616 1321 c 128,-1,14
 472 1321 472 1321 393 1393 c 128,-1,15
 314 1465 314 1465 303 1608 c 1,0,-1
EndSplineSet
Validated: 1
EndChar

StartChar: dotaccent
Encoding: 729 729 182
Width: 1233
VWidth: 2048
GlyphClass: 2
Flags: W
LayerCount: 3
Fore
SplineSet
513 1552 m 1,0,-1
 718 1552 l 1,1,-1
 718 1348 l 1,2,-1
 513 1348 l 1,3,-1
 513 1552 l 1,0,-1
EndSplineSet
Validated: 1
EndChar

StartChar: ring
Encoding: 730 730 183
Width: 1233
VWidth: 2048
GlyphClass: 2
Flags: W
LayerCount: 3
Fore
SplineSet
891 1524 m 0,0,1
 891 1410 891 1410 812 1329 c 0,2,3
 730 1249 730 1249 616 1249 c 0,4,5
 500 1249 500 1249 422 1329 c 0,6,7
 342 1408 342 1408 342 1524 c 0,8,9
 342 1641 342 1641 422 1718 c 1,10,11
 499 1798 499 1798 616 1798 c 0,12,13
 732 1798 732 1798 812 1718 c 0,14,15
 891 1639 891 1639 891 1524 c 0,0,1
768 1524 m 0,16,17
 768 1587 768 1587 724 1631 c 128,-1,18
 680 1675 680 1675 616 1675 c 0,19,20
 554 1675 554 1675 508 1632 c 1,21,22
 465 1586 465 1586 465 1524 c 0,23,24
 465 1459 465 1459 508 1416 c 0,25,26
 552 1372 552 1372 616 1372 c 128,-1,27
 680 1372 680 1372 724 1416 c 128,-1,28
 768 1460 768 1460 768 1524 c 0,16,17
EndSplineSet
Validated: 1
EndChar

StartChar: ogonek
Encoding: 731 731 184
Width: 1233
VWidth: 2048
GlyphClass: 2
Flags: W
LayerCount: 3
Fore
SplineSet
528 0 m 1,0,-1
 647 0 l 1,1,2
 604 -59 604 -59 580 -105 c 0,3,4
 559 -148 559 -148 559 -180 c 0,5,6
 559 -226 559 -226 586 -249 c 0,7,8
 615 -272 615 -272 668 -272 c 0,9,10
 703 -272 703 -272 731 -264 c 0,11,12
 757 -259 757 -259 793 -242 c 1,13,-1
 793 -375 l 1,14,15
 756 -386 756 -386 721 -390 c 0,16,17
 683 -395 683 -395 657 -395 c 0,18,19
 536 -395 536 -395 478 -352 c 0,20,21
 420 -307 420 -307 420 -215 c 0,22,23
 420 -169 420 -169 446 -114 c 0,24,25
 476 -58 476 -58 528 0 c 1,0,-1
EndSplineSet
Validated: 1
EndChar

StartChar: tilde
Encoding: 732 732 185
Width: 1233
VWidth: 2048
GlyphClass: 2
Flags: W
LayerCount: 3
Fore
SplineSet
612 1370 m 2,0,-1
 555 1425 l 2,1,2
 534 1444 534 1444 518 1454 c 0,3,4
 501 1464 501 1464 487 1464 c 0,5,6
 449 1464 449 1464 431 1427 c 0,7,8
 412 1388 412 1388 411 1309 c 1,9,-1
 287 1309 l 1,10,11
 289 1444 289 1444 339 1517 c 0,12,13
 390 1591 390 1591 481 1591 c 0,14,15
 519 1591 519 1591 552 1577 c 0,16,17
 582 1564 582 1564 621 1530 c 2,18,-1
 678 1475 l 2,19,20
 701 1453 701 1453 716 1446 c 0,21,22
 730 1436 730 1436 745 1436 c 0,23,24
 784 1436 784 1436 802 1473 c 0,25,26
 819 1509 819 1509 821 1591 c 1,27,-1
 946 1591 l 1,28,29
 944 1456 944 1456 894 1383 c 0,30,31
 843 1309 843 1309 752 1309 c 0,32,33
 714 1309 714 1309 681 1323 c 0,34,35
 651 1336 651 1336 612 1370 c 2,0,-1
EndSplineSet
Validated: 1
EndChar

StartChar: hungarumlaut
Encoding: 733 733 186
Width: 1233
VWidth: 2048
GlyphClass: 2
Flags: W
LayerCount: 3
Fore
SplineSet
535 1638 m 1,0,-1
 705 1638 l 1,1,-1
 481 1262 l 1,2,-1
 344 1262 l 1,3,-1
 535 1638 l 1,0,-1
868 1638 m 1,4,-1
 1047 1638 l 1,5,-1
 799 1262 l 1,6,-1
 664 1262 l 1,7,-1
 868 1638 l 1,4,-1
EndSplineSet
Validated: 1
EndChar

StartChar: uni02DE
Encoding: 734 734 187
Width: 1233
VWidth: 2048
GlyphClass: 2
Flags: W
LayerCount: 3
Fore
SplineSet
-351 868 m 1,0,-1
 268 1032 l 1,1,-1
 452 1032 l 1,2,-1
 452 884 l 2,3,4
 452 732 452 732 490 682 c 0,5,6
 528 634 528 634 633 634 c 2,7,-1
 883 634 l 1,8,-1
 883 478 l 1,9,-1
 612 478 l 2,10,11
 437 478 437 478 350 574 c 0,12,13
 268 663 268 663 268 864 c 1,14,-1
 -350 702 l 1,15,-1
 -351 868 l 1,0,-1
EndSplineSet
Validated: 1
EndChar

StartChar: uni02E0
Encoding: 736 736 188
Width: 1233
VWidth: 2048
GlyphClass: 2
Flags: W
LayerCount: 3
Fore
SplineSet
693 988 m 1,0,1
 871 740 871 740 871 559 c 0,2,3
 871 430 871 430 629 427 c 0,4,5
 364 424 364 424 362 559 c 0,6,7
 361 749 361 749 543 992 c 1,8,-1
 293 1295 l 1,9,-1
 429 1295 l 1,10,-1
 620 1071 l 1,11,-1
 804 1295 l 1,12,-1
 940 1295 l 1,13,-1
 693 988 l 1,0,1
616 921 m 1,14,15
 477 748 477 748 480 595 c 0,16,17
 482 518 482 518 616 518 c 0,18,19
 744 518 744 518 744 595 c 0,20,21
 745 734 745 734 616 921 c 1,14,15
EndSplineSet
Validated: 33
EndChar

StartChar: uni02E1
Encoding: 737 737 189
Width: 1233
VWidth: 2048
GlyphClass: 2
Flags: W
LayerCount: 3
Fore
SplineSet
644 895 m 2,0,1
 644 825 644 825 672 790 c 0,2,3
 701 755 701 755 756 755 c 2,4,-1
 892 755 l 1,5,-1
 892 668 l 1,6,-1
 746 668 l 2,7,8
 642 668 642 668 585 728 c 0,9,10
 528 787 528 787 528 895 c 2,11,-1
 528 1465 l 1,12,-1
 342 1465 l 1,13,-1
 342 1546 l 1,14,-1
 644 1546 l 1,15,-1
 644 895 l 2,0,1
EndSplineSet
Validated: 1
EndChar

StartChar: uni02E2
Encoding: 738 738 190
Width: 1233
VWidth: 2048
GlyphClass: 2
Flags: W
LayerCount: 3
Fore
SplineSet
848 1293 m 1,0,-1
 848 1196 l 1,1,2
 798 1218 798 1218 746 1229 c 0,3,4
 691 1240 691 1240 637 1240 c 0,5,6
 550 1240 550 1240 507 1216 c 0,7,8
 464 1194 464 1194 464 1146 c 0,9,10
 464 1109 464 1109 495 1090 c 0,11,12
 527 1069 527 1069 619 1051 c 2,13,-1
 659 1043 l 2,14,15
 785 1019 785 1019 834 977 c 0,16,17
 886 934 886 934 886 857 c 0,18,19
 886 770 886 770 808 719 c 0,20,21
 732 668 732 668 594 668 c 0,22,23
 536 668 536 668 476 678 c 0,24,25
 403 691 403 691 347 707 c 1,26,-1
 347 814 l 1,27,28
 412 784 412 784 474 769 c 256,29,30
 536 754 536 754 597 754 c 0,31,32
 680 754 680 754 723 779 c 0,33,34
 767 805 767 805 767 849 c 0,35,36
 767 891 767 891 735 914 c 0,37,38
 704 935 704 935 596 957 c 2,39,-1
 555 965 l 2,40,41
 448 986 448 986 400 1028 c 0,42,43
 352 1068 352 1068 352 1142 c 0,44,45
 352 1229 352 1229 422 1278 c 0,46,47
 493 1327 493 1327 623 1327 c 0,48,49
 687 1327 687 1327 744 1318 c 0,50,51
 796 1311 796 1311 848 1293 c 1,0,-1
EndSplineSet
Validated: 1
EndChar

StartChar: uni02E3
Encoding: 739 739 191
Width: 1233
VWidth: 2048
GlyphClass: 2
Flags: W
LayerCount: 3
Fore
SplineSet
945 1295 m 1,0,-1
 690 990 l 1,1,-1
 959 668 l 1,2,-1
 822 668 l 1,3,-1
 616 914 l 1,4,-1
 411 668 l 1,5,-1
 274 668 l 1,6,-1
 548 996 l 1,7,-1
 298 1295 l 1,8,-1
 434 1295 l 1,9,-1
 622 1072 l 1,10,-1
 809 1295 l 1,11,-1
 945 1295 l 1,0,-1
EndSplineSet
Validated: 1
EndChar

StartChar: uni02E4
Encoding: 740 740 192
Width: 1233
VWidth: 2048
GlyphClass: 2
Flags: W
LayerCount: 3
Fore
SplineSet
723 1115 m 1,0,-1
 723 668 l 1,1,-1
 596 668 l 1,2,-1
 596 1033 l 1,3,4
 488 1050 488 1050 418 1117 c 0,5,6
 350 1182 350 1182 350 1276 c 0,7,8
 350 1380 350 1380 420 1450 c 0,9,10
 505 1538 505 1538 679 1538 c 0,11,12
 735 1538 735 1538 784 1528 c 0,13,14
 833 1519 833 1519 883 1499 c 1,15,-1
 883 1403 l 1,16,17
 834 1427 834 1427 784 1439 c 256,18,19
 734 1451 734 1451 684 1451 c 0,20,21
 570 1451 570 1451 509 1387 c 0,22,23
 473 1351 473 1351 473 1276 c 0,24,25
 473 1221 473 1221 509 1179 c 0,26,27
 563 1115 563 1115 684 1115 c 2,28,-1
 723 1115 l 1,0,-1
EndSplineSet
Validated: 1
EndChar

StartChar: uni02E5
Encoding: 741 741 193
Width: 1233
VWidth: 2048
GlyphClass: 2
Flags: W
LayerCount: 3
Fore
SplineSet
797 0 m 1,0,-1
 797 1232 l 1,1,-1
 300 1232 l 1,2,-1
 300 1368 l 1,3,-1
 933 1368 l 1,4,-1
 933 0 l 1,5,-1
 797 0 l 1,0,-1
EndSplineSet
Validated: 1
EndChar

StartChar: uni02E6
Encoding: 742 742 194
Width: 1233
VWidth: 2048
GlyphClass: 2
Flags: W
LayerCount: 3
Fore
SplineSet
797 0 m 1,0,-1
 797 924 l 1,1,-1
 300 924 l 1,2,-1
 300 1060 l 1,3,-1
 797 1060 l 1,4,-1
 797 1368 l 1,5,-1
 933 1368 l 1,6,-1
 933 0 l 1,7,-1
 797 0 l 1,0,-1
EndSplineSet
Validated: 1
EndChar

StartChar: uni02E7
Encoding: 743 743 195
Width: 1233
VWidth: 2048
GlyphClass: 2
Flags: W
LayerCount: 3
Fore
SplineSet
797 752 m 1,0,-1
 797 1368 l 1,1,-1
 933 1368 l 1,2,-1
 933 0 l 1,3,-1
 797 0 l 1,4,-1
 797 616 l 1,5,-1
 300 616 l 1,6,-1
 300 752 l 1,7,-1
 797 752 l 1,0,-1
EndSplineSet
Validated: 1
EndChar

StartChar: uni02E8
Encoding: 744 744 196
Width: 1233
VWidth: 2048
GlyphClass: 2
Flags: W
LayerCount: 3
Fore
SplineSet
797 444 m 1,0,-1
 797 1368 l 1,1,-1
 933 1368 l 1,2,-1
 933 0 l 1,3,-1
 797 0 l 1,4,-1
 797 308 l 1,5,-1
 300 308 l 1,6,-1
 300 444 l 1,7,-1
 797 444 l 1,0,-1
EndSplineSet
Validated: 1
EndChar

StartChar: uni02E9
Encoding: 745 745 197
Width: 1233
VWidth: 2048
GlyphClass: 2
Flags: W
LayerCount: 3
Fore
SplineSet
797 136 m 1,0,-1
 797 1368 l 1,1,-1
 933 1368 l 1,2,-1
 933 0 l 1,3,-1
 300 0 l 1,4,-1
 300 136 l 1,5,-1
 797 136 l 1,0,-1
EndSplineSet
Validated: 1
EndChar

StartChar: uni02EE
Encoding: 750 750 198
Width: 1233
VWidth: 2048
GlyphClass: 2
Flags: W
LayerCount: 3
Fore
SplineSet
768 1556 m 1,0,-1
 1020 1556 l 1,1,-1
 1020 1350 l 1,2,-1
 823 967 l 1,3,-1
 670 967 l 1,4,-1
 768 1350 l 1,5,-1
 768 1556 l 1,0,-1
309 1556 m 1,6,-1
 561 1556 l 1,7,-1
 561 1350 l 1,8,-1
 365 967 l 1,9,-1
 211 967 l 1,10,-1
 309 1350 l 1,11,-1
 309 1556 l 1,6,-1
EndSplineSet
Validated: 1
EndChar

StartChar: uni02F3
Encoding: 755 755 199
Width: 1233
VWidth: 2048
GlyphClass: 2
Flags: W
LayerCount: 3
Fore
SplineSet
836 -282 m 128,-1,1
 836 -374 836 -374 772 -438 c 0,2,3
 709 -502 709 -502 616 -502 c 0,4,5
 524 -502 524 -502 460 -438 c 0,6,7
 397 -374 397 -374 397 -282 c 128,-1,8
 397 -190 397 -190 460 -126 c 0,9,10
 524 -63 524 -63 616 -63 c 0,11,12
 709 -63 709 -63 772 -126 c 0,13,0
 836 -190 836 -190 836 -282 c 128,-1,1
738 -282 m 0,14,15
 738 -232 738 -232 702 -196 c 0,16,17
 667 -161 667 -161 616 -161 c 128,-1,18
 565 -161 565 -161 530 -196 c 128,-1,19
 495 -231 495 -231 495 -282 c 0,20,21
 495 -334 495 -334 530 -369 c 128,-1,22
 565 -404 565 -404 616 -404 c 0,23,24
 668 -404 668 -404 702 -368 c 0,25,26
 738 -334 738 -334 738 -282 c 0,14,15
EndSplineSet
Validated: 1
EndChar

StartChar: gravecomb
Encoding: 768 768 200
Width: 1233
VWidth: 2048
GlyphClass: 2
Flags: W
LayerCount: 3
Fore
SplineSet
477 1638 m 1,0,-1
 758 1262 l 1,1,-1
 604 1262 l 1,2,-1
 279 1638 l 1,3,-1
 477 1638 l 1,0,-1
EndSplineSet
Validated: 1
EndChar

StartChar: acutecomb
Encoding: 769 769 201
Width: 1233
VWidth: 2048
GlyphClass: 2
Flags: W
LayerCount: 3
Fore
SplineSet
756 1638 m 1,0,-1
 954 1638 l 1,1,-1
 629 1262 l 1,2,-1
 475 1262 l 1,3,-1
 756 1638 l 1,0,-1
EndSplineSet
Validated: 1
EndChar

StartChar: uni0302
Encoding: 770 770 202
Width: 1233
VWidth: 2048
GlyphClass: 2
Flags: W
LayerCount: 3
Fore
SplineSet
543 1638 m 1,0,-1
 690 1638 l 1,1,-1
 936 1262 l 1,2,-1
 797 1262 l 1,3,-1
 616 1507 l 1,4,-1
 436 1262 l 1,5,-1
 297 1262 l 1,6,-1
 543 1638 l 1,0,-1
EndSplineSet
Validated: 1
EndChar

StartChar: tildecomb
Encoding: 771 771 203
Width: 1233
VWidth: 2048
GlyphClass: 2
Flags: W
LayerCount: 3
Fore
SplineSet
612 1370 m 2,0,-1
 555 1425 l 2,1,2
 534 1444 534 1444 518 1454 c 0,3,4
 501 1464 501 1464 487 1464 c 0,5,6
 449 1464 449 1464 431 1427 c 0,7,8
 412 1388 412 1388 411 1309 c 1,9,-1
 287 1309 l 1,10,11
 289 1444 289 1444 339 1517 c 0,12,13
 390 1591 390 1591 481 1591 c 0,14,15
 519 1591 519 1591 552 1577 c 0,16,17
 582 1564 582 1564 621 1530 c 2,18,-1
 678 1475 l 2,19,20
 701 1453 701 1453 716 1446 c 0,21,22
 730 1436 730 1436 745 1436 c 0,23,24
 784 1436 784 1436 802 1473 c 0,25,26
 819 1509 819 1509 821 1591 c 1,27,-1
 946 1591 l 1,28,29
 944 1456 944 1456 894 1383 c 0,30,31
 843 1309 843 1309 752 1309 c 0,32,33
 714 1309 714 1309 681 1323 c 0,34,35
 651 1336 651 1336 612 1370 c 2,0,-1
EndSplineSet
Validated: 1
EndChar

StartChar: uni0304
Encoding: 772 772 204
Width: 1233
VWidth: 2048
GlyphClass: 2
Flags: W
LayerCount: 3
Fore
SplineSet
317 1526 m 1,0,-1
 915 1526 l 1,1,-1
 915 1378 l 1,2,-1
 317 1378 l 1,3,-1
 317 1526 l 1,0,-1
EndSplineSet
Validated: 1
EndChar

StartChar: uni0305
Encoding: 773 773 205
Width: 1233
VWidth: 2048
GlyphClass: 2
Flags: W
LayerCount: 3
Fore
SplineSet
1233 1547 m 1,0,-1
 1233 1467 l 1,1,-1
 0 1467 l 1,2,-1
 0 1547 l 1,3,-1
 1233 1547 l 1,0,-1
EndSplineSet
Validated: 1
EndChar

StartChar: uni0306
Encoding: 774 774 206
Width: 1233
VWidth: 2048
GlyphClass: 2
Flags: W
LayerCount: 3
Fore
SplineSet
303 1608 m 1,0,-1
 422 1608 l 1,1,2
 432 1533 432 1533 481 1495 c 0,3,4
 528 1458 528 1458 616 1458 c 0,5,6
 702 1458 702 1458 749 1495 c 0,7,8
 798 1533 798 1533 811 1608 c 1,9,-1
 930 1608 l 1,10,11
 919 1465 919 1465 840 1393 c 0,12,13
 760 1321 760 1321 616 1321 c 128,-1,14
 472 1321 472 1321 393 1393 c 128,-1,15
 314 1465 314 1465 303 1608 c 1,0,-1
EndSplineSet
Validated: 1
EndChar

StartChar: uni0307
Encoding: 775 775 207
Width: 1233
VWidth: 2048
GlyphClass: 2
Flags: W
LayerCount: 3
Fore
SplineSet
513 1552 m 1,0,-1
 718 1552 l 1,1,-1
 718 1348 l 1,2,-1
 513 1348 l 1,3,-1
 513 1552 l 1,0,-1
EndSplineSet
Validated: 1
EndChar

StartChar: uni0308
Encoding: 776 776 208
Width: 1233
VWidth: 2048
GlyphClass: 2
Flags: W
LayerCount: 3
Fore
SplineSet
319 1552 m 1,0,-1
 522 1552 l 1,1,-1
 522 1350 l 1,2,-1
 319 1350 l 1,3,-1
 319 1552 l 1,0,-1
711 1552 m 1,4,-1
 913 1552 l 1,5,-1
 913 1350 l 1,6,-1
 711 1350 l 1,7,-1
 711 1552 l 1,4,-1
EndSplineSet
Validated: 1
EndChar

StartChar: hookabovecomb
Encoding: 777 777 209
Width: 1233
VWidth: 2048
GlyphClass: 2
Flags: W
LayerCount: 3
Fore
SplineSet
586 1734 m 0,0,1
 815 1734 815 1734 823 1564 c 0,2,3
 824 1561 824 1561 824 1554 c 0,4,5
 824 1489 824 1489 796 1454 c 0,6,7
 747 1387 747 1387 694 1354 c 1,8,-1
 694 1266 l 1,9,-1
 546 1266 l 1,10,-1
 546 1374 l 1,11,12
 613 1396 613 1396 662 1444 c 0,13,14
 684 1463 684 1463 684 1517 c 0,15,16
 684 1611 684 1611 564 1611 c 0,17,18
 476 1611 476 1611 410 1579 c 1,19,-1
 410 1710 l 1,20,21
 496 1734 496 1734 586 1734 c 0,0,1
EndSplineSet
Validated: 1
EndChar

StartChar: uni030A
Encoding: 778 778 210
Width: 1233
VWidth: 2048
GlyphClass: 2
Flags: W
LayerCount: 3
Fore
SplineSet
891 1524 m 0,0,1
 891 1410 891 1410 812 1329 c 0,2,3
 730 1249 730 1249 616 1249 c 0,4,5
 500 1249 500 1249 422 1329 c 0,6,7
 342 1408 342 1408 342 1524 c 0,8,9
 342 1641 342 1641 422 1718 c 1,10,11
 499 1798 499 1798 616 1798 c 0,12,13
 732 1798 732 1798 812 1718 c 0,14,15
 891 1639 891 1639 891 1524 c 0,0,1
768 1524 m 0,16,17
 768 1587 768 1587 724 1631 c 128,-1,18
 680 1675 680 1675 616 1675 c 0,19,20
 554 1675 554 1675 508 1632 c 1,21,22
 465 1586 465 1586 465 1524 c 0,23,24
 465 1459 465 1459 508 1416 c 0,25,26
 552 1372 552 1372 616 1372 c 128,-1,27
 680 1372 680 1372 724 1416 c 128,-1,28
 768 1460 768 1460 768 1524 c 0,16,17
EndSplineSet
Validated: 1
EndChar

StartChar: uni030B
Encoding: 779 779 211
Width: 1233
VWidth: 2048
GlyphClass: 2
Flags: W
LayerCount: 3
Fore
SplineSet
535 1638 m 1,0,-1
 705 1638 l 1,1,-1
 481 1262 l 1,2,-1
 344 1262 l 1,3,-1
 535 1638 l 1,0,-1
868 1638 m 1,4,-1
 1047 1638 l 1,5,-1
 799 1262 l 1,6,-1
 664 1262 l 1,7,-1
 868 1638 l 1,4,-1
EndSplineSet
Validated: 1
EndChar

StartChar: uni030C
Encoding: 780 780 212
Width: 1233
VWidth: 2048
GlyphClass: 2
Flags: W
LayerCount: 3
Fore
SplineSet
543 1262 m 1,0,-1
 297 1638 l 1,1,-1
 436 1638 l 1,2,-1
 616 1393 l 1,3,-1
 797 1638 l 1,4,-1
 936 1638 l 1,5,-1
 690 1262 l 1,6,-1
 543 1262 l 1,0,-1
EndSplineSet
Validated: 1
EndChar

StartChar: uni030D
Encoding: 781 781 213
Width: 1233
VWidth: 2048
GlyphClass: 2
Flags: W
LayerCount: 3
Fore
SplineSet
682 1706 m 1,0,-1
 682 1262 l 1,1,-1
 546 1262 l 1,2,-1
 546 1706 l 1,3,-1
 682 1706 l 1,0,-1
EndSplineSet
Validated: 1
EndChar

StartChar: uni030E
Encoding: 782 782 214
Width: 1233
VWidth: 2048
GlyphClass: 2
Flags: W
LayerCount: 3
Fore
SplineSet
886 1706 m 1,0,-1
 886 1262 l 1,1,-1
 750 1262 l 1,2,-1
 750 1706 l 1,3,-1
 886 1706 l 1,0,-1
478 1706 m 1,4,-1
 478 1262 l 1,5,-1
 342 1262 l 1,6,-1
 342 1706 l 1,7,-1
 478 1706 l 1,4,-1
EndSplineSet
Validated: 1
EndChar

StartChar: uni030F
Encoding: 783 783 215
Width: 1233
VWidth: 2048
GlyphClass: 2
Flags: W
LayerCount: 3
Fore
SplineSet
388 1638 m 1,0,-1
 593 1262 l 1,1,-1
 458 1262 l 1,2,-1
 210 1638 l 1,3,-1
 388 1638 l 1,0,-1
722 1638 m 1,4,-1
 912 1262 l 1,5,-1
 775 1262 l 1,6,-1
 552 1638 l 1,7,-1
 722 1638 l 1,4,-1
EndSplineSet
Validated: 1
EndChar

StartChar: uni0310
Encoding: 784 784 216
Width: 1233
VWidth: 2048
GlyphClass: 2
Flags: W
LayerCount: 3
Fore
SplineSet
513 1756 m 1,0,-1
 718 1756 l 1,1,-1
 718 1552 l 1,2,-1
 513 1552 l 1,3,-1
 513 1756 l 1,0,-1
303 1608 m 1,4,-1
 422 1608 l 1,5,6
 432 1533 432 1533 481 1495 c 0,7,8
 528 1458 528 1458 616 1458 c 0,9,10
 702 1458 702 1458 749 1495 c 0,11,12
 798 1533 798 1533 811 1608 c 1,13,-1
 930 1608 l 1,14,15
 919 1465 919 1465 840 1393 c 0,16,17
 760 1321 760 1321 616 1321 c 128,-1,18
 472 1321 472 1321 393 1393 c 128,-1,19
 314 1465 314 1465 303 1608 c 1,4,-1
EndSplineSet
Validated: 1
EndChar

StartChar: uni0311
Encoding: 785 785 217
Width: 1233
VWidth: 2048
GlyphClass: 2
Flags: W
LayerCount: 3
Fore
SplineSet
303 1321 m 1,0,1
 314 1464 314 1464 393 1536 c 128,-1,2
 472 1608 472 1608 616 1608 c 128,-1,3
 760 1608 760 1608 840 1536 c 0,4,5
 919 1464 919 1464 930 1321 c 1,6,-1
 811 1321 l 1,7,8
 798 1396 798 1396 749 1434 c 0,9,10
 702 1471 702 1471 616 1471 c 0,11,12
 528 1471 528 1471 481 1434 c 0,13,14
 432 1396 432 1396 422 1321 c 1,15,-1
 303 1321 l 1,0,1
EndSplineSet
Validated: 1
EndChar

StartChar: uni0312
Encoding: 786 786 218
Width: 1233
VWidth: 2048
GlyphClass: 2
Flags: W
LayerCount: 3
Fore
SplineSet
708 967 m 1,0,-1
 469 967 l 1,1,-1
 656 1312 l 1,2,-1
 802 1312 l 1,3,-1
 708 967 l 1,0,-1
EndSplineSet
Validated: 1
EndChar

StartChar: uni0313
Encoding: 787 787 219
Width: 1233
VWidth: 2048
GlyphClass: 2
Flags: W
LayerCount: 3
Fore
SplineSet
737 1475 m 2,0,1
 737 1218 737 1218 496 1218 c 1,2,-1
 496 1341 l 1,3,4
 608 1338 608 1338 608 1475 c 1,5,-1
 496 1475 l 1,6,-1
 496 1729 l 1,7,-1
 737 1729 l 1,8,-1
 737 1475 l 2,0,1
EndSplineSet
Validated: 33
EndChar

StartChar: uni0314
Encoding: 788 788 220
Width: 1233
VWidth: 2048
GlyphClass: 2
Flags: W
LayerCount: 3
Fore
SplineSet
496 1475 m 2,0,-1
 496 1729 l 1,1,-1
 737 1729 l 1,2,-1
 737 1475 l 1,3,-1
 625 1475 l 1,4,5
 625 1341 625 1341 737 1341 c 1,6,-1
 737 1218 l 1,7,8
 496 1218 496 1218 496 1475 c 2,0,-1
EndSplineSet
Validated: 1
EndChar

StartChar: uni0315
Encoding: 789 789 221
Width: 1233
VWidth: 2048
GlyphClass: 2
Flags: W
LayerCount: 3
Fore
SplineSet
544 1638 m 1,0,-1
 742 1638 l 1,1,-1
 629 1262 l 1,2,-1
 475 1262 l 1,3,-1
 544 1638 l 1,0,-1
EndSplineSet
Validated: 1
EndChar

StartChar: uni0316
Encoding: 790 790 222
Width: 1233
VWidth: 2048
GlyphClass: 2
Flags: W
LayerCount: 3
Fore
SplineSet
575 -208 m 1,0,-1
 856 -584 l 1,1,-1
 702 -584 l 1,2,-1
 377 -208 l 1,3,-1
 575 -208 l 1,0,-1
EndSplineSet
Validated: 1
EndChar

StartChar: uni0317
Encoding: 791 791 223
Width: 1233
VWidth: 2048
GlyphClass: 2
Flags: W
LayerCount: 3
Fore
SplineSet
658 -208 m 1,0,-1
 856 -208 l 1,1,-1
 531 -584 l 1,2,-1
 377 -584 l 1,3,-1
 658 -208 l 1,0,-1
EndSplineSet
Validated: 1
EndChar

StartChar: uni0318
Encoding: 792 792 224
Width: 1233
VWidth: 2048
GlyphClass: 2
Flags: W
LayerCount: 3
Fore
SplineSet
588 -454 m 1,0,-1
 588 -277 l 1,1,-1
 724 -277 l 1,2,-1
 724 -767 l 1,3,-1
 588 -767 l 1,4,-1
 588 -590 l 1,5,-1
 412 -590 l 1,6,-1
 412 -454 l 1,7,-1
 588 -454 l 1,0,-1
EndSplineSet
Validated: 1
EndChar

StartChar: uni0319
Encoding: 793 793 225
Width: 1233
VWidth: 2048
GlyphClass: 2
Flags: W
LayerCount: 3
Fore
SplineSet
596 -590 m 1,0,-1
 596 -767 l 1,1,-1
 460 -767 l 1,2,-1
 460 -277 l 1,3,-1
 596 -277 l 1,4,-1
 596 -454 l 1,5,-1
 772 -454 l 1,6,-1
 772 -590 l 1,7,-1
 596 -590 l 1,0,-1
EndSplineSet
Validated: 1
EndChar

StartChar: uni031A
Encoding: 794 794 226
Width: 1233
VWidth: 2048
GlyphClass: 2
Flags: W
LayerCount: 3
Fore
SplineSet
726 1768 m 5,0,-1
 372 1768 l 5,1,-1
 372 1904 l 5,2,-1
 862 1904 l 5,3,-1
 862 1414 l 5,4,-1
 726 1414 l 5,5,-1
 726 1768 l 5,0,-1
EndSplineSet
Validated: 1
EndChar

StartChar: uni031B
Encoding: 795 795 227
Width: 1233
VWidth: 2048
GlyphClass: 2
Flags: W
LayerCount: 3
Fore
SplineSet
419 872 m 1,0,-1
 419 991 l 1,1,2
 478 948 478 948 524 924 c 0,3,4
 568 903 568 903 599 903 c 0,5,6
 646 903 646 903 668 930 c 0,7,8
 691 959 691 959 691 1012 c 0,9,10
 691 1038 691 1038 684 1075 c 0,11,12
 674 1109 674 1109 661 1137 c 1,13,-1
 794 1137 l 1,14,15
 804 1100 804 1100 809 1065 c 0,16,17
 814 1027 814 1027 814 1001 c 0,18,19
 814 878 814 878 770 822 c 0,20,21
 728 764 728 764 634 764 c 0,22,23
 586 764 586 764 534 790 c 0,24,25
 480 817 480 817 419 872 c 1,0,-1
EndSplineSet
Validated: 1
EndChar

StartChar: uni031C
Encoding: 796 796 228
Width: 1233
VWidth: 2048
GlyphClass: 2
Flags: W
LayerCount: 3
Fore
SplineSet
726 -404 m 1,0,-1
 726 -502 l 1,1,2
 633 -502 633 -502 570 -438 c 0,3,4
 506 -374 506 -374 506 -282 c 128,-1,5
 506 -190 506 -190 570 -126 c 0,6,7
 633 -63 633 -63 726 -63 c 1,8,-1
 726 -161 l 1,9,10
 675 -161 675 -161 640 -196 c 0,11,12
 604 -232 604 -232 604 -282 c 0,13,14
 604 -334 604 -334 640 -368 c 0,15,16
 674 -404 674 -404 726 -404 c 1,0,-1
EndSplineSet
Validated: 1
EndChar

StartChar: uni031D
Encoding: 797 797 229
Width: 1233
VWidth: 2048
GlyphClass: 2
Flags: W
LayerCount: 3
Fore
SplineSet
667 -454 m 1,0,-1
 844 -454 l 1,1,-1
 844 -590 l 1,2,-1
 354 -590 l 1,3,-1
 354 -454 l 1,4,-1
 531 -454 l 1,5,-1
 531 -277 l 1,6,-1
 667 -277 l 1,7,-1
 667 -454 l 1,0,-1
EndSplineSet
Validated: 1
EndChar

StartChar: uni031E
Encoding: 798 798 230
Width: 1233
VWidth: 2048
GlyphClass: 2
Flags: W
LayerCount: 3
Fore
SplineSet
527 -413 m 1,0,-1
 350 -413 l 1,1,-1
 350 -277 l 1,2,-1
 840 -277 l 1,3,-1
 840 -413 l 1,4,-1
 663 -413 l 1,5,-1
 663 -590 l 1,6,-1
 527 -590 l 1,7,-1
 527 -413 l 1,0,-1
EndSplineSet
Validated: 1
EndChar

StartChar: uni031F
Encoding: 799 799 231
Width: 1233
VWidth: 2048
GlyphClass: 2
Flags: W
LayerCount: 3
Fore
SplineSet
528 -590 m 1,0,-1
 351 -590 l 1,1,-1
 351 -454 l 1,2,-1
 528 -454 l 1,3,-1
 528 -277 l 1,4,-1
 664 -277 l 1,5,-1
 664 -454 l 1,6,-1
 841 -454 l 1,7,-1
 841 -590 l 1,8,-1
 664 -590 l 1,9,-1
 664 -767 l 1,10,-1
 528 -767 l 1,11,-1
 528 -590 l 1,0,-1
EndSplineSet
Validated: 1
EndChar

StartChar: uni0320
Encoding: 800 800 232
Width: 1233
VWidth: 2048
GlyphClass: 2
Flags: W
LayerCount: 3
Fore
SplineSet
372 -413 m 1,0,-1
 372 -277 l 1,1,-1
 862 -277 l 1,2,-1
 862 -413 l 1,3,-1
 372 -413 l 1,0,-1
EndSplineSet
Validated: 1
EndChar

StartChar: uni0321
Encoding: 801 801 233
Width: 1233
VWidth: 2048
GlyphClass: 2
Flags: W
LayerCount: 3
Fore
SplineSet
1051 128 m 1,0,-1
 1051 -20 l 2,1,2
 1051 -214 1051 -214 962 -320 c 0,3,4
 872 -426 872 -426 707 -426 c 2,5,-1
 502 -426 l 1,6,-1
 502 -270 l 1,7,-1
 687 -270 l 2,8,9
 777 -270 777 -270 822 -208 c 0,10,11
 866 -146 866 -146 866 -20 c 2,12,-1
 866 128 l 1,13,-1
 1051 128 l 1,0,-1
EndSplineSet
Validated: 1
EndChar

StartChar: uni0322
Encoding: 802 802 234
Width: 1233
VWidth: 2048
GlyphClass: 2
Flags: W
LayerCount: 3
Fore
SplineSet
182 128 m 5,0,-1
 367 128 l 5,1,-1
 367 -20 l 6,2,3
 367 -146 367 -146 411 -208 c 4,4,5
 456 -270 456 -270 546 -270 c 6,6,-1
 731 -270 l 5,7,-1
 731 -426 l 5,8,-1
 526 -426 l 6,9,10
 361 -426 361 -426 271 -320 c 4,11,12
 182 -214 182 -214 182 -20 c 6,13,-1
 182 128 l 5,0,-1
EndSplineSet
Validated: 1
EndChar

StartChar: dotbelowcomb
Encoding: 803 803 235
Width: 1233
VWidth: 2048
GlyphClass: 2
Flags: W
LayerCount: 3
Fore
SplineSet
513 -209 m 1,0,-1
 718 -209 l 1,1,-1
 718 -413 l 1,2,-1
 513 -413 l 1,3,-1
 513 -209 l 1,0,-1
EndSplineSet
Validated: 1
EndChar

StartChar: uni0324
Encoding: 804 804 236
Width: 1233
VWidth: 2048
GlyphClass: 2
Flags: W
LayerCount: 3
Fore
SplineSet
320 -210 m 1,0,-1
 522 -210 l 1,1,-1
 522 -412 l 1,2,-1
 320 -412 l 1,3,-1
 320 -210 l 1,0,-1
712 -210 m 1,4,-1
 914 -210 l 1,5,-1
 914 -412 l 1,6,-1
 712 -412 l 1,7,-1
 712 -210 l 1,4,-1
EndSplineSet
Validated: 1
EndChar

StartChar: uni0325
Encoding: 805 805 237
Width: 1233
VWidth: 2048
GlyphClass: 2
Flags: W
LayerCount: 3
Fore
SplineSet
836 -282 m 128,-1,1
 836 -374 836 -374 772 -438 c 0,2,3
 709 -502 709 -502 616 -502 c 0,4,5
 524 -502 524 -502 460 -438 c 0,6,7
 397 -374 397 -374 397 -282 c 128,-1,8
 397 -190 397 -190 460 -126 c 0,9,10
 524 -63 524 -63 616 -63 c 0,11,12
 709 -63 709 -63 772 -126 c 0,13,0
 836 -190 836 -190 836 -282 c 128,-1,1
738 -282 m 0,14,15
 738 -232 738 -232 702 -196 c 0,16,17
 667 -161 667 -161 616 -161 c 128,-1,18
 565 -161 565 -161 530 -196 c 128,-1,19
 495 -231 495 -231 495 -282 c 0,20,21
 495 -334 495 -334 530 -369 c 128,-1,22
 565 -404 565 -404 616 -404 c 0,23,24
 668 -404 668 -404 702 -368 c 0,25,26
 738 -334 738 -334 738 -282 c 0,14,15
EndSplineSet
Validated: 1
EndChar

StartChar: uni0326
Encoding: 806 806 238
Width: 1233
VWidth: 2048
GlyphClass: 2
Flags: W
LayerCount: 3
Fore
SplineSet
502 -197 m 1,0,-1
 741 -197 l 1,1,-1
 554 -542 l 1,2,-1
 408 -542 l 1,3,-1
 502 -197 l 1,0,-1
EndSplineSet
Validated: 1
EndChar

StartChar: uni0327
Encoding: 807 807 239
Width: 1233
VWidth: 2048
GlyphClass: 2
Flags: W
LayerCount: 3
Fore
SplineSet
700 0 m 1,0,1
 756 -62 756 -62 782 -114 c 0,2,3
 809 -168 809 -168 809 -215 c 0,4,5
 809 -304 809 -304 749 -350 c 0,6,7
 689 -395 689 -395 571 -395 c 0,8,9
 527 -395 527 -395 482 -389 c 128,-1,10
 437 -383 437 -383 395 -371 c 1,11,-1
 395 -240 l 1,12,13
 434 -259 434 -259 466 -264 c 0,14,15
 501 -272 501 -272 551 -272 c 0,16,17
 608 -272 608 -272 640 -248 c 0,18,19
 670 -224 670 -224 670 -178 c 0,20,21
 670 -148 670 -148 648 -104 c 0,22,23
 624 -60 624 -60 582 0 c 1,24,-1
 700 0 l 1,0,1
EndSplineSet
Validated: 1
EndChar

StartChar: uni0328
Encoding: 808 808 240
Width: 1233
VWidth: 2048
GlyphClass: 2
Flags: W
LayerCount: 3
Fore
SplineSet
538 0 m 1,0,-1
 657 0 l 1,1,2
 614 -59 614 -59 590 -105 c 0,3,4
 569 -148 569 -148 569 -180 c 0,5,6
 569 -226 569 -226 596 -249 c 0,7,8
 625 -272 625 -272 678 -272 c 0,9,10
 713 -272 713 -272 741 -264 c 0,11,12
 767 -259 767 -259 803 -242 c 1,13,-1
 803 -375 l 1,14,15
 766 -386 766 -386 731 -390 c 0,16,17
 693 -395 693 -395 667 -395 c 0,18,19
 546 -395 546 -395 488 -352 c 0,20,21
 430 -307 430 -307 430 -215 c 0,22,23
 430 -169 430 -169 456 -114 c 0,24,25
 486 -58 486 -58 538 0 c 1,0,-1
EndSplineSet
Validated: 1
EndChar

StartChar: uni0329
Encoding: 809 809 241
Width: 1233
VWidth: 2048
GlyphClass: 2
Flags: W
LayerCount: 3
Fore
SplineSet
684 -209 m 1,0,-1
 684 -653 l 1,1,-1
 548 -653 l 1,2,-1
 548 -209 l 1,3,-1
 684 -209 l 1,0,-1
EndSplineSet
Validated: 1
EndChar

StartChar: uni032A
Encoding: 810 810 242
Width: 1233
VWidth: 2048
GlyphClass: 2
Flags: W
LayerCount: 3
Fore
SplineSet
892 -209 m 1,0,-1
 892 -539 l 1,1,-1
 755 -539 l 1,2,-1
 755 -345 l 1,3,-1
 478 -345 l 1,4,-1
 478 -539 l 1,5,-1
 341 -539 l 1,6,-1
 341 -209 l 1,7,-1
 892 -209 l 1,0,-1
EndSplineSet
Validated: 1
EndChar

StartChar: uni032B
Encoding: 811 811 243
Width: 1233
VWidth: 2048
GlyphClass: 2
Flags: W
LayerCount: 3
Fore
SplineSet
616 -373 m 1,0,1
 558 -455 558 -455 441 -455 c 0,2,3
 222 -455 222 -455 206 -173 c 1,4,-1
 206 -168 l 1,5,-1
 324 -168 l 1,6,7
 338 -318 338 -318 440 -318 c 128,-1,8
 542 -318 542 -318 558 -168 c 1,9,-1
 676 -168 l 1,10,11
 686 -316 686 -316 792 -318 c 0,12,13
 894 -318 894 -318 909 -168 c 1,14,-1
 1027 -168 l 1,15,16
 1012 -454 1012 -454 792 -455 c 0,17,18
 676 -455 676 -455 616 -373 c 1,0,1
EndSplineSet
Validated: 1
EndChar

StartChar: uni032C
Encoding: 812 812 244
Width: 1233
VWidth: 2048
GlyphClass: 2
Flags: W
LayerCount: 3
Fore
SplineSet
543 -485 m 1,0,-1
 297 -109 l 1,1,-1
 436 -109 l 1,2,-1
 616 -354 l 1,3,-1
 797 -109 l 1,4,-1
 936 -109 l 1,5,-1
 690 -485 l 1,6,-1
 543 -485 l 1,0,-1
EndSplineSet
Validated: 1
EndChar

StartChar: uni032D
Encoding: 813 813 245
Width: 1233
VWidth: 2048
GlyphClass: 2
Flags: W
LayerCount: 3
Fore
SplineSet
543 -109 m 1,0,-1
 690 -109 l 1,1,-1
 936 -485 l 1,2,-1
 797 -485 l 1,3,-1
 616 -240 l 1,4,-1
 436 -485 l 1,5,-1
 297 -485 l 1,6,-1
 543 -109 l 1,0,-1
EndSplineSet
Validated: 1
EndChar

StartChar: uni032E
Encoding: 814 814 246
Width: 1233
VWidth: 2048
GlyphClass: 2
Flags: W
LayerCount: 3
Fore
SplineSet
303 -200 m 1,0,-1
 422 -200 l 1,1,2
 432 -275 432 -275 481 -313 c 0,3,4
 528 -350 528 -350 616 -350 c 0,5,6
 702 -350 702 -350 749 -313 c 0,7,8
 798 -275 798 -275 811 -200 c 1,9,-1
 930 -200 l 1,10,11
 919 -343 919 -343 840 -415 c 0,12,13
 760 -487 760 -487 616 -487 c 128,-1,14
 472 -487 472 -487 393 -415 c 128,-1,15
 314 -343 314 -343 303 -200 c 1,0,-1
EndSplineSet
Validated: 1
EndChar

StartChar: uni032F
Encoding: 815 815 247
Width: 1233
VWidth: 2048
GlyphClass: 2
Flags: W
LayerCount: 3
Fore
SplineSet
930 -485 m 1,0,-1
 811 -485 l 1,1,2
 801 -410 801 -410 752 -372 c 0,3,4
 705 -335 705 -335 617 -335 c 0,5,6
 531 -335 531 -335 484 -372 c 0,7,8
 435 -410 435 -410 422 -485 c 1,9,-1
 303 -485 l 1,10,11
 314 -342 314 -342 393 -270 c 128,-1,12
 472 -198 472 -198 617 -198 c 0,13,14
 760 -198 760 -198 840 -270 c 0,15,16
 919 -342 919 -342 930 -485 c 1,0,-1
EndSplineSet
Validated: 1
EndChar

StartChar: uni0330
Encoding: 816 816 248
Width: 1233
VWidth: 2048
GlyphClass: 2
Flags: W
LayerCount: 3
Fore
SplineSet
612 -424 m 2,0,-1
 555 -369 l 2,1,2
 534 -350 534 -350 518 -340 c 0,3,4
 501 -330 501 -330 487 -330 c 0,5,6
 449 -330 449 -330 431 -367 c 0,7,8
 412 -406 412 -406 411 -485 c 1,9,-1
 287 -485 l 1,10,11
 289 -350 289 -350 339 -277 c 0,12,13
 390 -203 390 -203 481 -203 c 0,14,15
 519 -203 519 -203 552 -217 c 0,16,17
 582 -230 582 -230 621 -264 c 2,18,-1
 678 -319 l 2,19,20
 701 -341 701 -341 716 -348 c 0,21,22
 730 -358 730 -358 745 -358 c 0,23,24
 784 -358 784 -358 802 -321 c 0,25,26
 819 -285 819 -285 821 -203 c 1,27,-1
 946 -203 l 1,28,29
 944 -338 944 -338 894 -411 c 0,30,31
 843 -485 843 -485 752 -485 c 0,32,33
 714 -485 714 -485 681 -471 c 0,34,35
 651 -458 651 -458 612 -424 c 2,0,-1
EndSplineSet
Validated: 1
EndChar

StartChar: uni0331
Encoding: 817 817 249
Width: 1233
VWidth: 2048
GlyphClass: 2
Flags: W
LayerCount: 3
Fore
SplineSet
318 -209 m 1,0,-1
 916 -209 l 1,1,-1
 916 -357 l 1,2,-1
 318 -357 l 1,3,-1
 318 -209 l 1,0,-1
EndSplineSet
Validated: 1
EndChar

StartChar: uni0332
Encoding: 818 818 250
Width: 1233
VWidth: 2048
GlyphClass: 2
Flags: W
LayerCount: 3
Fore
SplineSet
1233 -403 m 1,0,-1
 1233 -483 l 1,1,-1
 0 -483 l 1,2,-1
 0 -403 l 1,3,-1
 1233 -403 l 1,0,-1
EndSplineSet
Validated: 1
EndChar

StartChar: uni0333
Encoding: 819 819 251
Width: 1233
VWidth: 2048
GlyphClass: 2
Flags: W
LayerCount: 3
Fore
SplineSet
1233 -403 m 1,0,-1
 1233 -483 l 1,1,-1
 0 -483 l 1,2,-1
 0 -403 l 1,3,-1
 1233 -403 l 1,0,-1
1233 -163 m 1,4,-1
 1233 -243 l 1,5,-1
 0 -243 l 1,6,-1
 0 -163 l 1,7,-1
 1233 -163 l 1,4,-1
EndSplineSet
Validated: 1
EndChar

StartChar: uni0334
Encoding: 820 820 252
Width: 1233
VWidth: 2048
GlyphClass: 2
Flags: W
LayerCount: 3
Fore
SplineSet
1145 780 m 1,0,-1
 1145 606 l 1,1,2
 1069 547 1069 547 998 520 c 0,3,4
 929 492 929 492 848 492 c 0,5,6
 758 492 758 492 645 543 c 0,7,8
 638 546 638 546 631.5 549 c 128,-1,9
 625 552 625 552 619.5 554 c 128,-1,10
 614 556 614 556 612 557 c 0,11,12
 536 590 536 590 484 602 c 0,13,14
 431 614 431 614 381 614 c 0,15,16
 301 614 301 614 232 584 c 0,17,18
 164 557 164 557 88 492 c 1,19,-1
 88 666 l 1,20,21
 166 726 166 726 239 753 c 256,22,23
 312 780 312 780 395 780 c 0,24,25
 446 780 446 780 498 769 c 0,26,27
 549 758 549 758 622 727 c 0,28,29
 634 722 634 722 655 712 c 0,30,31
 769 657 769 657 864 657 c 0,32,33
 936 657 936 657 1002 688 c 0,34,35
 1071 718 1071 718 1145 780 c 1,0,-1
EndSplineSet
Validated: 1
EndChar

StartChar: uni0335
Encoding: 821 821 253
Width: 1233
VWidth: 2048
GlyphClass: 2
Flags: W
LayerCount: 3
Fore
SplineSet
1062 616 m 1,0,-1
 1062 452 l 1,1,-1
 142 452 l 1,2,-1
 142 616 l 1,3,-1
 1062 616 l 1,0,-1
EndSplineSet
Validated: 1
EndChar

StartChar: uni0336
Encoding: 822 822 254
Width: 1233
VWidth: 2048
GlyphClass: 2
Flags: W
LayerCount: 3
Fore
SplineSet
0 452 m 1,0,-1
 0 616 l 1,1,-1
 1233 616 l 1,2,-1
 1233 452 l 1,3,-1
 0 452 l 1,0,-1
EndSplineSet
Validated: 1
EndChar

StartChar: uni0337
Encoding: 823 823 255
Width: 1233
VWidth: 2048
GlyphClass: 2
Flags: W
LayerCount: 3
Fore
SplineSet
139 -96 m 1,0,-1
 47 -20 l 1,1,-1
 1081 1212 l 1,2,-1
 1174 1135 l 1,3,-1
 139 -96 l 1,0,-1
EndSplineSet
Validated: 1
EndChar

StartChar: uni0338
Encoding: 824 824 256
Width: 1233
VWidth: 2048
GlyphClass: 2
Flags: W
LayerCount: 3
Fore
SplineSet
111 -70 m 1,0,-1
 8 0 l 1,1,-1
 1100 1559 l 1,2,-1
 1200 1485 l 1,3,-1
 111 -70 l 1,0,-1
EndSplineSet
Validated: 1
EndChar

StartChar: uni0339
Encoding: 825 825 257
Width: 1233
VWidth: 2048
GlyphClass: 2
Flags: W
LayerCount: 3
Fore
SplineSet
506 -404 m 1,0,1
 558 -404 558 -404 592 -368 c 0,2,3
 628 -334 628 -334 628 -282 c 0,4,5
 628 -232 628 -232 592 -196 c 0,6,7
 557 -161 557 -161 506 -161 c 1,8,-1
 506 -63 l 1,9,10
 599 -63 599 -63 662 -126 c 0,11,12
 726 -190 726 -190 726 -282 c 128,-1,13
 726 -374 726 -374 662 -438 c 0,14,15
 599 -502 599 -502 506 -502 c 1,16,-1
 506 -404 l 1,0,1
EndSplineSet
Validated: 1
EndChar

StartChar: uni033A
Encoding: 826 826 258
Width: 1233
VWidth: 2048
GlyphClass: 2
Flags: W
LayerCount: 3
Fore
SplineSet
341 -384 m 1,0,-1
 341 -54 l 1,1,-1
 478 -54 l 1,2,-1
 478 -248 l 1,3,-1
 755 -248 l 1,4,-1
 755 -54 l 1,5,-1
 892 -54 l 1,6,-1
 892 -384 l 1,7,-1
 341 -384 l 1,0,-1
EndSplineSet
Validated: 1
EndChar

StartChar: uni033B
Encoding: 827 827 259
Width: 1233
VWidth: 2048
GlyphClass: 2
Flags: W
LayerCount: 3
Fore
SplineSet
892 -209 m 1,0,-1
 892 -759 l 1,1,-1
 341 -759 l 1,2,-1
 341 -209 l 1,3,-1
 892 -209 l 1,0,-1
755 -623 m 1,4,-1
 755 -345 l 1,5,-1
 478 -345 l 1,6,-1
 478 -623 l 1,7,-1
 755 -623 l 1,4,-1
EndSplineSet
Validated: 1
EndChar

StartChar: uni033C
Encoding: 828 828 260
Width: 1233
VWidth: 2048
GlyphClass: 2
Flags: W
LayerCount: 3
Fore
SplineSet
616 -250 m 1,0,1
 676 -168 676 -168 792 -168 c 0,2,3
 1010 -168 1010 -168 1027 -450 c 1,4,-1
 1027 -455 l 1,5,-1
 910 -455 l 1,6,7
 896 -305 896 -305 792 -305 c 0,8,9
 691 -305 691 -305 676 -455 c 1,10,-1
 558 -455 l 1,11,12
 546 -306 546 -306 441 -305 c 0,13,14
 339 -305 339 -305 324 -455 c 1,15,-1
 206 -455 l 1,16,17
 221 -169 221 -169 441 -168 c 0,18,19
 558 -168 558 -168 616 -250 c 1,0,1
EndSplineSet
Validated: 1
EndChar

StartChar: uni033D
Encoding: 829 829 261
Width: 1233
VWidth: 2048
GlyphClass: 2
Flags: W
LayerCount: 3
Fore
SplineSet
616 1353 m 1,0,-1
 491 1228 l 1,1,-1
 395 1324 l 1,2,-1
 520 1449 l 1,3,-1
 395 1574 l 1,4,-1
 491 1671 l 1,5,-1
 616 1545 l 1,6,-1
 742 1671 l 1,7,-1
 838 1574 l 1,8,-1
 713 1449 l 1,9,-1
 838 1324 l 1,10,-1
 742 1228 l 1,11,-1
 616 1353 l 1,0,-1
EndSplineSet
Validated: 1
EndChar

StartChar: uni033E
Encoding: 830 830 262
Width: 1233
VWidth: 2048
GlyphClass: 2
Flags: W
LayerCount: 3
Fore
SplineSet
536 1479 m 2,0,1
 502 1510 502 1510 490 1531 c 0,2,3
 476 1556 476 1556 476 1583 c 0,4,5
 476 1662 476 1662 549 1704 c 0,6,7
 625 1745 625 1745 758 1746 c 1,8,-1
 758 1636 l 1,9,10
 675 1634 675 1634 639 1620 c 0,11,12
 602 1608 602 1608 602 1579 c 0,13,14
 602 1568 602 1568 612 1557 c 0,15,16
 623 1541 623 1541 642 1528 c 2,17,-1
 696 1485 l 2,18,19
 731 1456 731 1456 744 1433 c 0,20,21
 758 1408 758 1408 758 1381 c 0,22,23
 758 1302 758 1302 684 1260 c 0,24,25
 608 1219 608 1219 476 1218 c 1,26,-1
 476 1328 l 1,27,28
 559 1330 559 1330 594 1344 c 0,29,30
 630 1356 630 1356 630 1385 c 0,31,32
 630 1395 630 1395 621 1407 c 0,33,34
 610 1422 610 1422 592 1436 c 2,35,-1
 536 1479 l 2,0,1
EndSplineSet
Validated: 1
EndChar

StartChar: uni033F
Encoding: 831 831 263
Width: 1233
VWidth: 2048
GlyphClass: 2
Flags: W
LayerCount: 3
Fore
SplineSet
1233 1547 m 1,0,-1
 1233 1467 l 1,1,-1
 0 1467 l 1,2,-1
 0 1547 l 1,3,-1
 1233 1547 l 1,0,-1
1233 1307 m 1,4,-1
 1233 1227 l 1,5,-1
 0 1227 l 1,6,-1
 0 1307 l 1,7,-1
 1233 1307 l 1,4,-1
EndSplineSet
Validated: 1
EndChar

StartChar: uni0343
Encoding: 835 835 264
Width: 1233
VWidth: 2048
GlyphClass: 2
Flags: W
LayerCount: 3
Fore
SplineSet
737 1475 m 2,0,1
 737 1218 737 1218 496 1218 c 1,2,-1
 496 1341 l 1,3,4
 608 1338 608 1338 608 1475 c 1,5,-1
 496 1475 l 1,6,-1
 496 1729 l 1,7,-1
 737 1729 l 1,8,-1
 737 1475 l 2,0,1
EndSplineSet
Validated: 33
EndChar

StartChar: uni0358
Encoding: 856 856 265
Width: 1233
VWidth: 2048
GlyphClass: 2
Flags: W
LayerCount: 3
Fore
SplineSet
1026 1552 m 1,0,-1
 1231 1552 l 1,1,-1
 1231 1348 l 1,2,-1
 1026 1348 l 1,3,-1
 1026 1552 l 1,0,-1
EndSplineSet
Validated: 1
EndChar

StartChar: uni0361
Encoding: 865 865 266
Width: 1233
VWidth: 2048
GlyphClass: 2
Flags: W
LayerCount: 3
Fore
SplineSet
617 1710 m 0,0,1
 557 1710 557 1710 276 1685 c 0,2,3
 8 1663 8 1663 -118 1520 c 1,4,-1
 -236 1520 l 1,5,6
 -236 1760 -236 1760 272 1820 c 0,7,8
 500 1847 500 1847 616 1847 c 128,-1,9
 732 1847 732 1847 962 1820 c 0,10,11
 1470 1760 1470 1760 1470 1520 c 1,12,-1
 1352 1520 l 1,13,14
 1224 1662 1224 1662 956 1685 c 0,15,16
 678 1710 678 1710 617 1710 c 0,0,1
EndSplineSet
Validated: 1
EndChar

StartChar: uni0374
Encoding: 884 884 267
Width: 1233
VWidth: 2048
GlyphClass: 2
Flags: W
LayerCount: 3
Fore
SplineSet
492 1140 m 1,0,-1
 557 1638 l 1,1,-1
 747 1638 l 1,2,-1
 637 1140 l 1,3,-1
 492 1140 l 1,0,-1
EndSplineSet
Validated: 1
EndChar

StartChar: uni0375
Encoding: 885 885 268
Width: 1233
VWidth: 2048
GlyphClass: 2
Flags: W
LayerCount: 3
Fore
SplineSet
741 72 m 1,0,-1
 676 -426 l 1,1,-1
 486 -426 l 1,2,-1
 596 72 l 1,3,-1
 741 72 l 1,0,-1
EndSplineSet
Validated: 1
EndChar

StartChar: uni037E
Encoding: 894 894 269
Width: 1233
VWidth: 2048
GlyphClass: 2
Flags: W
LayerCount: 3
Fore
SplineSet
502 303 m 1,0,-1
 754 303 l 1,1,-1
 754 96 l 1,2,-1
 557 -287 l 1,3,-1
 403 -287 l 1,4,-1
 502 96 l 1,5,-1
 502 303 l 1,0,-1
489 1063 m 1,6,-1
 741 1063 l 1,7,-1
 741 760 l 1,8,-1
 489 760 l 1,9,-1
 489 1063 l 1,6,-1
EndSplineSet
Validated: 1
EndChar

StartChar: tonos
Encoding: 900 900 270
Width: 1233
VWidth: 2048
GlyphClass: 2
Flags: W
LayerCount: 3
Fore
SplineSet
756 1638 m 1,0,-1
 954 1638 l 1,1,-1
 629 1262 l 1,2,-1
 475 1262 l 1,3,-1
 756 1638 l 1,0,-1
EndSplineSet
Validated: 1
EndChar

StartChar: dieresistonos
Encoding: 901 901 271
Width: 1233
VWidth: 2048
GlyphClass: 2
Flags: W
LayerCount: 3
Fore
SplineSet
319 1552 m 1,0,-1
 522 1552 l 1,1,-1
 522 1350 l 1,2,-1
 319 1350 l 1,3,-1
 319 1552 l 1,0,-1
711 1552 m 1,4,-1
 913 1552 l 1,5,-1
 913 1350 l 1,6,-1
 711 1350 l 1,7,-1
 711 1552 l 1,4,-1
756 2008 m 1,8,-1
 954 2008 l 1,9,-1
 629 1632 l 1,10,-1
 475 1632 l 1,11,-1
 756 2008 l 1,8,-1
EndSplineSet
Validated: 1
EndChar

StartChar: anoteleia
Encoding: 903 903 272
Width: 1233
VWidth: 2048
GlyphClass: 2
Flags: W
LayerCount: 3
Fore
SplineSet
489 864 m 1,0,-1
 741 864 l 1,1,-1
 741 559 l 1,2,-1
 489 559 l 1,3,-1
 489 864 l 1,0,-1
EndSplineSet
Validated: 1
EndChar

StartChar: uni0609
Encoding: 1545 1545 273
Width: 1233
VWidth: 2048
GlyphClass: 2
Flags: W
LayerCount: 3
Fore
SplineSet
963 250 m 1,0,-1
 1143 250 l 1,1,-1
 1143 0 l 1,2,-1
 963 0 l 1,3,-1
 963 250 l 1,0,-1
603 250 m 1,4,-1
 783 250 l 1,5,-1
 783 0 l 1,6,-1
 603 0 l 1,7,-1
 603 250 l 1,4,-1
104 1300 m 1,8,-1
 284 1300 l 1,9,-1
 284 1050 l 1,10,-1
 104 1050 l 1,11,-1
 104 1300 l 1,8,-1
764 1300 m 1,12,-1
 924 1300 l 1,13,-1
 250 0 l 1,14,-1
 90 0 l 1,15,-1
 764 1300 l 1,12,-1
EndSplineSet
Validated: 1
EndChar

StartChar: uni060A
Encoding: 1546 1546 274
Width: 1233
VWidth: 2048
GlyphClass: 2
Flags: W
LayerCount: 3
Fore
SplineSet
1053 250 m 1,0,-1
 1233 250 l 1,1,-1
 1233 0 l 1,2,-1
 1053 0 l 1,3,-1
 1053 250 l 1,0,-1
723 250 m 1,4,-1
 903 250 l 1,5,-1
 903 0 l 1,6,-1
 723 0 l 1,7,-1
 723 250 l 1,4,-1
393 250 m 1,8,-1
 573 250 l 1,9,-1
 573 0 l 1,10,-1
 393 0 l 1,11,-1
 393 250 l 1,8,-1
14 1300 m 1,12,-1
 194 1300 l 1,13,-1
 194 1050 l 1,14,-1
 14 1050 l 1,15,-1
 14 1300 l 1,12,-1
474 1300 m 1,16,-1
 634 1300 l 1,17,-1
 160 0 l 1,18,-1
 0 0 l 1,19,-1
 474 1300 l 1,16,-1
EndSplineSet
Validated: 1
EndChar

StartChar: quoteright
Encoding: 8217 8217 275
Width: 773
VWidth: 2048
GlyphClass: 2
Flags: W
LayerCount: 3
Fore
SplineSet
309 2756 m 1,0,-1
 561 2756 l 1,1,-1
 561 2550 l 1,2,-1
 365 2167 l 1,3,-1
 211 2167 l 1,4,-1
 309 2550 l 1,5,-1
 309 2756 l 1,0,-1
EndSplineSet
Validated: 1
EndChar

StartChar: quotesinglbase
Encoding: 8218 8218 276
Width: 773
VWidth: 2048
GlyphClass: 2
Flags: W
LayerCount: 3
Fore
SplineSet
309 -254 m 1,0,-1
 561 -254 l 1,1,-1
 561 -460 l 1,2,-1
 365 -843 l 1,3,-1
 211 -843 l 1,4,-1
 309 -460 l 1,5,-1
 309 -254 l 1,0,-1
EndSplineSet
Validated: 1
EndChar

StartChar: quotedblright
Encoding: 8221 8221 277
Width: 1233
VWidth: 2048
GlyphClass: 2
Flags: W
LayerCount: 3
Fore
SplineSet
768 2726 m 1,0,-1
 1020 2726 l 1,1,-1
 1020 2520 l 1,2,-1
 823 2137 l 1,3,-1
 670 2137 l 1,4,-1
 768 2520 l 1,5,-1
 768 2726 l 1,0,-1
309 2726 m 1,6,-1
 561 2726 l 1,7,-1
 561 2520 l 1,8,-1
 365 2137 l 1,9,-1
 211 2137 l 1,10,-1
 309 2520 l 1,11,-1
 309 2726 l 1,6,-1
EndSplineSet
Validated: 1
EndChar

StartChar: quotedblbase
Encoding: 8222 8222 278
Width: 1233
VWidth: 2048
GlyphClass: 2
Flags: W
LayerCount: 3
Fore
SplineSet
768 -244 m 1,0,-1
 1020 -244 l 1,1,-1
 1020 -450 l 1,2,-1
 823 -833 l 1,3,-1
 670 -833 l 1,4,-1
 768 -450 l 1,5,-1
 768 -244 l 1,0,-1
309 -244 m 1,6,-1
 561 -244 l 1,7,-1
 561 -450 l 1,8,-1
 365 -833 l 1,9,-1
 211 -833 l 1,10,-1
 309 -450 l 1,11,-1
 309 -244 l 1,6,-1
EndSplineSet
Validated: 1
EndChar

StartChar: stemK
Encoding: 57352 57352 281
Width: 120
VWidth: 0
GlyphClass: 2
Flags: W
LayerCount: 3
Fore
SplineSet
120 1740 m 5,0,-1
 120 60 l 1,1,2
 60 60 60 60 0 60 c 1,5,-1
 0 1740 l 5,6,7
 0 1740 0 1740 120 1740 c 5,0,-1
0 60 m 1025
EndSplineSet
Refer: 320 57346 N 1 0 0 1 0 0 2
Refer: 320 57346 S 1 0 0 1 0 1680 2
Comment: "wys 1800"
EndChar

StartChar: stemI.krt
Encoding: 57357 57357 282
Width: 120
VWidth: 0
GlyphClass: 2
Flags: W
LayerCount: 3
Fore
SplineSet
120 240 m 1,0,-1
 120 60 l 1,1,2
 60 60 60 60 0 60 c 1,5,-1
 0 240 l 1,6,7
 60 240 60 240 120 240 c 1,0,-1
0 60 m 1025
EndSplineSet
Refer: 320 57346 N 1 0 0 1 0 0 2
Refer: 320 57346 N 1 0 0 1 0 180 2
Comment: "wys 300"
EndChar

StartChar: stemKRT
Encoding: 57358 57358 283
Width: 120
VWidth: 0
GlyphClass: 2
Flags: W
LayerCount: 3
Fore
SplineSet
120 180 m 5,0,-1
 120 60 l 1,1,2
 90 60 90 60 60 60 c 1,3,4
 30 60 30 60 0 60 c 1,5,-1
 0 180 l 5,6,7
 60 180 60 180 120 180 c 5,0,-1
0 60 m 1025
EndSplineSet
Refer: 320 57346 N 1 0 0 1 0 0 2
Refer: 320 57346 S 1 0 0 1 0 120 2
Comment: "wys 240"
EndChar

StartChar: luTJ
Encoding: 58088 58088 284
Width: 497
VWidth: 0
GlyphClass: 2
Flags: W
LayerCount: 3
Fore
SplineSet
497.377929688 48.19921875 m 4,0,1
 491.732421875 -53 491.732421875 -53 325.619140625 -105.834960938 c 4,2,3
 103.993164062 -177.931640625 103.993164062 -177.931640625 21.5849609375 48.486328125 c 4,4,5
 -51.4189453125 251.776367188 -51.4189453125 251.776367188 122.4921875 315.075195312 c 4,6,7
 285.05859375 374.244140625 285.05859375 374.244140625 334.30859375 238.928710938 c 4,8,9
 386.296875 96.095703125 386.296875 96.095703125 277.638671875 56.546875 c 5,10,11
 272.59375 54.7119140625 272.59375 54.7119140625 266.956054688 52.66015625 c 5,12,-1
 225.913085938 165.421875 l 5,13,14
 238.12890625 169.869140625 238.12890625 169.869140625 227.18359375 199.938476562 c 4,15,16
 217.94921875 225.310546875 217.94921875 225.310546875 162.508789062 205.130859375 c 4,17,18
 94.849609375 180.505859375 94.849609375 180.505859375 127.771484375 87.1337890625 c 4,19,20
 174.146484375 -40.2822265625 174.146484375 -40.2822265625 286.373046875 -0.9306640625 c 4,21,22
 370.732421875 29 370.732421875 29 374.256835938 73.623046875 c 4,23,-1
 497.377929688 48.19921875 l 4,0,1
EndSplineSet
Refer: 320 57346 S -0.939693 -0.34202 0.34202 -0.939693 471.804 138.924 2
Refer: 320 57346 S -0.939693 -0.34202 0.34202 -0.939693 282.294 185.944 2
EndChar

StartChar: stemK.krt
Encoding: 57353 57353 285
Width: 120
VWidth: 0
GlyphClass: 2
Flags: W
LayerCount: 3
Fore
SplineSet
120 1140 m 5,0,-1
 120 60 l 1,1,2
 60 60 60 60 0 60 c 1,5,-1
 0 1140 l 5,6,7
 60 1140 60 1140 120 1140 c 5,0,-1
0 60 m 1025
EndSplineSet
Refer: 320 57346 N 1 0 0 1 0 0 2
Refer: 320 57346 S 1 0 0 1 0 1080 2
Comment: "wys 1200"
EndChar

StartChar: stemG
Encoding: 57354 57354 286
Width: 120
VWidth: 0
GlyphClass: 2
Flags: W
LayerCount: 3
Fore
SplineSet
120 740 m 5,0,-1
 120 60 l 1,1,2
 60 60 60 60 0 60 c 1,5,-1
 0 740 l 5,6,7
 60 740 60 740 120 740 c 5,0,-1
0 60 m 1025
EndSplineSet
Refer: 320 57346 N 1 0 0 1 0 0 2
Refer: 320 57346 S 1 0 0 1 0 680 2
Comment: "wys 800"
EndChar

StartChar: luKL
Encoding: 58085 58085 287
Width: 463
VWidth: 0
GlyphClass: 2
Flags: W
LayerCount: 3
Fore
SplineSet
203.015625 376 m 1,0,-1
 298.015625 374 l 1,1,2
 307.015625 293 307.015625 293 307.015625 283 c 1,3,4
 413 169 413 169 430.815429688 138.000976562 c 0,5,6
 464 81 464 81 463.140625 -12.375 c 0,7,8
 463 -37 463 -37 427.015625 -86.5 c 0,9,10
 391 -136 391 -136 306.640625 -136.375 c 0,11,12
 185.640625 -137.001953125 185.640625 -137.001953125 185.640625 -15.375 c 2,13,-1
 185.640625 98.375 l 1,14,15
 178 90 178 90 163.274414062 88.7626953125 c 0,16,17
 93 84 93 84 43.3125 125.775390625 c 0,18,19
 24 142 24 142 12.2060546875 170.268554688 c 0,20,21
 0 199 0 199 0 232.875 c 0,22,23
 0 303 0 303 43.3125 339.974609375 c 0,24,25
 94 384 94 384 163.012695312 376.987304688 c 0,26,27
 173 376 173 376 187.015625 367 c 1,28,-1
 203.015625 376 l 1,0,-1
307 123 m 1,29,-1
 307.015625 69 l 2,30,31
 307.015625 69 307.015625 69 307.0078125 39.5 c 0,32,33
 307 10 307 10 311.015625 -9 c 0,34,35
 315 -28 315 -28 325.015625 -28 c 0,36,37
 345 -28 345 -28 352.5 -1 c 0,38,39
 360 26 360 26 344 63 c 0,40,41
 330 97 330 97 307 123 c 1,29,-1
EndSplineSet
Refer: 320 57346 N 1 0 0 1 187.016 161 2
Refer: 320 57346 N 1 0 0 1 187.016 0 2
EndChar

StartChar: luSJ
Encoding: 58086 58086 288
Width: 459
VWidth: 0
GlyphClass: 2
Flags: W
LayerCount: 3
Fore
SplineSet
284.877929688 0.0478515625 m 4,0,-1
 259.454101562 123.16796875 l 4,1,2
 304.224609375 129.220703125 304.224609375 129.220703125 334.0078125 211.051757812 c 4,3,4
 374.680664062 322.797851562 374.680664062 322.797851562 245.942382812 369.654296875 c 4,5,6
 152.571289062 402.575195312 152.571289062 402.575195312 127.9453125 334.916992188 c 4,7,8
 107.766601562 279.475585938 107.766601562 279.475585938 133.137695312 270.240234375 c 4,9,10
 163.208007812 259.295898438 163.208007812 259.295898438 167.654296875 271.51171875 c 5,11,-1
 280.41796875 230.469726562 l 5,12,13
 278.365234375 224.831054688 278.365234375 224.831054688 276.529296875 219.786132812 c 5,14,15
 236.98046875 111.12890625 236.98046875 111.12890625 94.1474609375 163.115234375 c 4,16,17
 -41.16796875 212.366210938 -41.16796875 212.366210938 18.0009765625 374.93359375 c 4,18,19
 81.2998046875 548.84375 81.2998046875 548.84375 284.590820312 475.83984375 c 4,20,21
 518.57421875 390.676757812 518.57421875 390.676757812 438.911132812 171.805664062 c 4,22,23
 386.212890625 27.015625 386.212890625 27.015625 284.877929688 0.0478515625 c 4,0,-1
EndSplineSet
Refer: 320 57346 S 0.939693 -0.34202 0.34202 0.939693 148.073 214.788 2
Refer: 320 57346 S 0.939693 -0.34202 0.34202 0.939693 195.092 25.278 2
Layer: 2
SplineSet
289.633789062 674.553710938 m 4
 355.211263021 674.851236979 418.573567708 646.123046875 479.720703125 588.369140625 c 4
 547.906901042 524.123046875 582.153645833 439.333333333 582.4609375 334 c 4
 582.8203125 230 548.573567708 147.209960938 479.720703125 85.6298828125 c 4
 416.573567708 28.5432942708 353.544596354 -0.1845703125 290.633789062 -0.5537109375 c 4
 229.544596354 -0.851236979167 166.115559896 27.8766276042 100.346679688 85.6298828125 c 4
 33.4488932293 144.543294271 0 226.666666667 0 332 c 4
 0 442.666666667 33.4488932293 528.123046875 100.346679688 588.369140625 c 4
 164.115559896 645.456380208 227.211263021 674.184570313 289.633789062 674.553710938 c 4
291.624023438 125.5 m 4
 341.874674479 125.833333333 383.216471354 150.9296875 415.649414062 200.7890625 c 4
 445.216471354 246.263020833 459.474934896 290.77734375 458.424804688 334.33203125 c 4
 456.808268229 392.110677083 445 438.333333333 423 473 c 4
 391.666666667 523.666666667 347.541341146 549.095703125 290.624023438 549.287109375 c 4
 236.208007813 549.095703125 194.333333333 523.666666667 165 473 c 4
 135.666666667 421.666666667 121.274739583 374.596028646 121.82421875 331.788085938 c 4
 121.94140625 285.929361979 136.049804687 241.9296875 164.149414062 199.7890625 c 4
 197.383138021 149.9296875 239.874674479 125.166666667 291.624023438 125.5 c 4
EndSplineSet
Refer: 320 57346 S 1 0 0 1 394 87 2
Refer: 320 57346 S 1 0 0 1 0 271 2
Refer: 320 57346 S 1 0 0 1 251 2 2
Refer: 320 57346 S 1 0 0 1 210.634 1.44629 2
Refer: 320 57346 S 1 0 0 1 462 271 2
Refer: 320 57346 S 1 0 0 1 27 403 2
Refer: 320 57346 S 1 0 0 1 430 140 2
Refer: 320 57346 S 1 0 0 1 65 467 2
Refer: 320 57346 S 1 0 0 1 250 552 2
Refer: 320 57346 S 1 0 0 1 215 552 2
EndChar

StartChar: luCJ
Encoding: 58087 58087 289
Width: 454
VWidth: 0
GlyphClass: 2
Flags: W
LayerCount: 3
Fore
SplineSet
7 203 m 4,0,1
 67 289 67 289 221.08203125 289 c 4,2,3
 454 289 454 289 454 40 c 4,4,5
 453.071289062 -176 453.071289062 -176 268 -176 c 4,6,7
 95 -176 95 -176 95 -32 c 4,8,9
 95 120 95 120 210.630859375 120 c 5,10,11
 216 120 216 120 222 120 c 5,12,-1
 222 0 l 5,13,14
 209 0 209 0 209 -32 c 4,15,16
 209 -59 209 -59 268 -59 c 4,17,18
 340 -59 340 -59 341 40 c 4,19,20
 341 177 341 177 222.08203125 177 c 4,21,22
 135 177 135 177 114 137 c 4,23,-1
 7 203 l 4,0,1
EndSplineSet
Refer: 320 57346 S 1 0 0 1 0 109 2
Refer: 320 57346 S 1 0 0 1 162 0 2
EndChar

StartChar: brzuchST.bak
Encoding: 983552 983552 290
Width: 56
VWidth: 0
GlyphClass: 2
Flags: W
LayerCount: 3
Fore
SplineSet
222 1032 m 4,0,1
 210 1017 210 1017 195 995 c 132,-1,2
 180 973 180 973 171 960.5 c 132,-1,3
 162 948 162 948 149.5 934 c 132,-1,4
 137 920 137 920 126.5 918 c 132,-1,5
 116 916 116 916 102 919 c 132,-1,6
 88 922 88 922 72 938.5 c 132,-1,7
 56 955 56 955 36 983 c 4,8,9
 -102 1186 -102 1186 -139 1610 c 4,10,11
 -155 1781 -155 1781 -155 1856 c 4,12,13
 -155 1968 -155 1968 -108 2071 c 132,-1,14
 -61 2174 -61 2174 17 2230 c 4,15,16
 75 2270 75 2270 157 2270 c 4,17,18
 210 2270 210 2270 262.5 2254 c 132,-1,19
 315 2238 315 2238 367 2200.5 c 132,-1,20
 419 2163 419 2163 458.5 2108 c 132,-1,21
 498 2053 498 2053 522.5 1968 c 132,-1,22
 547 1883 547 1883 547 1779 c 4,23,24
 547 1667 547 1667 526 1571 c 132,-1,25
 505 1475 505 1475 458 1382.5 c 132,-1,26
 411 1290 411 1290 359 1214.5 c 132,-1,27
 307 1139 307 1139 222 1032 c 4,0,1
139 1158 m 5,28,29
 260 1310 260 1310 317 1475.5 c 132,-1,30
 374 1641 374 1641 379 1755 c 4,31,32
 380 1759 380 1759 380 1765 c 4,33,34
 380 1825 380 1825 354 1895 c 132,-1,35
 328 1965 328 1965 279.5 2018.5 c 132,-1,36
 231 2072 231 2072 177 2072 c 4,37,38
 159 2072 159 2072 141 2066 c 4,39,40
 79 2043 79 2043 57 1988 c 132,-1,41
 35 1933 35 1933 35 1852 c 4,42,43
 35 1762 35 1762 47 1570 c 4,44,45
 57 1430 57 1430 79.5 1339 c 132,-1,46
 102 1248 102 1248 139 1158 c 5,28,29
EndSplineSet
Validated: 1
EndChar

StartChar: poczPUA
Encoding: 57344 57344 291
Width: 1040
GlyphClass: 2
Flags: W
LayerCount: 3
Fore
SplineSet
-601.109375 487.149414062 m 5,0,-1
 -497.3984375 487.149414062 l 5,1,-1
 -497.3984375 22.2080078125 l 5,2,-1
 -601.109375 22.2080078125 l 5,3,-1
 -601.109375 487.149414062 l 5,0,-1
-601.109375 44.9130859375 m 5,4,-1
 -499.15625 44.9130859375 l 5,5,-1
 -499.15625 14.4443359375 l 6,6,7
 -499.15625 -15.5849609375 -499.15625 -15.5849609375 -472.203125 -15.5849609375 c 4,8,9
 -424.15625 -15.5849609375 -424.15625 -15.5849609375 -407.896484375 39.6396484375 c 5,10,-1
 -325.1328125 -4.1591796875 l 5,11,12
 -373.1796875 -116.366210938 -373.1796875 -116.366210938 -471.6171875 -116.366210938 c 4,13,14
 -601.109375 -116.952148438 -601.109375 -116.952148438 -601.109375 -6.6494140625 c 6,15,-1
 -601.109375 44.9130859375 l 5,4,-1
-497.984375 388.711914062 m 5,16,-1
 -601.109375 390.030273438 l 5,17,-1
 -599.3515625 953.409179688 l 5,18,-1
 -599.3515625 953.995117188 l 5,19,20
 -599.9375 1123.77050781 -599.9375 1123.77050781 -459.8984375 1123.77050781 c 132,-1,21
 -319.712890625 1123.77050781 -319.712890625 1123.77050781 -320.298828125 950.333007812 c 4,22,23
 -321.6171875 698.379882812 -321.6171875 698.379882812 -497.984375 404.971679688 c 5,24,-1
 -497.984375 388.711914062 l 5,16,-1
-497.3984375 600.528320312 m 5,25,26
 -412.73046875 809.415039062 -412.73046875 809.415039062 -412.14453125 949.161132812 c 4,27,28
 -412.14453125 1015.22558594 -412.14453125 1015.22558594 -459.60546875 1015.22558594 c 4,29,30
 -497.984375 1015.22558594 -497.984375 1015.22558594 -497.3984375 949.161132812 c 4,31,32
 -494.908203125 776.309570312 -494.908203125 776.309570312 -497.3984375 600.528320312 c 5,25,26
-110.97265625 487.149414062 m 5,33,-1
 -36.55859375 470.450195312 l 5,34,35
 -75.5234375 244.717773438 -75.5234375 244.717773438 -123.5703125 171.622070312 c 4,36,37
 -228.013671875 13.1259765625 -228.013671875 13.1259765625 -410.38671875 -43.2705078125 c 5,38,-1
 -444.517578125 22.2080078125 l 5,39,40
 -280.748046875 72.0126953125 -280.748046875 72.0126953125 -207.505859375 188.907226562 c 4,41,42
 -130.748046875 310.782226562 -130.748046875 310.782226562 -110.97265625 487.149414062 c 5,33,-1
519.890625 487.149414062 m 1,43,-1
 623.6015625 487.149414062 l 1,44,-1
 623.6015625 22.2080078125 l 1,45,-1
 519.890625 22.2080078125 l 1,46,-1
 519.890625 487.149414062 l 1,43,-1
519.890625 44.9130859375 m 1,47,-1
 621.84375 44.9130859375 l 1,48,-1
 621.84375 14.4443359375 l 2,49,50
 621.84375 -15.5849609375 621.84375 -15.5849609375 648.796875 -15.5849609375 c 0,51,52
 696.84375 -15.5849609375 696.84375 -15.5849609375 713.103515625 39.6396484375 c 1,53,-1
 795.8671875 -4.1591796875 l 1,54,55
 747.8203125 -116.366210938 747.8203125 -116.366210938 649.3828125 -116.366210938 c 0,56,57
 519.890625 -116.952148438 519.890625 -116.952148438 519.890625 -6.6494140625 c 2,58,-1
 519.890625 44.9130859375 l 1,47,-1
623.015625 388.711914062 m 1,59,-1
 519.890625 390.030273438 l 1,60,-1
 521.6484375 953.409179688 l 1,61,-1
 521.6484375 953.995117188 l 1,62,63
 521.0625 1123.77050781 521.0625 1123.77050781 661.1015625 1123.77050781 c 128,-1,64
 801.287109375 1123.77050781 801.287109375 1123.77050781 800.701171875 950.333007812 c 0,65,66
 799.3828125 698.379882812 799.3828125 698.379882812 623.015625 404.971679688 c 1,67,-1
 623.015625 388.711914062 l 1,59,-1
623.6015625 600.528320312 m 1,68,69
 708.26953125 809.415039062 708.26953125 809.415039062 708.85546875 949.161132812 c 0,70,71
 708.85546875 1015.22558594 708.85546875 1015.22558594 661.39453125 1015.22558594 c 0,72,73
 623.015625 1015.22558594 623.015625 1015.22558594 623.6015625 949.161132812 c 0,74,75
 626.091796875 776.309570312 626.091796875 776.309570312 623.6015625 600.528320312 c 1,68,69
754.412109375 -22.1767578125 m 0,76,77
 903.826171875 -22.1767578125 903.826171875 -22.1767578125 906.31640625 488.321289062 c 1,78,-1
 996.2578125 488.321289062 l 1,79,80
 989.666015625 -106.258789062 989.666015625 -106.258789062 751.482421875 -102.596679688 c 0,81,82
 636.19921875 -100.838867188 636.19921875 -100.838867188 636.19921875 40.2255859375 c 1,83,-1
 726.287109375 40.2255859375 l 1,84,85
 726.287109375 -22.1767578125 726.287109375 -22.1767578125 754.412109375 -22.1767578125 c 0,76,77
1080.33984375 487.149414062 m 1,86,-1
 1145.0859375 449.795898438 l 1,87,-1
 839.51953125 -51.3271484375 l 1,88,-1
 774.626953125 -14.1201171875 l 1,89,-1
 1080.33984375 487.149414062 l 1,86,-1
EndSplineSet
Validated: 2085
EndChar

StartChar: koniecPUA
Encoding: 64213 64213 292
Width: 3000
LayerCount: 3
Fore
SplineSet
2300 1320 m 0,0,1
 2834 894 2834 894 2335 370 c 0,2,3
 1854 -136 1854 -136 1130 540 c 0,4,5
 782 865 782 865 1260 1375 c 4,6,7
 1675 1819 1675 1819 2300 1320 c 0,0,1
EndSplineSet
Validated: 33
EndChar

StartChar: stemG.krt
Encoding: 57355 57355 293
Width: 120
VWidth: 0
GlyphClass: 2
Flags: W
LayerCount: 3
Fore
SplineSet
120 541 m 5,0,-1
 120 60 l 1,1,2
 60 60 60 60 0 60 c 1,5,-1
 0 541 l 5,6,7
 60 541 60 541 120 541 c 5,0,-1
0 60 m 1025
EndSplineSet
Refer: 320 57346 N 1 0 0 1 0 0 2
Refer: 320 57346 S 1 0 0 1 0 481 2
Comment: "wys 700"
EndChar

StartChar: stemI
Encoding: 57356 57356 294
Width: 120
VWidth: 0
GlyphClass: 2
Flags: W
LayerCount: 3
Fore
SplineSet
120 340 m 1,0,-1
 120 60 l 1,1,2
 60 60 60 60 0 60 c 1,5,-1
 0 340 l 1,6,7
 60 340 60 340 120 340 c 1,0,-1
0 60 m 1025
EndSplineSet
Refer: 320 57346 N 1 0 0 1 0 0 2
Refer: 320 57346 N 1 0 0 1 0 280 2
Comment: "wys 400"
EndChar

StartChar: lu0
Encoding: 57469 57469 295
Width: 308
VWidth: 0
GlyphClass: 2
Flags: W
LayerCount: 3
Fore
SplineSet
302.372070312 1616.99707031 m 1,0,1
 121 1304 121 1304 119.54296875 818.897460938 c 1,2,3
 120 799 120 799 119.823242188 779.923828125 c 2,4,5
 123 407 123 407 298 89 c 1,6,7
 298 89 298 89 191 28 c 1,10,11
 0 367 0 367 0 777 c 2,12,13
 0 799 0 799 0 821.438476562 c 1,14,15
 13 1354 13 1354 195 1679 c 1,16,17
 249 1648 249 1648 302.372070312 1616.99707031 c 1,0,1
EndSplineSet
Refer: 320 57346 N 1 0 0 1 185 -1 2
Refer: 320 57346 N 1 0 0 1 188 1588 2
EndChar

StartChar: lu1
Encoding: 57470 57470 296
Width: 263
VWidth: 0
GlyphClass: 2
Flags: W
LayerCount: 3
Fore
SplineSet
257.739257812 1199 m 1,0,1
 120.739257812 970 120.739257812 970 121.739257812 669 c 1,2,3
 121.739257812 609.87109375 121.739257812 609.87109375 121.942382812 609.079101562 c 2,4,5
 122.739257812 321 122.739257812 321 254.739257812 91 c 1,6,7
 148.739257812 28 148.739257812 28 148.739257812 28 c 1,10,11
 0.7392578125 285 0.7392578125 285 0.2607421875 611.038085938 c 1,12,13
 -0.2607421875 661.970703125 -0.2607421875 661.970703125 0.2607421875 664.038085938 c 2,14,15
 0.7392578125 1002 0.7392578125 1002 150.739257812 1261 c 1,16,17
 257.739257812 1199 257.739257812 1199 257.739257812 1199 c 1,0,1
EndSplineSet
Refer: 320 57346 N 1 0 0 1 142.261 0.0380859 2
Refer: 320 57346 N 1 0 0 1 143.261 1170.04 2
EndChar

StartChar: lu3
Encoding: 57472 57472 297
Width: 189
VWidth: 0
GlyphClass: 2
Flags: W
LayerCount: 3
Fore
SplineSet
183.918945312 529.359375 m 1,0,1
 120.918945312 417 120.918945312 417 121 320.915039062 c 1,2,3
 120.918945312 195 120.918945312 195 180.918945312 90.359375 c 1,4,5
 127.918945312 60 127.918945312 60 73.9189453125 29.359375 c 1,8,9
 -0.0810546875 157 -0.0810546875 157 0 320.915039062 c 1,10,11
 -0.0810546875 456 -0.0810546875 456 77.9189453125 590.359375 c 1,12,13
 135.918945312 556 135.918945312 556 183.918945312 529.359375 c 1,0,1
EndSplineSet
Refer: 320 57346 N 1 0 0 1 69.9195 499.359 2
Refer: 320 57346 N 1 0 0 1 67.9195 0.359375 2
EndChar

StartChar: lu2
Encoding: 57471 57471 298
Width: 210
VWidth: 0
GlyphClass: 2
Flags: W
LayerCount: 3
Fore
SplineSet
204.208007812 809.530273438 m 1,0,1
 119.5703125 661 119.5703125 661 120.001953125 473.16796875 c 1,2,3
 119.5703125 238 119.5703125 238 202.430664062 90.9033203125 c 1,4,5
 202.430664062 90.9033203125 202.430664062 90.9033203125 95.6669921875 28.8603515625 c 1,8,9
 -0.4296875 198 -0.4296875 198 0.001953125 473.16796875 c 1,10,11
 -0.4296875 698 -0.4296875 698 97.4453125 870.572265625 c 1,12,13
 150.5703125 840 150.5703125 840 204.208007812 809.530273438 c 1,0,1
EndSplineSet
Refer: 320 57346 N 1 0 0 1 90.0019 0.167969 2
Refer: 320 57346 N 1 0 0 1 90.0019 780.168 2
EndChar

StartChar: koloS
Encoding: 57480 57480 300
Width: 600
VWidth: 0
GlyphClass: 2
Flags: W
LayerCount: 3
Fore
SplineSet
299.633789062 600.553710938 m 4,0,1
 416 601 416 601 507 506 c 4,2,3
 600.02606799 412.439703027 600.02606799 412.439703027 600.4609375 303 c 4,4,5
 600.04055299 188.085400308 600.04055299 188.085400308 507 93 c 4,6,7
 416 0 416 0 300.633789062 0.4462890625 c 4,8,9
 184 0 184 0 89 92 c 4,10,11
 0 176.320918085 0 176.320918085 0 301 c 4,12,13
 0 416.989247312 0 416.989247312 92 508 c 4,14,15
 185 600 185 600 299.633789062 600.553710938 c 4,0,1
299.624023438 119.5 m 4,16,17
 375 120 375 120 424 174 c 4,18,19
 481 239 481 239 480.424804688 300.33203125 c 4,20,21
 480 368 480 368 422 424 c 4,22,23
 363 480 363 480 300.624023438 480.287109375 c 4,24,25
 225 480 225 480 176 424 c 4,26,27
 120 359 120 359 119.82421875 300.788085938 c 4,28,29
 120 249 120 249 177 173 c 4,30,31
 218 119 218 119 299.624023438 119.5 c 4,16,17
EndSplineSet
Refer: 320 57346 S 1 0 0 1 240 480 2
Refer: 320 57346 S 1 0 0 1 480 240 2
Refer: 320 57346 S 1 0 0 1 239.634 0.44629 2
Refer: 320 57346 S 1 0 0 1 0 240 2
EndChar

StartChar: koloZ
Encoding: 57481 57481 301
Width: 481
VWidth: 300
GlyphClass: 2
Flags: W
LayerCount: 3
Fore
SplineSet
120 239.853515625 m 0,0,1
 119.856445312 186 119.856445312 186 149.962890625 154.453125 c 0,2,3
 182.856445312 120 182.856445312 120 239.856445312 119.890625 c 0,4,5
 299.856445312 120 299.856445312 120 329.75 149.959960938 c 0,6,7
 361.856445312 182 361.856445312 182 361.712890625 239.853515625 c 4,8,9
 361.856445312 294 361.856445312 294 327.254882812 328.244140625 c 0,10,11
 293.856445312 360 293.856445312 360 239.856445312 360.311523438 c 0,12,13
 181.856445312 360 181.856445312 360 153.461914062 328.244140625 c 0,14,15
 119.856445312 291 119.856445312 291 120 239.853515625 c 0,0,1
0.048828125 240.959960938 m 0,16,17
 -0.1435546875 336 -0.1435546875 336 72.81640625 408 c 128,-1,18
 145.856445312 480 145.856445312 480 241.416992188 479.807617188 c 128,-1,19
 336.856445312 480 336.856445312 480 409.356445312 408 c 128,-1,20
 481.856445312 336 481.856445312 336 481.6640625 240.959960938 c 4,21,22
 481.856445312 143 481.856445312 143 409.356445312 71.5 c 128,-1,23
 336.856445312 0 336.856445312 0 241.416992188 0.1923828125 c 128,-1,24
 145.856445312 0 145.856445312 0 72.8798828125 71.8212890625 c 128,-1,25
 -0.1435546875 143 -0.1435546875 143 0.048828125 240.959960938 c 0,16,17
EndSplineSet
Refer: 320 57346 N 1 0 0 1 179.856 0 2
Refer: 320 57346 S 1 0 0 1 361.856 180 2
Refer: 320 57346 N 1 0 0 1 179.856 360 2
Refer: 320 57346 N 1 0 0 1 3.125e-07 179.854 2
EndChar

StartChar: polokrM.1
Encoding: 58160 58160 308
Width: 265
GlyphClass: 2
Flags: W
LayerCount: 3
Fore
SplineSet
0 0 m 5,0,-1
 0.39453125 120.096679688 l 5,1,2
 45 120 45 120 77.5 151 c 4,3,4
 110 182 110 182 109.872070312 226.576171875 c 4,5,6
 110 271 110 271 77.5 301 c 4,7,8
 45 331 45 331 0.39453125 331.352539062 c 5,9,-1
 0 451.450195312 l 5,10,11
 95 451 95 451 159.880859375 386.51953125 c 4,12,13
 226 321 226 321 225.810546875 226.637695312 c 4,14,15
 226 132 226 132 159.880859375 65.931640625 c 4,16,17
 94 0 94 0 0 0 c 5,0,-1
EndSplineSet
Refer: 320 57346 S 1 0 0 1 -60 -4.54747e-13 2
Refer: 320 57346 S 1 0 0 1 -60 331 2
EndChar

StartChar: polokrD.1
Encoding: 58164 58164 312
Width: 410
GlyphClass: 2
Flags: W
LayerCount: 3
Fore
SplineSet
60.1328125 1 m 1,0,-1
 60 119 l 1,1,2
 176 119 176 119 263.5 255 c 0,3,4
 292 300 292 300 292 402 c 0,5,6
 292 504 292 504 264 542 c 0,7,8
 177 659 177 659 60 658.883789062 c 1,9,-1
 60.1328125 778.75390625 l 1,10,11
 212 779 212 779 314.5 661 c 0,12,13
 411 551 411 551 411.260742188 400.625976562 c 0,14,15
 411 245 411 245 313.517578125 123.745117188 c 0,16,17
 214 1 214 1 60.1328125 1 c 1,0,-1
EndSplineSet
Refer: 320 57346 N 1 0 0 1 291 342 2
Refer: 320 57346 N 1 0 0 1 0 0 2
Refer: 320 57346 N 1 0 0 1 0 658 2
EndChar

StartChar: okroci
Encoding: 58176 58176 316
Width: 542
GlyphClass: 2
Flags: W
LayerCount: 3
Back
SplineSet
190.1328125 1 m 5,0,-1
 190 119 l 5,1,2
 306 119 306 119 393.5 255 c 132,-1,4
 422 300 422 300 422 402 c 4,5,6
 422 504 422 504 394 542 c 4,7,8
 307 659 307 659 190 658.883789062 c 5,9,-1
 190.1328125 778.75390625 l 5,10,11
 342 779 342 779 444.5 661 c 4,12,13
 541 551 541 551 541.260742188 400.625976562 c 4,14,15
 541 245 541 245 443.517578125 123.745117188 c 4,16,17
 344 1 344 1 190.1328125 1 c 5,0,-1
EndSplineSet
Refer: 320 57346 S 1 0 0 1 130 658 2
Refer: 320 57346 S 1 0 0 1 130 0 2
Refer: 320 57346 S 1 0 0 1 421 342 2
Fore
SplineSet
190.1328125 0 m 1,0,-1
 190 120 l 1,1,2
 248 123 248 123 292 150.211914062 c 0,3,4
 308 160 308 160 345 197 c 0,5,6
 384.333007812 236.333007812 384.333007812 236.333007812 410 328 c 0,7,8
 431 403 431 403 410 476.5 c 0,9,10
 386.01171875 565.772460938 386.01171875 565.772460938 346.5 595.5 c 0,11,12
 272 653 272 653 224 656 c 0,13,14
 162 659 162 659 101 590 c 1,15,-1
 20 685 l 1,16,17
 93 779 93 779 199.481445312 779.28125 c 0,18,19
 339 780 339 780 446.5 658 c 0,20,21
 542 549 542 549 542 403 c 0,22,23
 542 312 542 312 507 228 c 0,24,25
 449 89 449 89 346 39.81640625 c 0,26,27
 257 -2 257 -2 190.1328125 0 c 1,0,-1
EndSplineSet
Refer: 320 57346 N 1 0 0 1 130 0 2
Refer: 320 57346 N 1 0 0 1 421 343 2
Refer: 320 57346 N 1 0 0 1 330 93 2
Refer: 320 57346 N 1 0 0 1 0 578 2
EndChar

StartChar: prostaVOW
Encoding: 57348 57348 318
Width: 80
GlyphClass: 2
Flags: W
LayerCount: 3
Fore
SplineSet
0 900 m 1,0,-1
 80 900 l 1,1,-1
 80 0 l 1,2,-1
 0 0 l 1,3,-1
 0 900 l 1,0,-1
EndSplineSet
Validated: 1
EndChar

StartChar: prostaCONS
Encoding: 57347 57347 319
Width: 125
GlyphClass: 2
Flags: W
LayerCount: 3
Fore
SplineSet
0.1103515625 900 m 5,0,-1
 120.110351562 900 l 5,1,-1
 119.684570312 0.3310546875 l 5,2,-1
 0 -0.0341796875 l 5,3,-1
 0.1103515625 900 l 5,0,-1
EndSplineSet
Layer: 2
SplineSet
60.1103515625 353 m 4
 99.384765625 353 125.110351562 332.149414062 125.110351562 292 c 4
 125.110351562 248 106.110351562 227 61.1103515625 227 c 4
 26.8349609375 227 0.1103515625 247 0.1103515625 291 c 4
 0.1103515625 325 21.1103515625 353 60.1103515625 353 c 4
EndSplineSet
EndChar

StartChar: konCONS
Encoding: 57346 57346 320
Width: 120
GlyphClass: 2
Flags: W
LayerCount: 3
Fore
SplineSet
0 60 m 132,-1,0
 0 85 0 85 18 102 c 4,1,2
 36 120 36 120 60 120 c 132,-1,3
 84 120 84 120 102 102.5 c 132,-1,4
 120 85 120 85 120 60.5 c 132,-1,5
 120 36 120 36 102.5 18 c 132,-1,6
 85 0 85 0 60 0 c 132,-1,7
 35 0 35 0 18 18 c 4,8,9
 0 35 0 35 0 60 c 132,-1,0
60 80 m 29,0,-1
 60 40 l 5,1,-1
 40 60 l 5,2,-1
 80 60 l 1029,3,-1
EndSplineSet
Layer: 2
SplineSet
60 80 m 29
 60 40 l 29
 40 60 l 29
 80 60 l 1053
60 120 m 128
 78 120 92.6666666667 114.666666667 104 104 c 0
 114.666666667 92.6666666667 120 78 120 60 c 0
 120 41.3333333333 114.5 26.6666666667 103.5 16 c 128
 92.5 5.33333333333 78 0 60 0 c 128
 42 0 27.5 5.5 16.5 16.5 c 128
 5.5 27.5 0 42 0 60 c 0
 0 77.3333333333 5.66666666667 91.6666666667 17 103 c 0
 27.6666666667 114.333333333 42 120 60 120 c 128
EndSplineSet
EndChar

StartChar: konVOW
Encoding: 57345 57345 322
Width: 120
GlyphClass: 2
Flags: W
LayerCount: 3
Fore
SplineSet
0 60 m 132,-1,0
 0 85 0 85 18 102 c 4,1,2
 36 120 36 120 60 120 c 132,-1,3
 84 120 84 120 102 102.5 c 132,-1,4
 120 85 120 85 120 60.5 c 132,-1,5
 120 36 120 36 102.5 18 c 132,-1,6
 85 0 85 0 60 0 c 132,-1,7
 35 0 35 0 18 18 c 4,8,9
 0 35 0 35 0 60 c 132,-1,0
EndSplineSet
Layer: 2
SplineSet
40 80 m 132
 66.6666666667 80 80 66.6666666667 80 40 c 132
 80 13.3333333333 66.6666666667 0 40 0 c 132
 13.3333333333 0 0 13.3333333333 0 40 c 132
 0 66.6666666667 13.3333333333 80 40 80 c 132
EndSplineSet
EndChar

StartChar: dolTW
Encoding: 58268 58268 325
Width: 237
Flags: W
LayerCount: 3
Fore
SplineSet
97 109 m 5,6,7
 115 104 115 104 133 104 c 4,8,9
 152 104 152 104 170 109 c 1,10,11
 170 109 170 109 256 22 c 1,18,19
 227 -18 227 -18 137 -17 c 0,20,21
 41 -16 41 -16 9 23 c 1,22,23
 97 109 97 109 97 109 c 5,6,7
EndSplineSet
Refer: 320 57346 N 1 0 0 1 146 0 2
Refer: 320 57346 N 1 0 0 1 0 0 2
EndChar

StartChar: dolMK30
Encoding: 58269 58269 326
Width: 434
Flags: W
LayerCount: 3
Fore
SplineSet
119.46875 36 m 25,0,-1
 0 -166 l 1,1,-1
 0 67 l 1,2,3
 30 67 30 67 60 67 c 1,4,5
 90 67 90 67 120 67 c 1,6,-1
 119.46875 36 l 25,0,-1
EndSplineSet
Refer: 320 57346 N 1 0 0 1 0.46875 7 2
Refer: 320 57346 N 1 0 0 1 2.4688 0 2
EndChar

StartChar: dolETW
Encoding: 58270 58270 327
Width: 335
Flags: W
LayerCount: 3
Fore
SplineSet
0 143 m 1,0,-1
 120 143 l 1,1,-1
 121 139 121 139 182 140 c 1,7,-1
 181.6953125 20.083984375 l 1,8,-1
 93 20 93 20 60 39 c 0,11,12
 0 75 0 75 0 139.650390625 c 2,13,-1
 0 143 l 1,0,-1
EndSplineSet
Refer: 320 57346 N 1 0 0 1 0 80 2
Refer: 320 57346 N 1 0 0 1 122 20 2
EndChar

StartChar: dolMKE
Encoding: 58271 58271 328
Width: 120
Flags: W
LayerCount: 3
Fore
SplineSet
120 66 m 17,0,-1
 120 54 120 54 120 7 c 1,2,-1
 -1 -13 l 1,3,-1
 0 52 l 1,4,-1
 0 66 l 25,5,-1
 120 66 l 17,0,-1
EndSplineSet
Refer: 320 57346 N 1 0 0 1 0 0 2
Refer: 320 57346 N 1 0 0 1 0 6 2
EndChar

StartChar: luU0
Encoding: 58197 58197 329
Width: 549
Flags: W
LayerCount: 3
Fore
SplineSet
217 -44 m 0,0,1
 428 -44 428 -44 428 780 c 1,2,-1
 549 780 l 1,3,4
 548 -174 548 -174 213.956054688 -174 c 0,5,6
 0 -174 0 -174 0 48 c 6,0,0
 0 54 0 54 0 60 c 1,7,-1
 120 60 l 1,8,9
 120 54 120 54 120 49 c 2,0,0
 120 -44 120 -44 217 -44 c 0,0,1
EndSplineSet
Refer: 320 57346 N 1 0 0 1 0 0 2
Refer: 320 57346 N 1 0 0 1 429 720 2
EndChar

StartChar: luU2
Encoding: 58199 58199 330
Width: 773
Flags: W
LayerCount: 3
Fore
SplineSet
188.965820312 -73 m 4,0,1
 287 -74 287 -74 656.860351562 546.10546875 c 1,2,-1
 761.649414062 485.60546875 l 1,3,4
 370 -192 370 -192 188 -192 c 0,5,6
 0.472566048296 -192 0.472566048296 -192 0.44140625 32 c 2,0,0
 -0 33 -0 33 0.4375 60.0810546875 c 1,7,-1
 120 60 l 1,8,9
 120 22.1131321151 120 22.1131321151 120.08203125 22 c 2,0,0
 120 -72 120 -72 188.965820312 -73 c 4,0,1
EndSplineSet
Refer: 320 57346 N 0.866025 -0.5 0.5 0.866025 627.727 493.644 2
Refer: 320 57346 N 0.999999 -2.17497e-07 2.17497e-07 0.999999 0.437626 0.0811802 2
EndChar

StartChar: luNdol
Encoding: 58258 58258 331
Width: 452
Flags: W
LayerCount: 3
Fore
SplineSet
219 -10 m 0,0,1
 304 1 304 1 335 64 c 1,2,-1
 449 16 l 1,3,4
 443 3 443 3 435 -6.869140625 c 0,5,6
 360 -117 360 -117 254 -131 c 0,7,8
 80.0112052124 -154.385590697 80.0112052124 -154.385590697 18 -56.86328125 c 4,9,10
 14 -49 14 -49 9 -41 c 1,11,-1
 111 31 l 1,12,13
 155 -18 155 -18 219 -10 c 0,0,1
EndSplineSet
Refer: 320 57346 N 1 0 0 1 332 -20 2
Refer: 320 57346 N 1 0 0 1 0 -65 2
EndChar

StartChar: dolKszMKE
Encoding: 58273 58273 332
Width: 924
Flags: W
LayerCount: 3
Fore
SplineSet
2 38 m 1,0,-1
 118 81 l 1,1,-1
 124 60 l 1,2,-1
 159.4453125 60.033203125 l 1,3,-1
 159.0546875 -59.8994140625 l 1,4,-1
 40 -69 l 1,5,-1
 2 38 l 1,0,-1
EndSplineSet
Refer: 320 57346 N 1 0 0 1 0 0 2
Refer: 320 57346 N 2.22045e-16 -1 1 2.22045e-16 99 60 2
EndChar

StartChar: dolKszMK
Encoding: 58274 58274 333
Width: 711
Flags: W
LayerCount: 3
Fore
SplineSet
2 38 m 1,0,-1
 118 81 l 1,1,-1
 127 55 l 1,2,-1
 142 80 l 1,3,-1
 247 12 l 1,4,-1
 95 -168 l 1,5,-1
 2 38 l 1,0,-1
EndSplineSet
Refer: 320 57346 N 1 0 0 1 0 0 2
Refer: 320 57346 N 1 0 0 1 134 -14 2
EndChar

StartChar: dolLUK30
Encoding: 58275 58275 334
Width: 462
Flags: W
LayerCount: 3
Fore
SplineSet
0 60 m 1,0,-1
 120 60 l 1,1,-1
 120 44 l 2,2,3
 120 -20 120 -20 230 -20 c 4,4,5
 292 -20 292 -20 348 61 c 1,6,-1
 456 0 l 1,7,8
 368 -139 368 -139 229 -140 c 4,9,10
 0 -141 0 -141 0 44 c 2,11,-1
 0 60 l 1,0,-1
EndSplineSet
Refer: 320 57346 N 1 0 0 1 0 0 2
Refer: 320 57346 N 1 0 0 1 342 -29 2
EndChar

StartChar: koloL
Encoding: 57482 57482 340
Width: 280
Flags: W
LayerCount: 3
Fore
SplineSet
140.799804688 279.80078125 m 0,0,1
 195 280 195 280 234.799804688 242.200195312 c 0,2,3
 280 200 280 200 280.400390625 141.400390625 c 0,4,5
 280 72 280 72 235.600585938 36.6005859375 c 0,7,8
 189 0 189 0 140.799804688 0 c 0,9,10
 89 0 89 0 41 41 c 0,11,12
 0 76 0 76 0 140.400390625 c 0,14,15
 0 202 0 202 44 242.200195312 c 0,16,17
 86 280 86 280 140.799804688 279.80078125 c 0,0,1
EndSplineSet
EndChar

StartChar: luU1
Encoding: 58198 58198 352
Width: 587
Flags: W
LayerCount: 3
Fore
SplineSet
194 -44 m 0,0,1
 465 -44 465 -44 465 780 c 1,2,-1
 586 780 l 1,3,4
 585 -171 585 -171 191 -164 c 0,5,6
 0 -161 0 -161 0 60 c 1,7,-1
 120 60 l 1,8,9
 120 -44 120 -44 194 -44 c 0,0,1
EndSplineSet
Refer: 320 57346 N 1 0 0 1 0 0 2
Refer: 320 57346 N 1 0 0 1 466 720 2
EndChar

StartChar: luU3
Encoding: 58200 58200 353
Width: 882
Flags: W
LayerCount: 3
Fore
SplineSet
244 -44 m 0,0,1
 431 -44 431 -44 765.504882812 548.728515625 c 1,2,-1
 870.293945312 488.228515625 l 1,3,4
 493.868077117 -164 493.868077117 -164 241 -164 c 0,5,6
 0 -164 0 -164 0 51 c 2,0,0
 0 51 0 51 0 60 c 1,7,-1
 120.000976562 60 l 1,8,9
 120.000976562 60 120.000976562 60 120 49 c 2,0,0
 120 -44 120 -44 244 -44 c 0,0,1
EndSplineSet
Refer: 320 57346 N 1 -2.01892e-07 2.01892e-07 1 0.00029 0.00045 2
Refer: 320 57346 N 0.866025 -0.5 0.5 0.866025 736.372 496.268 2
EndChar

StartChar: luU4
Encoding: 58201 58201 354
Width: 500
Flags: W
LayerCount: 3
Fore
SplineSet
230 -44 m 0,0,1
 380 -43 380 -43 380 103 c 6,0,0
 380 103 380 103 380 120 c 1,2,-1
 500 120 l 1,3,4
 500 120 500 120 500.086914062 105 c 2,0,0
 502 -165 502 -165 227 -164 c 0,5,6
 0 -163 0 -163 0 48.7265625 c 2,0,0
 0 48.7265625 0 48.7265625 0 60 c 1,7,-1
 120 60 l 1,8,9
 120 60 120 60 120 49.646484375 c 2,0,0
 120 -45 120 -45 230 -44 c 0,0,1
EndSplineSet
Refer: 320 57346 N 1 0 0 1 380 60 2
Refer: 320 57346 N 1 0 0 1 0 0 2
EndChar

StartChar: luU5
Encoding: 58202 58202 355
Width: 455
Flags: W
LayerCount: 3
Fore
SplineSet
435.5 588.999023438 m 1,0,1
 422.742324464 571.250297359 422.742324464 571.250297359 422 565.616210938 c 4,2,3
 422 429 422 429 515.127929688 429.56640625 c 0,4,5
 636.549475976 429.012795368 636.549475976 429.012795368 720.70703125 747.670898438 c 1,6,-1
 824.251953125 687.907226562 l 1,7,8
 715.897969228 313.386090622 715.897969228 313.386090622 524.994140625 313.143554688 c 4,9,10
 377 313 377 313 331 408 c 1,11,12
 331 408 331 408 114 32.14453125 c 1,13,-1
 10.076171875 92.14453125 l 1,14,15
 166 362 166 362 331.576171875 648.999023438 c 1,16,17
 384 619 384 619 435.5 588.999023438 c 1,0,1
EndSplineSet
Refer: 320 57346 N 0.866025 -0.5 0.5 0.866025 -19.9235 40.1833 2
Refer: 320 57346 N 0.866025 -0.5 0.5 0.866025 690.329 695.946 2
Refer: 320 57346 N 0.866025 -0.5 0.5 0.866025 301.577 597.038 2
EndChar

StartChar: luKLY
Encoding: 58084 58084 399
Width: 333
Flags: W
LayerCount: 3
Fore
SplineSet
213.626953125 174 m 1,0,-1
 333.626953125 174 l 1,1,2
 333.501953125 171 333.501953125 171 333.251953125 139.625 c 0,3,4
 333.504882812 -63 333.504882812 -63 140.501953125 -63 c 0,5,6
 16.501953125 -63 16.501953125 -63 16.001953125 78.875 c 0,7,8
 15.501953125 221 15.501953125 221 140.501953125 221 c 0,9,10
 213.501953125 221 213.501953125 221 213.626953125 139 c 1,11,-1
 213.626953125 174 l 1,0,-1
EndSplineSet
Refer: 340 57482 S 1 0 0 1 0 -67 2
Refer: 320 57346 N 1 0 0 1 197.502 0 2
Refer: 320 57346 N 1 0 0 1 213.502 114 2
EndChar

StartChar: dolMK45
Encoding: 7 7 400
Width: 666
Flags: W
LayerCount: 3
Fore
SplineSet
119.46875 28 m 5,0,-1
 0 -80 l 1,1,-1
 0 81 l 1,2,3
 0 140 0 140 60 140 c 1,4,5
 120 140 120 140 120 81 c 0,6,7
 120 54 120 54 119.46875 28 c 5,0,-1
EndSplineSet
Refer: 320 57346 N 1 0 0 1 0.4688 0 2
Refer: 320 57346 N 1 0 0 1 0.46875 20 2
EndChar

StartChar: dolKszTWE
Encoding: 58272 58272 408
Width: 218
Flags: W
LayerCount: 3
Fore
SplineSet
168 120 m 1,0,1
 168 120 168 120 168 0 c 1,4,5
 115.608695652 6.88338275268e-15 115.608695652 6.88338275268e-15 71 19 c 4,6,7
 14 44 14 44 1.6181640625 100.478515625 c 5,8,9
 20 105 20 105 118.381835938 131.521484375 c 1,12,13
 124 120 124 120 168 120 c 1,0,1
EndSplineSet
Refer: 320 57346 N 1 0 0 1 0.29126 55 2
Refer: 320 57346 N 0.9999 0 0 0.9999 108.297 0.000996289 2
EndChar

StartChar: koloZ.krt
Encoding: 57483 57483 412
Width: 399
Flags: W
LayerCount: 3
Fore
SplineSet
119.983398438 199.918945312 m 0,0,1
 119.888671875 164.03125 119.888671875 164.03125 139.952148438 143.0078125 c 0,2,3
 161.87109375 120.048828125 161.87109375 120.048828125 199.856445312 119.9765625 c 0,4,5
 239.755859375 120.052734375 239.755859375 120.052734375 259.760742188 140.013671875 c 0,6,7
 279.82421875 160.032226562 279.82421875 160.032226562 279.729492188 199.918945312 c 0,8,9
 279.82421875 237.334960938 279.82421875 237.334960938 258.099609375 258.823242188 c 0,10,11
 235.842773438 279.984375 235.842773438 279.984375 199.856445312 280.192382812 c 0,12,13
 161.206054688 279.984375 161.206054688 279.984375 142.283203125 258.823242188 c 0,14,15
 119.888671875 234.002929688 119.888671875 234.002929688 119.983398438 199.918945312 c 0,0,1
0.0966796875 200.799804688 m 0,16,17
 -0.0634765625 279.967773438 -0.0634765625 279.967773438 60.7119140625 339.943359375 c 128,-1,18
 121.48828125 399.919921875 121.48828125 399.919921875 201.15625 399.759765625 c 128,-1,19
 280.624023438 399.919921875 280.624023438 399.919921875 340.200195312 339.943359375 c 128,-1,20
 399.776367188 279.967773438 399.776367188 279.967773438 399.616210938 200.799804688 c 0,21,22
 399.776367188 119.232421875 399.776367188 119.232421875 340.200195312 59.65625 c 128,-1,23
 280.624023438 0.080078125 280.624023438 0.080078125 201.15625 0.240234375 c 128,-1,24
 121.48828125 0.080078125 121.48828125 0.080078125 60.765625 59.9072265625 c 128,-1,25
 -0.0634765625 119.232421875 -0.0634765625 119.232421875 0.0966796875 200.799804688 c 0,16,17
EndSplineSet
Refer: 320 57346 N 1 0 0 1 3.125e-07 139.573 2
Refer: 320 57346 N 1 0 0 1 139.856 280 2
Refer: 320 57346 N 1 0 0 1 279.856 140 2
Refer: 320 57346 S 1 0 0 1 139.856 -4.54747e-13 2
EndChar

StartChar: okredzi
Encoding: 58184 58184 413
Width: 301
Flags: W
LayerCount: 3
Fore
SplineSet
63.4267578125 -0.0546875 m 1,0,-1
 63.861328125 120.3515625 l 1,1,2
 113 120 113 120 147 153 c 0,3,4
 180 184 180 184 180.561523438 248.74609375 c 0,5,6
 181 298 181 298 144.87109375 331.297851562 c 0,7,8
 98 376 98 376 59.861328125 376.262695312 c 1,9,-1
 59.4267578125 496.669921875 l 1,10,11
 159 496 159 496 232.6953125 423.083007812 c 0,12,13
 301 356 301 356 301.383789062 248.813476562 c 0,14,15
 302 142 302 142 235.6953125 76.634765625 c 0,16,17
 159 0 159 0 63.4267578125 -0.0546875 c 1,0,-1
EndSplineSet
Refer: 320 57346 N 1 0 0 1 4 0 2
Refer: 320 57346 N 1 0 0 1 180 186 2
Refer: 320 57346 N 1 0 0 1 0 376 2
EndChar

StartChar: okrodzi
Encoding: 58185 58185 414
Width: 386
Flags: W
LayerCount: 3
Fore
SplineSet
136.46875 -0.0546875 m 1,0,-1
 136.903320312 120.3515625 l 1,1,2
 190 120 190 120 223.041992188 152 c 0,3,4
 264 191 264 191 264.603515625 246.74609375 c 0,5,6
 265 305 265 305 223 339 c 0,7,8
 163 390 163 390 93.080078125 336.575195312 c 1,9,-1
 28 443.696289062 l 1,10,11
 116 512 116 512 209 486 c 0,12,13
 311 457 311 457 358 353 c 0,14,15
 427 202 427 202 331 89 c 0,16,17
 255 0 255 0 136.46875 -0.0546875 c 1,0,-1
EndSplineSet
Refer: 320 57346 N 1 0 0 1 77 0 2
Refer: 320 57346 N 1 0 0 1 248 105 2
Refer: 320 57346 N 1 0 0 1 0 331 2
EndChar

StartChar: i.ful30
Encoding: 58651 58651 452
Width: 508
Flags: W
LayerCount: 3
Fore
SplineSet
193.959960938 322.50390625 m 29,0,-1
 313.428710938 524.50390625 l 1,1,-1
 313.428710938 281.50390625 l 1,2,3
 313.428710938 220.50390625 313.428710938 220.50390625 253.428710938 220.00390625 c 1,4,5
 193.428710938 219.50390625 193.428710938 219.50390625 193.428710938 278.50390625 c 9,6,-1
 193.959960938 322.50390625 l 29,0,-1
252.959960938 260.50390625 m 29,0,-1
 252.959960938 300.50390625 l 29,1,-1
 272.959960938 280.50390625 l 29,2,-1
 232.959960938 280.50390625 l 1053,3,-1
252.959960938 220.50390625 m 132,-1,5
 224.959960938 220.50390625 224.959960938 220.50390625 208.959960938 236.50390625 c 132,-1,6
 192.959960938 252.50390625 192.959960938 252.50390625 192.959960938 280.50390625 c 4,7,8
 192.959960938 310.50390625 192.959960938 310.50390625 209.994140625 326.50390625 c 4,9,10
 224.959960938 340.50390625 224.959960938 340.50390625 252.959960938 340.50390625 c 132,-1,11
 280.959960938 340.50390625 280.959960938 340.50390625 295.92578125 326.50390625 c 4,12,13
 312.959960938 310.50390625 312.959960938 310.50390625 312.959960938 280.50390625 c 4,14,15
 312.959960938 252.50390625 312.959960938 252.50390625 296.959960938 236.50390625 c 132,-1,4
 280.959960938 220.50390625 280.959960938 220.50390625 252.959960938 220.50390625 c 132,-1,5
252.959960938 279.50390625 m 29,0,-1
 252.959960938 319.50390625 l 29,1,-1
 272.959960938 299.50390625 l 29,2,-1
 232.959960938 299.50390625 l 1053,3,-1
252.959960938 239.50390625 m 132,-1,5
 224.959960938 239.50390625 224.959960938 239.50390625 208.959960938 255.50390625 c 132,-1,6
 192.959960938 271.50390625 192.959960938 271.50390625 192.959960938 299.50390625 c 4,7,8
 192.959960938 329.50390625 192.959960938 329.50390625 209.994140625 345.50390625 c 4,9,10
 224.959960938 359.50390625 224.959960938 359.50390625 252.959960938 359.50390625 c 132,-1,11
 280.959960938 359.50390625 280.959960938 359.50390625 295.92578125 345.50390625 c 4,12,13
 312.959960938 329.50390625 312.959960938 329.50390625 312.959960938 299.50390625 c 4,14,15
 312.959960938 271.50390625 312.959960938 271.50390625 296.959960938 255.50390625 c 132,-1,4
 280.959960938 239.50390625 280.959960938 239.50390625 252.959960938 239.50390625 c 132,-1,5
EndSplineSet
Refer: 282 57357 N 1 0 0 1 192.96 0 2
Refer: 326 58269 N 1 0 0 1 192.96 0 2
Refer: 294 57356 N 0.866025 -0.5 0.5 0.866025 174.13 41.369 2
Refer: 294 57356 S 0.866025 -0.5 0.5 0.866025 -19.0194 -51.6042 2
EndChar

StartChar: luNOdol
Encoding: 58260 58260 456
Width: 776
Flags: W
LayerCount: 3
Fore
SplineSet
375 -66 m 0,0,1
 572 -55 572 -55 659 64 c 1,2,-1
 773 16 l 1,3,4
 768 4 768 4 743 -30.869140625 c 0,5,6
 631.08227982 -187.68708963 631.08227982 -187.68708963 375 -193 c 0,7,8
 134 -198 134 -198 18 -56.86328125 c 0,9,10
 12.97585201 -49.6114450004 12.97585201 -49.6114450004 9 -41 c 1,11,-1
 111 31 l 1,12,13
 213 -76 213 -76 375 -66 c 0,0,1
EndSplineSet
Refer: 320 57346 N 1 0 0 1 0 -65 2
Refer: 320 57346 N 1 0 0 1 656 -20 2
EndChar

StartChar: OstrI
Encoding: 58283 58283 458
Width: 120
Flags: W
LayerCount: 3
Fore
SplineSet
120 140 m 29,0,-1
 120 120 l 5,1,-1
 120 -85 l 5,2,-1
 0 30 l 5,3,-1
 0 38 l 5,4,-1
 0 140 l 29,5,-1
 120 140 l 29,0,-1
EndSplineSet
Refer: 320 57346 S 1 0 0 1 0 80 2
Refer: 320 57346 S 1 0 0 1 0 -1 2
EndChar

StartChar: gorOMluk30
Encoding: 58277 58277 460
Width: 780
Flags: W
LayerCount: 3
Fore
SplineSet
780 23 m 5,0,-1
 660 23 l 1,1,-1
 660 59 l 2,2,3
 660 202 660 202 375 201 c 0,4,5
 196 200 196 200 114 29 c 1,6,-1
 6 90 l 1,7,8
 137 330 137 330 376 331 c 0,9,10
 780 333 780 333 780 59 c 2,11,-1
 780 23 l 5,0,-1
EndSplineSet
Refer: 320 57346 N -1 0 0 -1 780 83 2
Refer: 320 57346 N -1 0 0 -1 120 119 2
EndChar

StartChar: dolLUK45
Encoding: 58279 58279 462
Width: 460
Flags: W
LayerCount: 3
Fore
SplineSet
0 60 m 1,0,-1
 120 60 l 1,1,-1
 120 44 l 2,2,3
 120 -20 120 -20 196 -20 c 0,4,5
 245 -20 245 -20 355.637695312 73.9267578125 c 5,6,-1
 444.169921875 -12.947265625 l 5,7,8
 307 -139 307 -139 195 -140 c 0,9,10
 0 -141 0 -141 0 44 c 2,11,-1
 0 60 l 1,0,-1
EndSplineSet
Refer: 320 57346 S 0.965926 -0.258819 0.258819 0.965926 326.548 -11.4536 2
Refer: 320 57346 N 1 0 0 1 0 0 2
EndChar

StartChar: gorOMluk45
Encoding: 58284 58284 464
Width: 780
Flags: W
LayerCount: 3
Fore
SplineSet
780.818359375 23 m 1,0,-1
 660.818359375 23 l 1,1,-1
 660.818359375 59 l 2,2,3
 660.818359375 202 660.818359375 202 375.818359375 201 c 0,4,5
 262.818359375 200 262.818359375 200 105.180664062 16.0732421875 c 1,6,-1
 16.6484375 102.947265625 l 1,7,8
 233.818359375 330 233.818359375 330 376.818359375 331 c 0,9,10
 780.818359375 333 780.818359375 333 780.818359375 59 c 2,11,-1
 780.818359375 23 l 1,0,-1
EndSplineSet
Refer: 320 57346 N -1 0 0 -1 780.818 83 2
Refer: 320 57346 N -0.965926 0.258819 -0.258819 -0.965926 134.27 101.454 2
EndChar

StartChar: s.luk.0.9
Encoding: 57515 57515 466
Width: 1600
Flags: W
LayerCount: 3
Fore
SplineSet
120.001953125 60 m 5,0,1
 60 60 60 60 0 60 c 5,4,5
 0 1600 0 1600 1540.68847656 1600.609375 c 1,10,-1
 1540.59472656 1479.83691406 l 1,11,12
 120 1480 120 1480 120.001953125 60 c 5,0,1
EndSplineSet
Refer: 320 57346 N 7.07107e-07 1 -1 7.07107e-07 120.004 -0.27538 2
Refer: 320 57346 N -2.01892e-07 1 -1 -2.01892e-07 1600.69 1480.46 2
EndChar

StartChar: v.luk.0.9
Encoding: 57520 57520 467
Width: 299
Flags: W
LayerCount: 3
Fore
SplineSet
119.965820312 60 m 1,0,-1
 0.1591796875 59.7919921875 l 1,1,2
 -0 300 -0 300 240.1640625 300.322265625 c 5,3,-1
 240.33984375 179.611328125 l 5,4,5
 120 180 120 180 119.965820312 60 c 1,0,-1
EndSplineSet
Refer: 320 57346 N 1.11022e-16 1 -1 1.11022e-16 120 -0.363952 2
Refer: 320 57346 S -2.01892e-07 1 -1 -2.01892e-07 299.646 179.931 2
EndChar

StartChar: f.luk.0.9
Encoding: 57516 57516 468
Width: 1199
Flags: W
LayerCount: 3
Fore
SplineSet
120.001953125 60 m 1,0,1
 60 60 60 60 0 60 c 1,4,5
 0 1200 0 1200 1139.72753906 1199.88085938 c 5,10,-1
 1140 1080 l 5,11,12
 120 1080 120 1080 120.001953125 60 c 1,0,1
EndSplineSet
Refer: 320 57346 N 7.07107e-07 1 -1 7.07107e-07 120.004 -0.27538 2
Refer: 320 57346 S -2.01892e-07 1 -1 -2.01892e-07 1199.74 1079.73 2
EndChar

StartChar: lu4
Encoding: 57473 57473 469
Width: 163
Flags: W
LayerCount: 3
Fore
SplineSet
157.918945312 301.359375 m 1,0,1
 121 238 121 238 121 193.915039062 c 1,2,3
 121 148 121 148 154.918945312 90.359375 c 1,4,5
 102 60 102 60 47.9189453125 29.359375 c 1,8,9
 0 106 0 106 0 193.915039062 c 1,10,11
 0 274 0 274 51.9189453125 362.359375 c 1,12,13
 110 328 110 328 157.918945312 301.359375 c 1,0,1
EndSplineSet
Refer: 320 57346 N 1 0 0 1 43.9192 271.359 2
Refer: 320 57346 N 1 0 0 1 41.9192 0.359375 2
EndChar

StartChar: p.brh.4
Encoding: 57380 57380 470
Width: 480
Flags: W
LayerCount: 3
Fore
SplineSet
118.2890625 47 m 1,0,1
 89.2890625 48 89.2890625 48 60.2890625 48 c 1,2,3
 30.2890625 48 30.2890625 48 0.2890625 48 c 1,4,5
 0.2890625 454 0.2890625 454 0.2890625 551 c 1,6,7
 1.2890625 899 1.2890625 899 234.7890625 899 c 4,8,9
 480.2890625 899 480.2890625 899 480.2890625 600 c 0,10,11
 480.2890625 409 480.2890625 409 118.2890625 47 c 1,0,1
120.2890625 217 m 1,12,13
 359.2890625 457 359.2890625 457 360.2890625 600 c 0,14,15
 361.2890625 776 361.2890625 776 234.2890625 776 c 4,16,17
 120.2890625 776 120.2890625 776 120.2890625 544 c 0,18,19
 120.2890625 512 120.2890625 512 120.2890625 217 c 1,12,13
EndSplineSet
Refer: 320 57346 N 1 0 0 1 0.287169 -4.54747e-13 2
Refer: 320 57346 N 1 0 0 1 0.287169 12 2
Layer: 2
SplineSet
119.952148438 658.333984375 m 4
 119.856445312 622.431640625 129.84375 593.96484375 149.915039062 572.93359375 c 4
 171.84375 549.96484375 201.80859375 538.444335938 239.80859375 538.37109375 c 4
 279.723632812 538.447265625 309.688476562 548.470703125 329.702148438 568.440429688 c 4
 349.7734375 588.466796875 359.760742188 618.431640625 359.665039062 658.333984375 c 4
 359.760742188 695.764648438 348.94140625 725.228515625 327.20703125 746.724609375 c 4
 304.94140625 767.895507812 275.80859375 778.583984375 239.80859375 778.791992188 c 4
 201.141601562 778.583984375 172.34375 767.895507812 153.4140625 746.724609375 c 4
 131.010742188 721.895507812 119.856445312 692.431640625 119.952148438 658.333984375 c 4
0.0009765625 659.440429688 m 4
 -0.126953125 722.80078125 24.12890625 778.48046875 72.7685546875 826.48046875 c 132
 121.408203125 874.48046875 177.608398438 898.416015625 241.369140625 898.288085938 c 132
 304.96875 898.416015625 360.608398438 874.48046875 408.2890625 826.48046875 c 132
 455.96875 778.48046875 479.744140625 722.80078125 479.616210938 659.440429688 c 4
 479.744140625 594.16015625 455.96875 537.680664062 408.2890625 490 c 132
 360.608398438 442.3203125 304.96875 418.544921875 241.369140625 418.672851562 c 132
 177.608398438 418.544921875 121.4296875 442.420898438 72.83203125 490.301757812 c 132
 24.1494140625 537.78125 -0.126953125 594.16015625 0.0009765625 659.440429688 c 4
EndSplineSet
Refer: 320 57346 S 1 0 0 1 179.808 418.48 2
Refer: 320 57346 S 1 0 0 1 359.808 598.48 2
Refer: 320 57346 S 1 0 0 1 179.808 778.48 2
Refer: 320 57346 S 1 0 0 1 -0.0497442 598.334 2
EndChar

StartChar: p.brh.3
Encoding: 57381 57381 471
Width: 482
Flags: W
LayerCount: 3
Fore
SplineSet
120 53 m 1,0,1
 90 48 90 48 60 44 c 1,2,3
 30 44 30 44 0 44 c 1,4,5
 0 450 0 450 0 600 c 1,6,7
 1 961 1 961 234.5 961 c 0,8,9
 648 962 648 962 370 480 c 0,10,11
 370 480 370 480 120 53 c 1,0,1
121 288 m 1,13,14
 130.30078125 304.893554688 130.30078125 304.893554688 266 540 c 0,15,16
 439 838 439 838 234 838 c 0,17,18
 119 838 119 838 120 600 c 0,19,20
 121 362 121 362 121 288 c 1,13,14
EndSplineSet
Refer: 320 57346 N 1 0 0 1 0 10 2
Refer: 320 57346 N 1 0 0 1 0 -4.54747e-13 2
Layer: 2
SplineSet
123.143554688 718.962890625 m 4
 123.047851562 683.060546875 133.03515625 654.59375 153.106445312 633.5625 c 4
 175.03515625 610.59375 205 599.073242188 243 599 c 4
 282.915039062 599.076171875 312.879882812 609.099609375 332.893554688 629.069335938 c 4
 352.96484375 649.095703125 362.952148438 679.060546875 362.856445312 718.962890625 c 4
 362.952148438 756.393554688 352.1328125 785.857421875 330.3984375 807.353515625 c 4
 308.1328125 828.524414062 279 839.212890625 243 839.420898438 c 4
 204.333007812 839.212890625 175.53515625 828.524414062 156.60546875 807.353515625 c 4
 134.202148438 782.524414062 123.047851562 753.060546875 123.143554688 718.962890625 c 4
3.1923828125 720.069335938 m 4
 3.064453125 783.4296875 27.3203125 839.109375 75.9599609375 887.109375 c 132
 124.599609375 935.109375 180.799804688 959.044921875 244.560546875 958.916992188 c 132
 308.16015625 959.044921875 363.799804688 935.109375 411.48046875 887.109375 c 132
 459.16015625 839.109375 482.935546875 783.4296875 482.807617188 720.069335938 c 4
 482.935546875 654.7890625 459.16015625 598.309570312 411.48046875 550.62890625 c 132
 363.799804688 502.94921875 308.16015625 479.173828125 244.560546875 479.301757812 c 132
 180.799804688 479.173828125 124.62109375 503.049804688 76.0234375 550.930664062 c 132
 27.3408203125 598.41015625 3.064453125 654.7890625 3.1923828125 720.069335938 c 4
EndSplineSet
Refer: 320 57346 S 1 0 0 1 3.14355 658.963 2
Refer: 320 57346 S 1 0 0 1 183 839.109 2
Refer: 320 57346 S 1 0 0 1 363 659.109 2
Refer: 320 57346 S 1 0 0 1 183 479.109 2
EndChar

StartChar: p.brh.6
Encoding: 57382 57382 472
Width: 481
Flags: W
LayerCount: 3
Fore
SplineSet
118 47 m 1,0,1
 89 48 89 48 60 48 c 1,2,3
 30 48 30 48 0 48 c 1,4,5
 0 48 0 48 0 536 c 0,6,7
 0 900 0 900 239.5 900 c 4,8,9
 481 900 481 900 481 601 c 0,0,0
 481 253 481 253 118 47 c 1,0,1
120 186 m 1,13,14
 360 326 360 326 360 601 c 0,0,0
 360 780 360 780 240 780 c 0,17,18
 120 780 120 780 120 536 c 0,19,20
 120 536 120 536 120 186 c 1,13,14
EndSplineSet
Refer: 320 57346 N 1 0 0 1 0 0 2
Refer: 320 57346 N 1 0 0 1 0 22 2
Layer: 2
SplineSet
120.18359375 659.853515625 m 4
 120.087890625 623.951171875 130.075195312 595.484375 150.146484375 574.453125 c 4
 172.075195312 551.484375 202.040039062 539.963867188 240.040039062 539.890625 c 4
 279.955078125 539.966796875 309.919921875 549.990234375 329.93359375 569.959960938 c 4
 350.004882812 589.986328125 359.9921875 619.951171875 359.896484375 659.853515625 c 4
 359.9921875 697.284179688 349.172851562 726.748046875 327.438476562 748.244140625 c 4
 305.172851562 769.415039062 276.040039062 780.103515625 240.040039062 780.311523438 c 4
 201.373046875 780.103515625 172.575195312 769.415039062 153.645507812 748.244140625 c 4
 131.2421875 723.415039062 120.087890625 693.951171875 120.18359375 659.853515625 c 4
0.232421875 660.959960938 m 4
 0.1044921875 724.3203125 24.3603515625 780 73 828 c 132
 121.639648438 876 177.83984375 899.935546875 241.600585938 899.807617188 c 132
 305.200195312 899.935546875 360.83984375 876 408.520507812 828 c 132
 456.200195312 780 479.975585938 724.3203125 479.84765625 660.959960938 c 4
 479.975585938 595.6796875 456.200195312 539.200195312 408.520507812 491.51953125 c 132
 360.83984375 443.83984375 305.200195312 420.064453125 241.600585938 420.192382812 c 132
 177.83984375 420.064453125 121.661132812 443.940429688 73.0634765625 491.821289062 c 132
 24.380859375 539.30078125 0.1044921875 595.6796875 0.232421875 660.959960938 c 4
EndSplineSet
Refer: 320 57346 S 1 0 0 1 0.183594 599.854 2
Refer: 320 57346 S 1 0 0 1 180.04 780 2
Refer: 320 57346 S 1 0 0 1 360.04 600 2
Refer: 320 57346 S 1 0 0 1 180.04 420 2
EndChar

StartChar: p.brh.8
Encoding: 57383 57383 473
Width: 480
Flags: W
LayerCount: 3
Fore
SplineSet
118.2890625 47 m 1,0,1
 89.2890625 48 89.2890625 48 60.2890625 48 c 1,2,3
 30.2890625 48 30.2890625 48 0.2890625 48 c 1,4,5
 0.2890625 601 0.2890625 601 0.2890625 601 c 1,6,7
 -0.7109375 899 -0.7109375 899 227.7890625 900 c 0,8,9
 480.2890625 901 480.2890625 901 480.2890625 600 c 0,0,0
 481.2890625 78 481.2890625 78 118.2890625 47 c 1,0,1
120.2890625 169 m 1,13,14
 360.2890625 189 360.2890625 189 360.2890625 600 c 0,0,0
 360.2890625 777 360.2890625 777 227.2890625 777 c 0,17,18
 120.2890625 777 120.2890625 777 120.2890625 601 c 0,19,20
 120.2890625 601 120.2890625 601 120.2890625 169 c 1,13,14
EndSplineSet
Refer: 320 57346 N 1 0 0 1 0.287169 0 2
Refer: 320 57346 N 1 0 0 1 0.287169 42 2
Layer: 2
SplineSet
119.952148438 658.853515625 m 4
 119.856445312 622.951171875 129.84375 594.484375 149.915039062 573.453125 c 4
 171.84375 550.484375 201.80859375 538.963867188 239.80859375 538.890625 c 4
 279.723632812 538.966796875 309.688476562 548.990234375 329.702148438 568.959960938 c 4
 349.7734375 588.986328125 359.760742188 618.951171875 359.665039062 658.853515625 c 4
 359.760742188 696.284179688 348.94140625 725.748046875 327.20703125 747.244140625 c 4
 304.94140625 768.415039062 275.80859375 779.103515625 239.80859375 779.311523438 c 4
 201.141601562 779.103515625 172.34375 768.415039062 153.4140625 747.244140625 c 4
 131.010742188 722.415039062 119.856445312 692.951171875 119.952148438 658.853515625 c 4
0.0009765625 659.959960938 m 4
 -0.126953125 723.3203125 24.12890625 779 72.7685546875 827 c 132
 121.408203125 875 177.608398438 898.935546875 241.369140625 898.807617188 c 132
 304.96875 898.935546875 360.608398438 875 408.2890625 827 c 132
 455.96875 779 479.744140625 723.3203125 479.616210938 659.959960938 c 4
 479.744140625 594.6796875 455.96875 538.200195312 408.2890625 490.51953125 c 132
 360.608398438 442.83984375 304.96875 419.064453125 241.369140625 419.192382812 c 132
 177.608398438 419.064453125 121.4296875 442.940429688 72.83203125 490.821289062 c 132
 24.1494140625 538.30078125 -0.126953125 594.6796875 0.0009765625 659.959960938 c 4
EndSplineSet
Refer: 320 57346 S 1 0 0 1 -0.0497442 598.854 2
Refer: 320 57346 S 1 0 0 1 179.808 779 2
Refer: 320 57346 S 1 0 0 1 359.808 599 2
Refer: 320 57346 S 1 0 0 1 179.808 419 2
EndChar

StartChar: b.brh.4
Encoding: 57388 57388 474
Width: 452
Flags: W
LayerCount: 3
Fore
SplineSet
120 211 m 5,0,1
 205 294 205 294 205 294 c 4,0,0
 259 347 259 347 301 397 c 4,0,0
 327.985351562 432.443359375 327.985351562 432.443359375 328.288085938 485 c 4,0,0
 328 527 328 527 302 557 c 4,0,0
 265 597 265 597 226 596 c 4,0,0
 187 595 187 595 148 555 c 4,4,5
 119 524 119 524 120 433 c 4,6,7
 122 289 122 289 120 211 c 5,0,1
117.991210938 41 m 5,10,11
 117.991210938 41 117.991210938 41 0 60 c 5,14,-1
 0 436 l 6,15,16
 0 719 0 719 228 719 c 4,17,18
 322 719 322 719 389 640 c 4,0,0
 451 568 451 568 452.005859375 500 c 4,0,0
 453 429 453 429 427 377 c 4,0,0
 394 311 394 311 296 214 c 4,19,20
 207 127 207 127 117.991210938 41 c 5,10,11
EndSplineSet
Refer: 320 57346 S 1 0 0 1 0 4 2
Refer: 320 57346 S 1 0 0 1 0 0 2
EndChar

StartChar: b.brh.3
Encoding: 57389 57389 475
Width: 430
Flags: W
LayerCount: 3
Fore
SplineSet
120 288 m 5,0,1
 158 346 158 346 158 346 c 4,0,0
 248 500 248 500 252 507 c 4,0,0
 367 741 367 741 223 742 c 4,4,5
 120 743 120 743 120 569 c 4,6,7
 120 407 120 407 120 288 c 5,0,1
117.991210938 41 m 5,10,11
 117.991210938 41 117.991210938 41 0 79 c 5,14,-1
 0 587 l 6,15,16
 0 865 0 865 222 865 c 4,17,18
 623 865 623 865 252 263 c 4,0,0
 191 164 191 164 191 164 c 4,19,20
 164 123 164 123 117.991210938 41 c 5,10,11
EndSplineSet
Refer: 320 57346 S 1 0 0 1 2 6 2
Refer: 320 57346 S 1 0 0 1 0 0 2
EndChar

StartChar: b.brh.6
Encoding: 57390 57390 476
Width: 453
Flags: W
LayerCount: 3
Fore
SplineSet
120 183 m 5,0,1
 332 307 332 307 332 407 c 4,0,0
 332.9921875 536 332.9921875 536 226 536 c 4,0,0
 120 536 120 536 120 401 c 4,6,7
 120 261 120 261 120 183 c 5,0,1
117.991210938 41 m 5,10,11
 117.991210938 41 117.991210938 41 0 60 c 5,14,-1
 0 404 l 6,15,16
 0 659 0 659 228 659 c 4,17,18
 455 659 455 659 453 411 c 4,19,20
 452 242 452 242 117.991210938 41 c 5,10,11
EndSplineSet
Refer: 320 57346 S 1 0 0 1 0 17 2
Refer: 320 57346 S 1 0 0 1 0 4.54747e-13 2
EndChar

StartChar: b.brh.8
Encoding: 57391 57391 477
Width: 446
Flags: W
LayerCount: 3
Fore
SplineSet
120 166 m 1,0,1
 329 173 329 173 329 356 c 0,0,0
 329 531 329 531 225 531 c 0,0,0
 120 531 120 531 120 349 c 0,6,7
 120 243 120 243 120 166 c 1,0,1
117.991210938 41 m 1,10,11
 117.991210938 41 117.991210938 41 0 60 c 1,14,-1
 0 347 l 0,15,16
 0 654 0 654 227 654 c 0,17,18
 447 654 447 654 446 355 c 0,0,0
 445 75 445 75 117.991210938 41 c 1,10,11
EndSplineSet
Refer: 320 57346 N 1 0 0 1 0 38 2
Refer: 320 57346 N 1 0 0 1 0 0 2
EndChar

StartChar: sp.brh.4
Encoding: 57396 57396 478
Width: 601
Flags: W
LayerCount: 3
Fore
SplineSet
0 50 m 1,3,4
 0 569 0 569 1 717 c 0,5,6
 3 1082 3 1082 299.5 1082.5 c 128,-1,7
 600 1083 600 1083 600 800 c 0,0,0
 600 525 600 525 276 200 c 0,8,9
 276 200 276 200 120 44 c 1,10,-1
 0 50 l 1,3,4
120 214 m 1,11,12
 162 258 162 258 206 300 c 0,13,14
 480 573 480 573 480 800 c 0,0,0
 480 965 480 965 300.5 964 c 128,-1,15
 121 963 121 963 120 695 c 0,16,17
 119 387 119 387 120 214 c 1,11,12
EndSplineSet
Refer: 320 57346 N 1 0 0 1 4.54747e-13 -1 2
Refer: 320 57346 N 1 0 0 1 0 10 2
Layer: 2
SplineSet
300.633789062 1084.55371094 m 4
 378.2109375 1084.8515625 447.333007812 1053.33300781 508 990 c 4
 570.017578125 927.626953125 601.170898438 859.959960938 601.4609375 787 c 4
 601.180664062 710.390625 570.02734375 640.390625 508 577 c 4
 447.333007812 515 378.544921875 484.1484375 301.633789062 484.446289062 c 4
 223.877929688 484.1484375 153.333007812 514.666992188 90 576 c 4
 30.6669921875 632.213867188 1 701.880859375 1 785 c 4
 1 862.326171875 31.6669921875 931.326171875 93 992 c 4
 155 1053.33300781 224.2109375 1084.18457031 300.633789062 1084.55371094 c 4
300.624023438 603.5 m 4
 350.875 603.833007812 392.333007812 622 425 658 c 4
 463 701.333007812 481.80859375 743.444335938 481.424804688 784.33203125 c 4
 481.141601562 829.444335938 461.666992188 870.666992188 423 908 c 4
 383.666992188 945.333007812 343.208007812 964.095703125 301.624023438 964.287109375 c 4
 251.208007812 964.095703125 209.666992188 945.333007812 177 908 c 4
 139.666992188 864.666992188 120.94140625 823.595703125 120.82421875 784.788085938 c 4
 120.94140625 750.262695312 140 707.666992188 178 657 c 4
 205.333007812 621 246.208007812 603.166992188 300.624023438 603.5 c 4
EndSplineSet
Refer: 320 57346 S 1 0 0 1 241 964 2
Refer: 320 57346 S 1 0 0 1 481 724 2
Refer: 320 57346 S 1 0 0 1 240.634 484.446 2
Refer: 320 57346 S 1 0 0 1 1 724 2
EndChar

StartChar: sp.brh.3
Encoding: 57397 57397 479
Width: 600
Flags: W
LayerCount: 3
Fore
SplineSet
0.82421875 57 m 1,3,4
 1.82421875 324 1.82421875 324 0.82421875 783 c 0,5,6
 -0.17578125 1199 -0.17578125 1199 299.82421875 1200 c 128,-1,7
 599.82421875 1201 599.82421875 1201 599.82421875 992 c 0,0,0
 599.82421875 891 599.82421875 891 239.82421875 261 c 4,8,9
 239.82421875 261 239.82421875 261 120.82421875 51 c 1,10,-1
 0.82421875 57 l 1,3,4
120.82421875 294 m 1,11,12
 199.82421875 435 199.82421875 435 279.82421875 576 c 0,13,14
 479.82421875 926 479.82421875 926 479.82421875 997 c 0,0,0
 479.82421875 1081 479.82421875 1081 299.82421875 1080 c 128,-1,15
 119.82421875 1079 119.82421875 1079 121.82421875 783.5 c 0,16,17
 122.82421875 624 122.82421875 624 120.82421875 294 c 1,11,12
EndSplineSet
Refer: 320 57346 N 1 0 0 1 0.824219 0 2
Refer: 320 57346 N 1 0 0 1 7.82422 20 2
Layer: 2
SplineSet
299.633789062 1199.765625 m 4
 377.2109375 1200.06347656 446.333007812 1168.54492188 507 1105.21191406 c 4
 569.017578125 1042.83886719 600.170898438 975.171875 600.4609375 902.211914062 c 4
 600.180664062 825.602539062 569.02734375 755.602539062 507 692.211914062 c 4
 446.333007812 630.211914062 377.544921875 599.360351562 300.633789062 599.658203125 c 4
 222.877929688 599.360351562 152.333007812 629.87890625 89 691.211914062 c 4
 29.6669921875 747.42578125 0 817.092773438 0 900.211914062 c 4
 0 977.538085938 30.6669921875 1046.53808594 92 1107.21191406 c 4
 154 1168.54492188 223.2109375 1199.39648438 299.633789062 1199.765625 c 4
299.624023438 718.711914062 m 4
 349.875 719.044921875 391.333007812 737.211914062 424 773.211914062 c 4
 462 816.544921875 480.80859375 858.65625 480.424804688 899.543945312 c 4
 480.141601562 944.65625 460.666992188 985.87890625 422 1023.21191406 c 4
 382.666992188 1060.54492188 342.208007812 1079.30761719 300.624023438 1079.49902344 c 4
 250.208007812 1079.30761719 208.666992188 1060.54492188 176 1023.21191406 c 4
 138.666992188 979.87890625 119.94140625 938.807617188 119.82421875 900 c 4
 119.94140625 865.474609375 139 822.87890625 177 772.211914062 c 4
 204.333007812 736.211914062 245.208007812 718.37890625 299.624023438 718.711914062 c 4
EndSplineSet
Refer: 320 57346 S 1 0 0 1 0 839.212 2
Refer: 320 57346 S 1 0 0 1 239.634 599.658 2
Refer: 320 57346 S 1 0 0 1 480 839.212 2
Refer: 320 57346 S 1 0 0 1 240 1079.21 2
EndChar

